solid CATIA STL
  facet normal  0.000000e+000  1.000000e+000  0.000000e+000
    outer loop
      vertex -1.690000e+001  4.230000e+001  4.950000e+001
      vertex -6.108916e+001  4.230000e+001  4.950000e+001
      vertex -1.690000e+001  4.230000e+001  5.550000e+001
    endloop
  endfacet
  facet normal  0.000000e+000  1.000000e+000  0.000000e+000
    outer loop
      vertex -1.690000e+001  4.230000e+001  5.550000e+001
      vertex -6.108916e+001  4.230000e+001  4.950000e+001
      vertex -4.100000e+001  4.230000e+001  5.550000e+001
    endloop
  endfacet
  facet normal  0.000000e+000  1.000000e+000  0.000000e+000
    outer loop
      vertex -6.108916e+001  4.230000e+001  4.950000e+001
      vertex -6.108916e+001  4.230000e+001  6.350000e+001
      vertex -4.100000e+001  4.230000e+001  5.550000e+001
    endloop
  endfacet
  facet normal  0.000000e+000  1.000000e+000  -0.000000e+000
    outer loop
      vertex -4.100000e+001  4.230000e+001  5.550000e+001
      vertex -6.108916e+001  4.230000e+001  6.350000e+001
      vertex -4.100000e+001  4.230000e+001  6.350000e+001
    endloop
  endfacet
  facet normal  3.420201e-001 -9.396926e-001  0.000000e+000
    outer loop
      vertex -2.100000e+001  3.230000e+001  5.550000e+001
      vertex -4.100000e+001  2.502060e+001  5.550000e+001
      vertex -2.100000e+001  3.230000e+001  4.950000e+001
    endloop
  endfacet
  facet normal  3.420201e-001 -9.396926e-001  0.000000e+000
    outer loop
      vertex -2.100000e+001  3.230000e+001  4.950000e+001
      vertex -4.100000e+001  2.502060e+001  5.550000e+001
      vertex -4.100000e+001  2.502060e+001  4.950000e+001
    endloop
  endfacet
  facet normal  1.000000e+000  -0.000000e+000  0.000000e+000
    outer loop
      vertex -4.100000e+001  4.230000e+001  6.350000e+001
      vertex -4.100000e+001  2.480000e+001  6.350000e+001
      vertex -4.100000e+001  4.230000e+001  5.550000e+001
    endloop
  endfacet
  facet normal  1.000000e+000  0.000000e+000  0.000000e+000
    outer loop
      vertex -4.100000e+001  4.230000e+001  5.550000e+001
      vertex -4.100000e+001  2.480000e+001  6.350000e+001
      vertex -4.100000e+001  2.502060e+001  5.550000e+001
    endloop
  endfacet
  facet normal  1.000000e+000  0.000000e+000  0.000000e+000
    outer loop
      vertex -4.100000e+001  2.480000e+001  6.350000e+001
      vertex -4.100000e+001  2.480000e+001  4.950000e+001
      vertex -4.100000e+001  2.502060e+001  5.550000e+001
    endloop
  endfacet
  facet normal  1.000000e+000  0.000000e+000  0.000000e+000
    outer loop
      vertex -4.100000e+001  2.502060e+001  5.550000e+001
      vertex -4.100000e+001  2.480000e+001  4.950000e+001
      vertex -4.100000e+001  2.502060e+001  4.950000e+001
    endloop
  endfacet
  facet normal  0.000000e+000 -9.999999e-001  0.000000e+000
    outer loop
      vertex -2.100000e+001  3.230000e+001  4.950000e+001
      vertex -1.690000e+001  3.230000e+001  4.950000e+001
      vertex -2.100000e+001  3.230000e+001  5.550000e+001
    endloop
  endfacet
  facet normal  0.000000e+000 -9.999999e-001  0.000000e+000
    outer loop
      vertex -2.100000e+001  3.230000e+001  5.550000e+001
      vertex -1.690000e+001  3.230000e+001  4.950000e+001
      vertex -1.690000e+001  3.230000e+001  5.550000e+001
    endloop
  endfacet
  facet normal  0.000000e+000  0.000000e+000  1.000000e+000
    outer loop
      vertex -4.100000e+001  2.502060e+001  5.550000e+001
      vertex -2.100000e+001  3.230000e+001  5.550000e+001
      vertex -2.173728e+001  3.595984e+001  5.550000e+001
    endloop
  endfacet
  facet normal  0.000000e+000  0.000000e+000  1.000000e+000
    outer loop
      vertex -4.100000e+001  2.502060e+001  5.550000e+001
      vertex -2.173728e+001  3.595984e+001  5.550000e+001
      vertex -2.206273e+001  3.595984e+001  5.550000e+001
    endloop
  endfacet
  facet normal  0.000000e+000  0.000000e+000  1.000000e+000
    outer loop
      vertex -4.100000e+001  2.502060e+001  5.550000e+001
      vertex -2.206273e+001  3.595984e+001  5.550000e+001
      vertex -2.237872e+001  3.603773e+001  5.550000e+001
    endloop
  endfacet
  facet normal  0.000000e+000  0.000000e+000  9.999999e-001
    outer loop
      vertex -4.100000e+001  2.502060e+001  5.550000e+001
      vertex -2.237872e+001  3.603773e+001  5.550000e+001
      vertex -2.266689e+001  3.618897e+001  5.550000e+001
    endloop
  endfacet
  facet normal  0.000000e+000  0.000000e+000  1.000000e+000
    outer loop
      vertex -4.100000e+001  2.502060e+001  5.550000e+001
      vertex -2.266689e+001  3.618897e+001  5.550000e+001
      vertex -2.754224e+001  3.630000e+001  5.550000e+001
    endloop
  endfacet
  facet normal  0.000000e+000  0.000000e+000  1.000000e+000
    outer loop
      vertex -4.100000e+001  2.502060e+001  5.550000e+001
      vertex -2.754224e+001  3.630000e+001  5.550000e+001
      vertex -3.786425e+001  3.630000e+001  5.550000e+001
    endloop
  endfacet
  facet normal  0.000000e+000  0.000000e+000  1.000000e+000
    outer loop
      vertex -4.100000e+001  2.502060e+001  5.550000e+001
      vertex -3.786425e+001  3.630000e+001  5.550000e+001
      vertex -3.812307e+001  3.633408e+001  5.550000e+001
    endloop
  endfacet
  facet normal  0.000000e+000  0.000000e+000  1.000000e+000
    outer loop
      vertex -4.100000e+001  2.502060e+001  5.550000e+001
      vertex -3.812307e+001  3.633408e+001  5.550000e+001
      vertex -3.836425e+001  3.643398e+001  5.550000e+001
    endloop
  endfacet
  facet normal  0.000000e+000  0.000000e+000  9.999999e-001
    outer loop
      vertex -4.100000e+001  2.502060e+001  5.550000e+001
      vertex -3.836425e+001  3.643398e+001  5.550000e+001
      vertex -3.857136e+001  3.659289e+001  5.550000e+001
    endloop
  endfacet
  facet normal  0.000000e+000  0.000000e+000  1.000000e+000
    outer loop
      vertex -4.100000e+001  2.502060e+001  5.550000e+001
      vertex -3.857136e+001  3.659289e+001  5.550000e+001
      vertex -3.873027e+001  3.680000e+001  5.550000e+001
    endloop
  endfacet
  facet normal  0.000000e+000  0.000000e+000  1.000000e+000
    outer loop
      vertex -4.100000e+001  2.502060e+001  5.550000e+001
      vertex -3.873027e+001  3.680000e+001  5.550000e+001
      vertex -3.883018e+001  3.704118e+001  5.550000e+001
    endloop
  endfacet
  facet normal  0.000000e+000  0.000000e+000  1.000000e+000
    outer loop
      vertex -4.100000e+001  2.502060e+001  5.550000e+001
      vertex -3.883018e+001  3.704118e+001  5.550000e+001
      vertex -4.100000e+001  4.230000e+001  5.550000e+001
    endloop
  endfacet
  facet normal  0.000000e+000  0.000000e+000  1.000000e+000
    outer loop
      vertex -4.100000e+001  4.230000e+001  5.550000e+001
      vertex -3.883018e+001  3.704118e+001  5.550000e+001
      vertex -3.886425e+001  3.730000e+001  5.550000e+001
    endloop
  endfacet
  facet normal  0.000000e+000  -0.000000e+000  1.000000e+000
    outer loop
      vertex -4.100000e+001  4.230000e+001  5.550000e+001
      vertex -3.886425e+001  3.730000e+001  5.550000e+001
      vertex -3.883018e+001  3.755882e+001  5.550000e+001
    endloop
  endfacet
  facet normal  0.000000e+000  -0.000000e+000  9.999999e-001
    outer loop
      vertex -4.100000e+001  4.230000e+001  5.550000e+001
      vertex -3.883018e+001  3.755882e+001  5.550000e+001
      vertex -3.873027e+001  3.780000e+001  5.550000e+001
    endloop
  endfacet
  facet normal  0.000000e+000  -0.000000e+000  1.000000e+000
    outer loop
      vertex -4.100000e+001  4.230000e+001  5.550000e+001
      vertex -3.873027e+001  3.780000e+001  5.550000e+001
      vertex -3.857136e+001  3.800711e+001  5.550000e+001
    endloop
  endfacet
  facet normal  0.000000e+000  -0.000000e+000  9.999999e-001
    outer loop
      vertex -4.100000e+001  4.230000e+001  5.550000e+001
      vertex -3.857136e+001  3.800711e+001  5.550000e+001
      vertex -3.836425e+001  3.816603e+001  5.550000e+001
    endloop
  endfacet
  facet normal  0.000000e+000  -0.000000e+000  1.000000e+000
    outer loop
      vertex -4.100000e+001  4.230000e+001  5.550000e+001
      vertex -3.836425e+001  3.816603e+001  5.550000e+001
      vertex -3.812307e+001  3.826593e+001  5.550000e+001
    endloop
  endfacet
  facet normal  0.000000e+000  -0.000000e+000  1.000000e+000
    outer loop
      vertex -4.100000e+001  4.230000e+001  5.550000e+001
      vertex -3.812307e+001  3.826593e+001  5.550000e+001
      vertex -3.786425e+001  3.830000e+001  5.550000e+001
    endloop
  endfacet
  facet normal  0.000000e+000  -0.000000e+000  1.000000e+000
    outer loop
      vertex -4.100000e+001  4.230000e+001  5.550000e+001
      vertex -3.786425e+001  3.830000e+001  5.550000e+001
      vertex -2.754224e+001  3.830000e+001  5.550000e+001
    endloop
  endfacet
  facet normal  0.000000e+000  -0.000000e+000  1.000000e+000
    outer loop
      vertex -4.100000e+001  4.230000e+001  5.550000e+001
      vertex -2.754224e+001  3.830000e+001  5.550000e+001
      vertex -2.266689e+001  3.841103e+001  5.550000e+001
    endloop
  endfacet
  facet normal  0.000000e+000  -0.000000e+000  1.000000e+000
    outer loop
      vertex -4.100000e+001  4.230000e+001  5.550000e+001
      vertex -2.266689e+001  3.841103e+001  5.550000e+001
      vertex -2.237872e+001  3.856227e+001  5.550000e+001
    endloop
  endfacet
  facet normal  0.000000e+000  -0.000000e+000  1.000000e+000
    outer loop
      vertex -4.100000e+001  4.230000e+001  5.550000e+001
      vertex -2.237872e+001  3.856227e+001  5.550000e+001
      vertex -2.206273e+001  3.864016e+001  5.550000e+001
    endloop
  endfacet
  facet normal  0.000000e+000  -0.000000e+000  1.000000e+000
    outer loop
      vertex -4.100000e+001  4.230000e+001  5.550000e+001
      vertex -2.206273e+001  3.864016e+001  5.550000e+001
      vertex -2.173728e+001  3.864016e+001  5.550000e+001
    endloop
  endfacet
  facet normal  0.000000e+000  -0.000000e+000  1.000000e+000
    outer loop
      vertex -4.100000e+001  4.230000e+001  5.550000e+001
      vertex -2.173728e+001  3.864016e+001  5.550000e+001
      vertex -1.690000e+001  4.230000e+001  5.550000e+001
    endloop
  endfacet
  facet normal  -0.000000e+000  0.000000e+000  1.000000e+000
    outer loop
      vertex -1.690000e+001  4.230000e+001  5.550000e+001
      vertex -2.173728e+001  3.864016e+001  5.550000e+001
      vertex -2.142128e+001  3.856227e+001  5.550000e+001
    endloop
  endfacet
  facet normal  -0.000000e+000  0.000000e+000  1.000000e+000
    outer loop
      vertex -1.690000e+001  4.230000e+001  5.550000e+001
      vertex -2.142128e+001  3.856227e+001  5.550000e+001
      vertex -2.113311e+001  3.841103e+001  5.550000e+001
    endloop
  endfacet
  facet normal  -0.000000e+000  0.000000e+000  1.000000e+000
    outer loop
      vertex -1.690000e+001  4.230000e+001  5.550000e+001
      vertex -2.113311e+001  3.841103e+001  5.550000e+001
      vertex -2.088951e+001  3.819522e+001  5.550000e+001
    endloop
  endfacet
  facet normal  -0.000000e+000  0.000000e+000  1.000000e+000
    outer loop
      vertex -1.690000e+001  4.230000e+001  5.550000e+001
      vertex -2.088951e+001  3.819522e+001  5.550000e+001
      vertex -2.070463e+001  3.792738e+001  5.550000e+001
    endloop
  endfacet
  facet normal  -0.000000e+000  0.000000e+000  1.000000e+000
    outer loop
      vertex -1.690000e+001  4.230000e+001  5.550000e+001
      vertex -2.070463e+001  3.792738e+001  5.550000e+001
      vertex -2.058923e+001  3.762308e+001  5.550000e+001
    endloop
  endfacet
  facet normal  -0.000000e+000  0.000000e+000  9.999999e-001
    outer loop
      vertex -1.690000e+001  4.230000e+001  5.550000e+001
      vertex -2.058923e+001  3.762308e+001  5.550000e+001
      vertex -2.055000e+001  3.730000e+001  5.550000e+001
    endloop
  endfacet
  facet normal  -0.000000e+000  0.000000e+000  1.000000e+000
    outer loop
      vertex -1.690000e+001  4.230000e+001  5.550000e+001
      vertex -2.055000e+001  3.730000e+001  5.550000e+001
      vertex -2.058923e+001  3.697692e+001  5.550000e+001
    endloop
  endfacet
  facet normal  -0.000000e+000  0.000000e+000  1.000000e+000
    outer loop
      vertex -1.690000e+001  4.230000e+001  5.550000e+001
      vertex -2.058923e+001  3.697692e+001  5.550000e+001
      vertex -2.070463e+001  3.667262e+001  5.550000e+001
    endloop
  endfacet
  facet normal  0.000000e+000  0.000000e+000  1.000000e+000
    outer loop
      vertex -1.690000e+001  3.230000e+001  5.550000e+001
      vertex -1.690000e+001  4.230000e+001  5.550000e+001
      vertex -2.070463e+001  3.667262e+001  5.550000e+001
    endloop
  endfacet
  facet normal  0.000000e+000  0.000000e+000  1.000000e+000
    outer loop
      vertex -1.690000e+001  3.230000e+001  5.550000e+001
      vertex -2.070463e+001  3.667262e+001  5.550000e+001
      vertex -2.088951e+001  3.640479e+001  5.550000e+001
    endloop
  endfacet
  facet normal  0.000000e+000  0.000000e+000  9.999999e-001
    outer loop
      vertex -1.690000e+001  3.230000e+001  5.550000e+001
      vertex -2.088951e+001  3.640479e+001  5.550000e+001
      vertex -2.113311e+001  3.618897e+001  5.550000e+001
    endloop
  endfacet
  facet normal  0.000000e+000  0.000000e+000  1.000000e+000
    outer loop
      vertex -1.690000e+001  3.230000e+001  5.550000e+001
      vertex -2.113311e+001  3.618897e+001  5.550000e+001
      vertex -2.142128e+001  3.603773e+001  5.550000e+001
    endloop
  endfacet
  facet normal  0.000000e+000  0.000000e+000  1.000000e+000
    outer loop
      vertex -1.690000e+001  3.230000e+001  5.550000e+001
      vertex -2.142128e+001  3.603773e+001  5.550000e+001
      vertex -2.173728e+001  3.595984e+001  5.550000e+001
    endloop
  endfacet
  facet normal  0.000000e+000  0.000000e+000  1.000000e+000
    outer loop
      vertex -1.690000e+001  3.230000e+001  5.550000e+001
      vertex -2.173728e+001  3.595984e+001  5.550000e+001
      vertex -2.100000e+001  3.230000e+001  5.550000e+001
    endloop
  endfacet
  facet normal  0.000000e+000  0.000000e+000  1.000000e+000
    outer loop
      vertex -2.704224e+001  3.643398e+001  5.550000e+001
      vertex -2.728342e+001  3.633408e+001  5.550000e+001
      vertex -2.291049e+001  3.640479e+001  5.550000e+001
    endloop
  endfacet
  facet normal  0.000000e+000  0.000000e+000  1.000000e+000
    outer loop
      vertex -2.291049e+001  3.640479e+001  5.550000e+001
      vertex -2.728342e+001  3.633408e+001  5.550000e+001
      vertex -2.754224e+001  3.630000e+001  5.550000e+001
    endloop
  endfacet
  facet normal  -0.000000e+000  0.000000e+000  1.000000e+000
    outer loop
      vertex -2.291049e+001  3.640479e+001  5.550000e+001
      vertex -2.754224e+001  3.630000e+001  5.550000e+001
      vertex -2.266689e+001  3.618897e+001  5.550000e+001
    endloop
  endfacet
  facet normal  0.000000e+000  0.000000e+000  9.999999e-001
    outer loop
      vertex -2.657631e+001  3.704118e+001  5.550000e+001
      vertex -2.667622e+001  3.680000e+001  5.550000e+001
      vertex -2.321077e+001  3.697692e+001  5.550000e+001
    endloop
  endfacet
  facet normal  0.000000e+000  0.000000e+000  1.000000e+000
    outer loop
      vertex -2.321077e+001  3.697692e+001  5.550000e+001
      vertex -2.667622e+001  3.680000e+001  5.550000e+001
      vertex -2.683513e+001  3.659289e+001  5.550000e+001
    endloop
  endfacet
  facet normal  0.000000e+000  0.000000e+000  1.000000e+000
    outer loop
      vertex -2.321077e+001  3.697692e+001  5.550000e+001
      vertex -2.683513e+001  3.659289e+001  5.550000e+001
      vertex -2.309537e+001  3.667262e+001  5.550000e+001
    endloop
  endfacet
  facet normal  0.000000e+000  0.000000e+000  1.000000e+000
    outer loop
      vertex -2.309537e+001  3.667262e+001  5.550000e+001
      vertex -2.683513e+001  3.659289e+001  5.550000e+001
      vertex -2.704224e+001  3.643398e+001  5.550000e+001
    endloop
  endfacet
  facet normal  -0.000000e+000  0.000000e+000  1.000000e+000
    outer loop
      vertex -2.309537e+001  3.667262e+001  5.550000e+001
      vertex -2.704224e+001  3.643398e+001  5.550000e+001
      vertex -2.291049e+001  3.640479e+001  5.550000e+001
    endloop
  endfacet
  facet normal  0.000000e+000  -0.000000e+000  1.000000e+000
    outer loop
      vertex -2.683513e+001  3.800711e+001  5.550000e+001
      vertex -2.667622e+001  3.780000e+001  5.550000e+001
      vertex -2.309537e+001  3.792738e+001  5.550000e+001
    endloop
  endfacet
  facet normal  0.000000e+000  0.000000e+000  1.000000e+000
    outer loop
      vertex -2.309537e+001  3.792738e+001  5.550000e+001
      vertex -2.667622e+001  3.780000e+001  5.550000e+001
      vertex -2.657631e+001  3.755882e+001  5.550000e+001
    endloop
  endfacet
  facet normal  0.000000e+000  0.000000e+000  1.000000e+000
    outer loop
      vertex -2.309537e+001  3.792738e+001  5.550000e+001
      vertex -2.657631e+001  3.755882e+001  5.550000e+001
      vertex -2.321077e+001  3.762308e+001  5.550000e+001
    endloop
  endfacet
  facet normal  0.000000e+000  0.000000e+000  1.000000e+000
    outer loop
      vertex -2.321077e+001  3.762308e+001  5.550000e+001
      vertex -2.657631e+001  3.755882e+001  5.550000e+001
      vertex -2.654224e+001  3.730000e+001  5.550000e+001
    endloop
  endfacet
  facet normal  0.000000e+000  0.000000e+000  1.000000e+000
    outer loop
      vertex -2.321077e+001  3.762308e+001  5.550000e+001
      vertex -2.654224e+001  3.730000e+001  5.550000e+001
      vertex -2.325000e+001  3.730000e+001  5.550000e+001
    endloop
  endfacet
  facet normal  0.000000e+000  0.000000e+000  9.999999e-001
    outer loop
      vertex -2.325000e+001  3.730000e+001  5.550000e+001
      vertex -2.654224e+001  3.730000e+001  5.550000e+001
      vertex -2.657631e+001  3.704118e+001  5.550000e+001
    endloop
  endfacet
  facet normal  -0.000000e+000  0.000000e+000  1.000000e+000
    outer loop
      vertex -2.325000e+001  3.730000e+001  5.550000e+001
      vertex -2.657631e+001  3.704118e+001  5.550000e+001
      vertex -2.321077e+001  3.697692e+001  5.550000e+001
    endloop
  endfacet
  facet normal  0.000000e+000  -0.000000e+000  1.000000e+000
    outer loop
      vertex -2.754224e+001  3.830000e+001  5.550000e+001
      vertex -2.728342e+001  3.826593e+001  5.550000e+001
      vertex -2.266689e+001  3.841103e+001  5.550000e+001
    endloop
  endfacet
  facet normal  0.000000e+000  0.000000e+000  1.000000e+000
    outer loop
      vertex -2.266689e+001  3.841103e+001  5.550000e+001
      vertex -2.728342e+001  3.826593e+001  5.550000e+001
      vertex -2.704224e+001  3.816603e+001  5.550000e+001
    endloop
  endfacet
  facet normal  0.000000e+000  0.000000e+000  1.000000e+000
    outer loop
      vertex -2.266689e+001  3.841103e+001  5.550000e+001
      vertex -2.704224e+001  3.816603e+001  5.550000e+001
      vertex -2.291049e+001  3.819522e+001  5.550000e+001
    endloop
  endfacet
  facet normal  0.000000e+000  0.000000e+000  1.000000e+000
    outer loop
      vertex -2.291049e+001  3.819522e+001  5.550000e+001
      vertex -2.704224e+001  3.816603e+001  5.550000e+001
      vertex -2.683513e+001  3.800711e+001  5.550000e+001
    endloop
  endfacet
  facet normal  -0.000000e+000  0.000000e+000  1.000000e+000
    outer loop
      vertex -2.291049e+001  3.819522e+001  5.550000e+001
      vertex -2.683513e+001  3.800711e+001  5.550000e+001
      vertex -2.309537e+001  3.792738e+001  5.550000e+001
    endloop
  endfacet
  facet normal  0.000000e+000  -0.000000e+000 -9.999999e-001
    outer loop
      vertex -6.683115e+001  3.388593e+001  4.950000e+001
      vertex -3.812307e+001  3.633408e+001  4.950000e+001
      vertex -3.786425e+001  3.630000e+001  4.950000e+001
    endloop
  endfacet
  facet normal  0.000000e+000  -0.000000e+000 -1.000000e+000
    outer loop
      vertex -6.683115e+001  3.388593e+001  4.950000e+001
      vertex -6.108916e+001  4.230000e+001  4.950000e+001
      vertex -3.812307e+001  3.633408e+001  4.950000e+001
    endloop
  endfacet
  facet normal  -0.000000e+000  0.000000e+000 -9.999999e-001
    outer loop
      vertex -6.108916e+001  4.230000e+001  4.950000e+001
      vertex -1.690000e+001  4.230000e+001  4.950000e+001
      vertex -2.173728e+001  3.864016e+001  4.950000e+001
    endloop
  endfacet
  facet normal  0.000000e+000  0.000000e+000 -1.000000e+000
    outer loop
      vertex -6.108916e+001  4.230000e+001  4.950000e+001
      vertex -2.173728e+001  3.864016e+001  4.950000e+001
      vertex -2.206273e+001  3.864016e+001  4.950000e+001
    endloop
  endfacet
  facet normal  -0.000000e+000  0.000000e+000 -1.000000e+000
    outer loop
      vertex -6.108916e+001  4.230000e+001  4.950000e+001
      vertex -2.206273e+001  3.864016e+001  4.950000e+001
      vertex -2.237872e+001  3.856227e+001  4.950000e+001
    endloop
  endfacet
  facet normal  -0.000000e+000  0.000000e+000 -1.000000e+000
    outer loop
      vertex -6.108916e+001  4.230000e+001  4.950000e+001
      vertex -2.237872e+001  3.856227e+001  4.950000e+001
      vertex -2.266689e+001  3.841103e+001  4.950000e+001
    endloop
  endfacet
  facet normal  -0.000000e+000  0.000000e+000 -9.999999e-001
    outer loop
      vertex -6.108916e+001  4.230000e+001  4.950000e+001
      vertex -2.266689e+001  3.841103e+001  4.950000e+001
      vertex -2.754224e+001  3.830000e+001  4.950000e+001
    endloop
  endfacet
  facet normal  0.000000e+000  0.000000e+000 -1.000000e+000
    outer loop
      vertex -6.108916e+001  4.230000e+001  4.950000e+001
      vertex -2.754224e+001  3.830000e+001  4.950000e+001
      vertex -3.786425e+001  3.830000e+001  4.950000e+001
    endloop
  endfacet
  facet normal  -0.000000e+000  0.000000e+000 -1.000000e+000
    outer loop
      vertex -6.108916e+001  4.230000e+001  4.950000e+001
      vertex -3.786425e+001  3.830000e+001  4.950000e+001
      vertex -3.812307e+001  3.826593e+001  4.950000e+001
    endloop
  endfacet
  facet normal  -0.000000e+000  0.000000e+000 -1.000000e+000
    outer loop
      vertex -6.108916e+001  4.230000e+001  4.950000e+001
      vertex -3.812307e+001  3.826593e+001  4.950000e+001
      vertex -3.836425e+001  3.816603e+001  4.950000e+001
    endloop
  endfacet
  facet normal  -0.000000e+000  0.000000e+000 -1.000000e+000
    outer loop
      vertex -6.108916e+001  4.230000e+001  4.950000e+001
      vertex -3.836425e+001  3.816603e+001  4.950000e+001
      vertex -3.857136e+001  3.800711e+001  4.950000e+001
    endloop
  endfacet
  facet normal  -0.000000e+000  0.000000e+000 -9.999999e-001
    outer loop
      vertex -6.108916e+001  4.230000e+001  4.950000e+001
      vertex -3.857136e+001  3.800711e+001  4.950000e+001
      vertex -3.873027e+001  3.780000e+001  4.950000e+001
    endloop
  endfacet
  facet normal  -0.000000e+000  0.000000e+000 -1.000000e+000
    outer loop
      vertex -6.108916e+001  4.230000e+001  4.950000e+001
      vertex -3.873027e+001  3.780000e+001  4.950000e+001
      vertex -3.883018e+001  3.755882e+001  4.950000e+001
    endloop
  endfacet
  facet normal  -0.000000e+000  0.000000e+000 -1.000000e+000
    outer loop
      vertex -6.108916e+001  4.230000e+001  4.950000e+001
      vertex -3.883018e+001  3.755882e+001  4.950000e+001
      vertex -3.886425e+001  3.730000e+001  4.950000e+001
    endloop
  endfacet
  facet normal  -0.000000e+000  -0.000000e+000 -9.999999e-001
    outer loop
      vertex -6.108916e+001  4.230000e+001  4.950000e+001
      vertex -3.886425e+001  3.730000e+001  4.950000e+001
      vertex -3.883018e+001  3.704118e+001  4.950000e+001
    endloop
  endfacet
  facet normal  -0.000000e+000  -0.000000e+000 -9.999999e-001
    outer loop
      vertex -6.108916e+001  4.230000e+001  4.950000e+001
      vertex -3.883018e+001  3.704118e+001  4.950000e+001
      vertex -3.873027e+001  3.680000e+001  4.950000e+001
    endloop
  endfacet
  facet normal  -0.000000e+000  -0.000000e+000 -1.000000e+000
    outer loop
      vertex -6.108916e+001  4.230000e+001  4.950000e+001
      vertex -3.873027e+001  3.680000e+001  4.950000e+001
      vertex -3.857136e+001  3.659289e+001  4.950000e+001
    endloop
  endfacet
  facet normal  -0.000000e+000  -0.000000e+000 -9.999999e-001
    outer loop
      vertex -6.108916e+001  4.230000e+001  4.950000e+001
      vertex -3.857136e+001  3.659289e+001  4.950000e+001
      vertex -3.836425e+001  3.643398e+001  4.950000e+001
    endloop
  endfacet
  facet normal  -0.000000e+000  -0.000000e+000 -1.000000e+000
    outer loop
      vertex -6.108916e+001  4.230000e+001  4.950000e+001
      vertex -3.836425e+001  3.643398e+001  4.950000e+001
      vertex -3.812307e+001  3.633408e+001  4.950000e+001
    endloop
  endfacet
  facet normal  0.000000e+000  0.000000e+000 -9.999999e-001
    outer loop
      vertex -4.100000e+001  2.502060e+001  4.950000e+001
      vertex -4.100000e+001  2.480000e+001  4.950000e+001
      vertex -6.914893e+001  2.480000e+001  4.950000e+001
    endloop
  endfacet
  facet normal  0.000000e+000  0.000000e+000 -1.000000e+000
    outer loop
      vertex -4.100000e+001  2.502060e+001  4.950000e+001
      vertex -6.914893e+001  2.480000e+001  4.950000e+001
      vertex -6.683115e+001  3.388593e+001  4.950000e+001
    endloop
  endfacet
  facet normal  0.000000e+000  0.000000e+000 -1.000000e+000
    outer loop
      vertex -4.100000e+001  2.502060e+001  4.950000e+001
      vertex -6.683115e+001  3.388593e+001  4.950000e+001
      vertex -3.786425e+001  3.630000e+001  4.950000e+001
    endloop
  endfacet
  facet normal  0.000000e+000  -0.000000e+000 -1.000000e+000
    outer loop
      vertex -4.100000e+001  2.502060e+001  4.950000e+001
      vertex -3.786425e+001  3.630000e+001  4.950000e+001
      vertex -2.754224e+001  3.630000e+001  4.950000e+001
    endloop
  endfacet
  facet normal  0.000000e+000  -0.000000e+000 -1.000000e+000
    outer loop
      vertex -4.100000e+001  2.502060e+001  4.950000e+001
      vertex -2.754224e+001  3.630000e+001  4.950000e+001
      vertex -2.266689e+001  3.618897e+001  4.950000e+001
    endloop
  endfacet
  facet normal  0.000000e+000  -0.000000e+000 -9.999999e-001
    outer loop
      vertex -4.100000e+001  2.502060e+001  4.950000e+001
      vertex -2.266689e+001  3.618897e+001  4.950000e+001
      vertex -2.237872e+001  3.603773e+001  4.950000e+001
    endloop
  endfacet
  facet normal  0.000000e+000  -0.000000e+000 -1.000000e+000
    outer loop
      vertex -4.100000e+001  2.502060e+001  4.950000e+001
      vertex -2.237872e+001  3.603773e+001  4.950000e+001
      vertex -2.206273e+001  3.595984e+001  4.950000e+001
    endloop
  endfacet
  facet normal  0.000000e+000  -0.000000e+000 -1.000000e+000
    outer loop
      vertex -4.100000e+001  2.502060e+001  4.950000e+001
      vertex -2.206273e+001  3.595984e+001  4.950000e+001
      vertex -2.173728e+001  3.595984e+001  4.950000e+001
    endloop
  endfacet
  facet normal  0.000000e+000  -0.000000e+000 -1.000000e+000
    outer loop
      vertex -4.100000e+001  2.502060e+001  4.950000e+001
      vertex -2.173728e+001  3.595984e+001  4.950000e+001
      vertex -2.100000e+001  3.230000e+001  4.950000e+001
    endloop
  endfacet
  facet normal  0.000000e+000  0.000000e+000 -1.000000e+000
    outer loop
      vertex -1.690000e+001  4.230000e+001  4.950000e+001
      vertex -2.070463e+001  3.667262e+001  4.950000e+001
      vertex -2.058923e+001  3.697692e+001  4.950000e+001
    endloop
  endfacet
  facet normal  0.000000e+000  0.000000e+000 -1.000000e+000
    outer loop
      vertex -1.690000e+001  4.230000e+001  4.950000e+001
      vertex -2.058923e+001  3.697692e+001  4.950000e+001
      vertex -2.055000e+001  3.730000e+001  4.950000e+001
    endloop
  endfacet
  facet normal  0.000000e+000  0.000000e+000 -9.999999e-001
    outer loop
      vertex -1.690000e+001  4.230000e+001  4.950000e+001
      vertex -2.055000e+001  3.730000e+001  4.950000e+001
      vertex -2.058923e+001  3.762308e+001  4.950000e+001
    endloop
  endfacet
  facet normal  0.000000e+000  0.000000e+000 -1.000000e+000
    outer loop
      vertex -1.690000e+001  4.230000e+001  4.950000e+001
      vertex -2.058923e+001  3.762308e+001  4.950000e+001
      vertex -2.070463e+001  3.792738e+001  4.950000e+001
    endloop
  endfacet
  facet normal  0.000000e+000  0.000000e+000 -1.000000e+000
    outer loop
      vertex -1.690000e+001  4.230000e+001  4.950000e+001
      vertex -2.070463e+001  3.792738e+001  4.950000e+001
      vertex -2.088951e+001  3.819522e+001  4.950000e+001
    endloop
  endfacet
  facet normal  0.000000e+000  0.000000e+000 -1.000000e+000
    outer loop
      vertex -1.690000e+001  4.230000e+001  4.950000e+001
      vertex -2.088951e+001  3.819522e+001  4.950000e+001
      vertex -2.113311e+001  3.841103e+001  4.950000e+001
    endloop
  endfacet
  facet normal  0.000000e+000  0.000000e+000 -1.000000e+000
    outer loop
      vertex -1.690000e+001  4.230000e+001  4.950000e+001
      vertex -2.113311e+001  3.841103e+001  4.950000e+001
      vertex -2.142128e+001  3.856227e+001  4.950000e+001
    endloop
  endfacet
  facet normal  0.000000e+000  0.000000e+000 -1.000000e+000
    outer loop
      vertex -1.690000e+001  4.230000e+001  4.950000e+001
      vertex -2.142128e+001  3.856227e+001  4.950000e+001
      vertex -2.173728e+001  3.864016e+001  4.950000e+001
    endloop
  endfacet
  facet normal  0.000000e+000  0.000000e+000 -1.000000e+000
    outer loop
      vertex -1.690000e+001  3.230000e+001  4.950000e+001
      vertex -2.100000e+001  3.230000e+001  4.950000e+001
      vertex -2.173728e+001  3.595984e+001  4.950000e+001
    endloop
  endfacet
  facet normal  0.000000e+000  0.000000e+000 -1.000000e+000
    outer loop
      vertex -1.690000e+001  3.230000e+001  4.950000e+001
      vertex -2.173728e+001  3.595984e+001  4.950000e+001
      vertex -2.142128e+001  3.603773e+001  4.950000e+001
    endloop
  endfacet
  facet normal  0.000000e+000  0.000000e+000 -1.000000e+000
    outer loop
      vertex -1.690000e+001  3.230000e+001  4.950000e+001
      vertex -2.142128e+001  3.603773e+001  4.950000e+001
      vertex -2.113311e+001  3.618897e+001  4.950000e+001
    endloop
  endfacet
  facet normal  0.000000e+000  0.000000e+000 -9.999999e-001
    outer loop
      vertex -1.690000e+001  3.230000e+001  4.950000e+001
      vertex -2.113311e+001  3.618897e+001  4.950000e+001
      vertex -2.088951e+001  3.640479e+001  4.950000e+001
    endloop
  endfacet
  facet normal  0.000000e+000  0.000000e+000 -1.000000e+000
    outer loop
      vertex -1.690000e+001  3.230000e+001  4.950000e+001
      vertex -2.088951e+001  3.640479e+001  4.950000e+001
      vertex -2.070463e+001  3.667262e+001  4.950000e+001
    endloop
  endfacet
  facet normal  0.000000e+000  0.000000e+000 -1.000000e+000
    outer loop
      vertex -1.690000e+001  3.230000e+001  4.950000e+001
      vertex -2.070463e+001  3.667262e+001  4.950000e+001
      vertex -1.690000e+001  4.230000e+001  4.950000e+001
    endloop
  endfacet
  facet normal  0.000000e+000  0.000000e+000 -1.000000e+000
    outer loop
      vertex -2.266689e+001  3.618897e+001  4.950000e+001
      vertex -2.754224e+001  3.630000e+001  4.950000e+001
      vertex -2.291049e+001  3.640479e+001  4.950000e+001
    endloop
  endfacet
  facet normal  0.000000e+000  0.000000e+000 -1.000000e+000
    outer loop
      vertex -2.291049e+001  3.640479e+001  4.950000e+001
      vertex -2.754224e+001  3.630000e+001  4.950000e+001
      vertex -2.728342e+001  3.633408e+001  4.950000e+001
    endloop
  endfacet
  facet normal  0.000000e+000  0.000000e+000 -1.000000e+000
    outer loop
      vertex -2.291049e+001  3.640479e+001  4.950000e+001
      vertex -2.728342e+001  3.633408e+001  4.950000e+001
      vertex -2.704224e+001  3.643398e+001  4.950000e+001
    endloop
  endfacet
  facet normal  0.000000e+000  0.000000e+000 -1.000000e+000
    outer loop
      vertex -2.291049e+001  3.640479e+001  4.950000e+001
      vertex -2.704224e+001  3.643398e+001  4.950000e+001
      vertex -2.309537e+001  3.667262e+001  4.950000e+001
    endloop
  endfacet
  facet normal  0.000000e+000  0.000000e+000 -1.000000e+000
    outer loop
      vertex -2.309537e+001  3.667262e+001  4.950000e+001
      vertex -2.704224e+001  3.643398e+001  4.950000e+001
      vertex -2.683513e+001  3.659289e+001  4.950000e+001
    endloop
  endfacet
  facet normal  0.000000e+000  0.000000e+000 -1.000000e+000
    outer loop
      vertex -2.309537e+001  3.667262e+001  4.950000e+001
      vertex -2.683513e+001  3.659289e+001  4.950000e+001
      vertex -2.321077e+001  3.697692e+001  4.950000e+001
    endloop
  endfacet
  facet normal  0.000000e+000  0.000000e+000 -1.000000e+000
    outer loop
      vertex -2.321077e+001  3.697692e+001  4.950000e+001
      vertex -2.683513e+001  3.659289e+001  4.950000e+001
      vertex -2.667622e+001  3.680000e+001  4.950000e+001
    endloop
  endfacet
  facet normal  0.000000e+000  0.000000e+000 -9.999999e-001
    outer loop
      vertex -2.321077e+001  3.697692e+001  4.950000e+001
      vertex -2.667622e+001  3.680000e+001  4.950000e+001
      vertex -2.657631e+001  3.704118e+001  4.950000e+001
    endloop
  endfacet
  facet normal  0.000000e+000  0.000000e+000 -1.000000e+000
    outer loop
      vertex -2.321077e+001  3.697692e+001  4.950000e+001
      vertex -2.657631e+001  3.704118e+001  4.950000e+001
      vertex -2.325000e+001  3.730000e+001  4.950000e+001
    endloop
  endfacet
  facet normal  -0.000000e+000  0.000000e+000 -9.999999e-001
    outer loop
      vertex -2.325000e+001  3.730000e+001  4.950000e+001
      vertex -2.657631e+001  3.704118e+001  4.950000e+001
      vertex -2.654224e+001  3.730000e+001  4.950000e+001
    endloop
  endfacet
  facet normal  0.000000e+000  0.000000e+000 -1.000000e+000
    outer loop
      vertex -2.325000e+001  3.730000e+001  4.950000e+001
      vertex -2.654224e+001  3.730000e+001  4.950000e+001
      vertex -2.321077e+001  3.762308e+001  4.950000e+001
    endloop
  endfacet
  facet normal  0.000000e+000  0.000000e+000 -1.000000e+000
    outer loop
      vertex -2.321077e+001  3.762308e+001  4.950000e+001
      vertex -2.654224e+001  3.730000e+001  4.950000e+001
      vertex -2.657631e+001  3.755882e+001  4.950000e+001
    endloop
  endfacet
  facet normal  0.000000e+000  0.000000e+000 -1.000000e+000
    outer loop
      vertex -2.321077e+001  3.762308e+001  4.950000e+001
      vertex -2.657631e+001  3.755882e+001  4.950000e+001
      vertex -2.309537e+001  3.792738e+001  4.950000e+001
    endloop
  endfacet
  facet normal  0.000000e+000  0.000000e+000 -1.000000e+000
    outer loop
      vertex -2.309537e+001  3.792738e+001  4.950000e+001
      vertex -2.657631e+001  3.755882e+001  4.950000e+001
      vertex -2.667622e+001  3.780000e+001  4.950000e+001
    endloop
  endfacet
  facet normal  0.000000e+000  0.000000e+000 -1.000000e+000
    outer loop
      vertex -2.309537e+001  3.792738e+001  4.950000e+001
      vertex -2.667622e+001  3.780000e+001  4.950000e+001
      vertex -2.683513e+001  3.800711e+001  4.950000e+001
    endloop
  endfacet
  facet normal  0.000000e+000  0.000000e+000 -1.000000e+000
    outer loop
      vertex -2.309537e+001  3.792738e+001  4.950000e+001
      vertex -2.683513e+001  3.800711e+001  4.950000e+001
      vertex -2.291049e+001  3.819522e+001  4.950000e+001
    endloop
  endfacet
  facet normal  0.000000e+000  0.000000e+000 -1.000000e+000
    outer loop
      vertex -2.291049e+001  3.819522e+001  4.950000e+001
      vertex -2.683513e+001  3.800711e+001  4.950000e+001
      vertex -2.704224e+001  3.816603e+001  4.950000e+001
    endloop
  endfacet
  facet normal  0.000000e+000  0.000000e+000 -1.000000e+000
    outer loop
      vertex -2.291049e+001  3.819522e+001  4.950000e+001
      vertex -2.704224e+001  3.816603e+001  4.950000e+001
      vertex -2.266689e+001  3.841103e+001  4.950000e+001
    endloop
  endfacet
  facet normal  0.000000e+000  0.000000e+000 -1.000000e+000
    outer loop
      vertex -2.266689e+001  3.841103e+001  4.950000e+001
      vertex -2.704224e+001  3.816603e+001  4.950000e+001
      vertex -2.728342e+001  3.826593e+001  4.950000e+001
    endloop
  endfacet
  facet normal  0.000000e+000  0.000000e+000 -1.000000e+000
    outer loop
      vertex -2.266689e+001  3.841103e+001  4.950000e+001
      vertex -2.728342e+001  3.826593e+001  4.950000e+001
      vertex -2.754224e+001  3.830000e+001  4.950000e+001
    endloop
  endfacet
  facet normal -9.689698e-001  2.471791e-001  0.000000e+000
    outer loop
      vertex -6.914893e+001  2.480000e+001  6.350000e+001
      vertex -6.683115e+001  3.388593e+001  6.350000e+001
      vertex -6.914893e+001  2.480000e+001  4.950000e+001
    endloop
  endfacet
  facet normal -9.689698e-001  2.471791e-001  0.000000e+000
    outer loop
      vertex -6.914893e+001  2.480000e+001  4.950000e+001
      vertex -6.683115e+001  3.388593e+001  6.350000e+001
      vertex -6.683115e+001  3.388593e+001  4.950000e+001
    endloop
  endfacet
  facet normal -8.259933e-001  5.636799e-001  0.000000e+000
    outer loop
      vertex -6.683115e+001  3.388593e+001  6.350000e+001
      vertex -6.108916e+001  4.230000e+001  6.350000e+001
      vertex -6.683115e+001  3.388593e+001  4.950000e+001
    endloop
  endfacet
  facet normal -8.259933e-001  5.636799e-001  0.000000e+000
    outer loop
      vertex -6.683115e+001  3.388593e+001  4.950000e+001
      vertex -6.108916e+001  4.230000e+001  6.350000e+001
      vertex -6.108916e+001  4.230000e+001  4.950000e+001
    endloop
  endfacet
  facet normal  0.000000e+000  0.000000e+000  1.000000e+000
    outer loop
      vertex -6.108916e+001  4.230000e+001  6.350000e+001
      vertex -6.683115e+001  3.388593e+001  6.350000e+001
      vertex -4.100000e+001  4.230000e+001  6.350000e+001
    endloop
  endfacet
  facet normal  0.000000e+000  0.000000e+000  1.000000e+000
    outer loop
      vertex -4.100000e+001  4.230000e+001  6.350000e+001
      vertex -6.683115e+001  3.388593e+001  6.350000e+001
      vertex -6.914893e+001  2.480000e+001  6.350000e+001
    endloop
  endfacet
  facet normal  0.000000e+000  0.000000e+000  1.000000e+000
    outer loop
      vertex -4.100000e+001  4.230000e+001  6.350000e+001
      vertex -6.914893e+001  2.480000e+001  6.350000e+001
      vertex -4.100000e+001  2.480000e+001  6.350000e+001
    endloop
  endfacet
  facet normal  0.000000e+000 -1.000000e+000  0.000000e+000
    outer loop
      vertex -6.914893e+001  2.480000e+001  4.950000e+001
      vertex -4.100000e+001  2.480000e+001  4.950000e+001
      vertex -6.914893e+001  2.480000e+001  6.350000e+001
    endloop
  endfacet
  facet normal  0.000000e+000 -1.000000e+000  0.000000e+000
    outer loop
      vertex -6.914893e+001  2.480000e+001  6.350000e+001
      vertex -4.100000e+001  2.480000e+001  4.950000e+001
      vertex -4.100000e+001  2.480000e+001  6.350000e+001
    endloop
  endfacet
  facet normal  1.000000e+000  0.000000e+000  0.000000e+000
    outer loop
      vertex -1.690000e+001  3.230000e+001  4.950000e+001
      vertex -1.690000e+001  4.230000e+001  4.950000e+001
      vertex -1.690000e+001  3.230000e+001  5.550000e+001
    endloop
  endfacet
  facet normal  1.000000e+000  -0.000000e+000  0.000000e+000
    outer loop
      vertex -1.690000e+001  3.230000e+001  5.550000e+001
      vertex -1.690000e+001  4.230000e+001  4.950000e+001
      vertex -1.690000e+001  4.230000e+001  5.550000e+001
    endloop
  endfacet
  facet normal -9.914446e-001  1.305282e-001  0.000000e+000
    outer loop
      vertex -2.654224e+001  3.730000e+001  5.550000e+001
      vertex -2.657631e+001  3.704118e+001  4.950000e+001
      vertex -2.657631e+001  3.704118e+001  5.550000e+001
    endloop
  endfacet
  facet normal -9.238781e-001  3.826867e-001  0.000000e+000
    outer loop
      vertex -2.657631e+001  3.704118e+001  5.550000e+001
      vertex -2.657631e+001  3.704118e+001  4.950000e+001
      vertex -2.667622e+001  3.680000e+001  4.950000e+001
    endloop
  endfacet
  facet normal -9.238781e-001  3.826867e-001  0.000000e+000
    outer loop
      vertex -2.657631e+001  3.704118e+001  5.550000e+001
      vertex -2.667622e+001  3.680000e+001  4.950000e+001
      vertex -2.667622e+001  3.680000e+001  5.550000e+001
    endloop
  endfacet
  facet normal -7.933548e-001  6.087594e-001  0.000000e+000
    outer loop
      vertex -2.667622e+001  3.680000e+001  5.550000e+001
      vertex -2.667622e+001  3.680000e+001  4.950000e+001
      vertex -2.683513e+001  3.659289e+001  4.950000e+001
    endloop
  endfacet
  facet normal -7.933548e-001  6.087594e-001  0.000000e+000
    outer loop
      vertex -2.667622e+001  3.680000e+001  5.550000e+001
      vertex -2.683513e+001  3.659289e+001  4.950000e+001
      vertex -2.683513e+001  3.659289e+001  5.550000e+001
    endloop
  endfacet
  facet normal -6.087583e-001  7.933556e-001  0.000000e+000
    outer loop
      vertex -2.683513e+001  3.659289e+001  5.550000e+001
      vertex -2.683513e+001  3.659289e+001  4.950000e+001
      vertex -2.704224e+001  3.643398e+001  4.950000e+001
    endloop
  endfacet
  facet normal -6.087583e-001  7.933556e-001  0.000000e+000
    outer loop
      vertex -2.683513e+001  3.659289e+001  5.550000e+001
      vertex -2.704224e+001  3.643398e+001  4.950000e+001
      vertex -2.704224e+001  3.643398e+001  5.550000e+001
    endloop
  endfacet
  facet normal -3.826779e-001  9.238818e-001  0.000000e+000
    outer loop
      vertex -2.704224e+001  3.643398e+001  5.550000e+001
      vertex -2.704224e+001  3.643398e+001  4.950000e+001
      vertex -2.728342e+001  3.633408e+001  4.950000e+001
    endloop
  endfacet
  facet normal -3.826779e-001  9.238818e-001  0.000000e+000
    outer loop
      vertex -2.704224e+001  3.643398e+001  5.550000e+001
      vertex -2.728342e+001  3.633408e+001  4.950000e+001
      vertex -2.728342e+001  3.633408e+001  5.550000e+001
    endloop
  endfacet
  facet normal -1.305363e-001  9.914436e-001  0.000000e+000
    outer loop
      vertex -2.728342e+001  3.633408e+001  5.550000e+001
      vertex -2.728342e+001  3.633408e+001  4.950000e+001
      vertex -2.754224e+001  3.630000e+001  4.950000e+001
    endloop
  endfacet
  facet normal -1.305363e-001  9.914436e-001  0.000000e+000
    outer loop
      vertex -2.728342e+001  3.633408e+001  5.550000e+001
      vertex -2.754224e+001  3.630000e+001  4.950000e+001
      vertex -2.754224e+001  3.630000e+001  5.550000e+001
    endloop
  endfacet
  facet normal -9.914446e-001  1.305282e-001  0.000000e+000
    outer loop
      vertex -2.657631e+001  3.704118e+001  4.950000e+001
      vertex -2.654224e+001  3.730000e+001  5.550000e+001
      vertex -2.654224e+001  3.730000e+001  4.950000e+001
    endloop
  endfacet
  facet normal -9.914446e-001 -1.305282e-001  0.000000e+000
    outer loop
      vertex -2.654224e+001  3.730000e+001  4.950000e+001
      vertex -2.654224e+001  3.730000e+001  5.550000e+001
      vertex -2.657631e+001  3.755882e+001  5.550000e+001
    endloop
  endfacet
  facet normal -9.914446e-001 -1.305282e-001  -0.000000e+000
    outer loop
      vertex -2.654224e+001  3.730000e+001  4.950000e+001
      vertex -2.657631e+001  3.755882e+001  5.550000e+001
      vertex -2.657631e+001  3.755882e+001  4.950000e+001
    endloop
  endfacet
  facet normal -9.238781e-001 -3.826867e-001  0.000000e+000
    outer loop
      vertex -2.657631e+001  3.755882e+001  4.950000e+001
      vertex -2.657631e+001  3.755882e+001  5.550000e+001
      vertex -2.667622e+001  3.780000e+001  5.550000e+001
    endloop
  endfacet
  facet normal -9.238781e-001 -3.826867e-001  -0.000000e+000
    outer loop
      vertex -2.657631e+001  3.755882e+001  4.950000e+001
      vertex -2.667622e+001  3.780000e+001  5.550000e+001
      vertex -2.667622e+001  3.780000e+001  4.950000e+001
    endloop
  endfacet
  facet normal -7.933548e-001 -6.087594e-001  0.000000e+000
    outer loop
      vertex -2.667622e+001  3.780000e+001  4.950000e+001
      vertex -2.667622e+001  3.780000e+001  5.550000e+001
      vertex -2.683513e+001  3.800711e+001  5.550000e+001
    endloop
  endfacet
  facet normal -7.933548e-001 -6.087594e-001  -0.000000e+000
    outer loop
      vertex -2.667622e+001  3.780000e+001  4.950000e+001
      vertex -2.683513e+001  3.800711e+001  5.550000e+001
      vertex -2.683513e+001  3.800711e+001  4.950000e+001
    endloop
  endfacet
  facet normal -6.087676e-001 -7.933486e-001  0.000000e+000
    outer loop
      vertex -2.683513e+001  3.800711e+001  4.950000e+001
      vertex -2.683513e+001  3.800711e+001  5.550000e+001
      vertex -2.704224e+001  3.816603e+001  5.550000e+001
    endloop
  endfacet
  facet normal -6.087676e-001 -7.933486e-001  -0.000000e+000
    outer loop
      vertex -2.683513e+001  3.800711e+001  4.950000e+001
      vertex -2.704224e+001  3.816603e+001  5.550000e+001
      vertex -2.704224e+001  3.816603e+001  4.950000e+001
    endloop
  endfacet
  facet normal -3.826779e-001 -9.238818e-001  0.000000e+000
    outer loop
      vertex -2.704224e+001  3.816603e+001  4.950000e+001
      vertex -2.704224e+001  3.816603e+001  5.550000e+001
      vertex -2.728342e+001  3.826593e+001  5.550000e+001
    endloop
  endfacet
  facet normal -3.826779e-001 -9.238818e-001  -0.000000e+000
    outer loop
      vertex -2.704224e+001  3.816603e+001  4.950000e+001
      vertex -2.728342e+001  3.826593e+001  5.550000e+001
      vertex -2.728342e+001  3.826593e+001  4.950000e+001
    endloop
  endfacet
  facet normal -1.305220e-001 -9.914454e-001  0.000000e+000
    outer loop
      vertex -2.728342e+001  3.826593e+001  4.950000e+001
      vertex -2.728342e+001  3.826593e+001  5.550000e+001
      vertex -2.754224e+001  3.830000e+001  5.550000e+001
    endloop
  endfacet
  facet normal -1.305220e-001 -9.914454e-001  -0.000000e+000
    outer loop
      vertex -2.728342e+001  3.826593e+001  4.950000e+001
      vertex -2.754224e+001  3.830000e+001  5.550000e+001
      vertex -2.754224e+001  3.830000e+001  4.950000e+001
    endloop
  endfacet
  facet normal  0.000000e+000  9.999999e-001  0.000000e+000
    outer loop
      vertex -3.786425e+001  3.630000e+001  4.950000e+001
      vertex -3.786425e+001  3.630000e+001  5.550000e+001
      vertex -2.754224e+001  3.630000e+001  4.950000e+001
    endloop
  endfacet
  facet normal  0.000000e+000  9.999999e-001  -0.000000e+000
    outer loop
      vertex -2.754224e+001  3.630000e+001  4.950000e+001
      vertex -3.786425e+001  3.630000e+001  5.550000e+001
      vertex -2.754224e+001  3.630000e+001  5.550000e+001
    endloop
  endfacet
  facet normal  9.914455e-001 -1.305210e-001  0.000000e+000
    outer loop
      vertex -3.886425e+001  3.730000e+001  5.550000e+001
      vertex -3.883018e+001  3.755882e+001  4.950000e+001
      vertex -3.883018e+001  3.755882e+001  5.550000e+001
    endloop
  endfacet
  facet normal  9.238756e-001 -3.826929e-001  0.000000e+000
    outer loop
      vertex -3.883018e+001  3.755882e+001  5.550000e+001
      vertex -3.883018e+001  3.755882e+001  4.950000e+001
      vertex -3.873027e+001  3.780000e+001  4.950000e+001
    endloop
  endfacet
  facet normal  9.238756e-001 -3.826929e-001  0.000000e+000
    outer loop
      vertex -3.883018e+001  3.755882e+001  5.550000e+001
      vertex -3.873027e+001  3.780000e+001  4.950000e+001
      vertex -3.873027e+001  3.780000e+001  5.550000e+001
    endloop
  endfacet
  facet normal  7.933584e-001 -6.087548e-001  0.000000e+000
    outer loop
      vertex -3.873027e+001  3.780000e+001  5.550000e+001
      vertex -3.873027e+001  3.780000e+001  4.950000e+001
      vertex -3.857136e+001  3.800711e+001  4.950000e+001
    endloop
  endfacet
  facet normal  7.933584e-001 -6.087548e-001  0.000000e+000
    outer loop
      vertex -3.873027e+001  3.780000e+001  5.550000e+001
      vertex -3.857136e+001  3.800711e+001  4.950000e+001
      vertex -3.857136e+001  3.800711e+001  5.550000e+001
    endloop
  endfacet
  facet normal  6.087640e-001 -7.933513e-001  0.000000e+000
    outer loop
      vertex -3.857136e+001  3.800711e+001  5.550000e+001
      vertex -3.857136e+001  3.800711e+001  4.950000e+001
      vertex -3.836425e+001  3.816603e+001  4.950000e+001
    endloop
  endfacet
  facet normal  6.087640e-001 -7.933513e-001  0.000000e+000
    outer loop
      vertex -3.857136e+001  3.800711e+001  5.550000e+001
      vertex -3.836425e+001  3.816603e+001  4.950000e+001
      vertex -3.836425e+001  3.816603e+001  5.550000e+001
    endloop
  endfacet
  facet normal  3.826804e-001 -9.238808e-001  0.000000e+000
    outer loop
      vertex -3.836425e+001  3.816603e+001  5.550000e+001
      vertex -3.836425e+001  3.816603e+001  4.950000e+001
      vertex -3.812307e+001  3.826593e+001  4.950000e+001
    endloop
  endfacet
  facet normal  3.826804e-001 -9.238808e-001  0.000000e+000
    outer loop
      vertex -3.836425e+001  3.816603e+001  5.550000e+001
      vertex -3.812307e+001  3.826593e+001  4.950000e+001
      vertex -3.812307e+001  3.826593e+001  5.550000e+001
    endloop
  endfacet
  facet normal  1.305210e-001 -9.914455e-001  0.000000e+000
    outer loop
      vertex -3.812307e+001  3.826593e+001  5.550000e+001
      vertex -3.812307e+001  3.826593e+001  4.950000e+001
      vertex -3.786425e+001  3.830000e+001  4.950000e+001
    endloop
  endfacet
  facet normal  1.305210e-001 -9.914455e-001  0.000000e+000
    outer loop
      vertex -3.812307e+001  3.826593e+001  5.550000e+001
      vertex -3.786425e+001  3.830000e+001  4.950000e+001
      vertex -3.786425e+001  3.830000e+001  5.550000e+001
    endloop
  endfacet
  facet normal  9.914455e-001 -1.305210e-001  0.000000e+000
    outer loop
      vertex -3.883018e+001  3.755882e+001  4.950000e+001
      vertex -3.886425e+001  3.730000e+001  5.550000e+001
      vertex -3.886425e+001  3.730000e+001  4.950000e+001
    endloop
  endfacet
  facet normal  9.914455e-001  1.305210e-001  -0.000000e+000
    outer loop
      vertex -3.886425e+001  3.730000e+001  4.950000e+001
      vertex -3.886425e+001  3.730000e+001  5.550000e+001
      vertex -3.883018e+001  3.704118e+001  5.550000e+001
    endloop
  endfacet
  facet normal  9.914455e-001  1.305210e-001  0.000000e+000
    outer loop
      vertex -3.886425e+001  3.730000e+001  4.950000e+001
      vertex -3.883018e+001  3.704118e+001  5.550000e+001
      vertex -3.883018e+001  3.704118e+001  4.950000e+001
    endloop
  endfacet
  facet normal  9.238756e-001  3.826929e-001  -0.000000e+000
    outer loop
      vertex -3.883018e+001  3.704118e+001  4.950000e+001
      vertex -3.883018e+001  3.704118e+001  5.550000e+001
      vertex -3.873027e+001  3.680000e+001  5.550000e+001
    endloop
  endfacet
  facet normal  9.238756e-001  3.826929e-001  0.000000e+000
    outer loop
      vertex -3.883018e+001  3.704118e+001  4.950000e+001
      vertex -3.873027e+001  3.680000e+001  5.550000e+001
      vertex -3.873027e+001  3.680000e+001  4.950000e+001
    endloop
  endfacet
  facet normal  7.933584e-001  6.087548e-001  -0.000000e+000
    outer loop
      vertex -3.873027e+001  3.680000e+001  4.950000e+001
      vertex -3.873027e+001  3.680000e+001  5.550000e+001
      vertex -3.857136e+001  3.659289e+001  5.550000e+001
    endloop
  endfacet
  facet normal  7.933584e-001  6.087548e-001  0.000000e+000
    outer loop
      vertex -3.873027e+001  3.680000e+001  4.950000e+001
      vertex -3.857136e+001  3.659289e+001  5.550000e+001
      vertex -3.857136e+001  3.659289e+001  4.950000e+001
    endloop
  endfacet
  facet normal  6.087548e-001  7.933584e-001  -0.000000e+000
    outer loop
      vertex -3.857136e+001  3.659289e+001  4.950000e+001
      vertex -3.857136e+001  3.659289e+001  5.550000e+001
      vertex -3.836425e+001  3.643398e+001  5.550000e+001
    endloop
  endfacet
  facet normal  6.087548e-001  7.933584e-001  0.000000e+000
    outer loop
      vertex -3.857136e+001  3.659289e+001  4.950000e+001
      vertex -3.836425e+001  3.643398e+001  5.550000e+001
      vertex -3.836425e+001  3.643398e+001  4.950000e+001
    endloop
  endfacet
  facet normal  3.826804e-001  9.238808e-001  -0.000000e+000
    outer loop
      vertex -3.836425e+001  3.643398e+001  4.950000e+001
      vertex -3.836425e+001  3.643398e+001  5.550000e+001
      vertex -3.812307e+001  3.633408e+001  5.550000e+001
    endloop
  endfacet
  facet normal  3.826804e-001  9.238808e-001  0.000000e+000
    outer loop
      vertex -3.836425e+001  3.643398e+001  4.950000e+001
      vertex -3.812307e+001  3.633408e+001  5.550000e+001
      vertex -3.812307e+001  3.633408e+001  4.950000e+001
    endloop
  endfacet
  facet normal  1.305354e-001  9.914436e-001  -0.000000e+000
    outer loop
      vertex -3.812307e+001  3.633408e+001  4.950000e+001
      vertex -3.812307e+001  3.633408e+001  5.550000e+001
      vertex -3.786425e+001  3.630000e+001  5.550000e+001
    endloop
  endfacet
  facet normal  1.305354e-001  9.914436e-001  0.000000e+000
    outer loop
      vertex -3.812307e+001  3.633408e+001  4.950000e+001
      vertex -3.786425e+001  3.630000e+001  5.550000e+001
      vertex -3.786425e+001  3.630000e+001  4.950000e+001
    endloop
  endfacet
  facet normal  0.000000e+000 -9.999999e-001  -0.000000e+000
    outer loop
      vertex -2.754224e+001  3.830000e+001  4.950000e+001
      vertex -2.754224e+001  3.830000e+001  5.550000e+001
      vertex -3.786425e+001  3.830000e+001  4.950000e+001
    endloop
  endfacet
  facet normal  0.000000e+000 -9.999999e-001  0.000000e+000
    outer loop
      vertex -3.786425e+001  3.830000e+001  4.950000e+001
      vertex -2.754224e+001  3.830000e+001  5.550000e+001
      vertex -3.786425e+001  3.830000e+001  5.550000e+001
    endloop
  endfacet
  facet normal  2.393144e-001  9.709421e-001  -0.000000e+000
    outer loop
      vertex -2.206273e+001  3.595984e+001  5.550000e+001
      vertex -2.237872e+001  3.603773e+001  4.950000e+001
      vertex -2.237872e+001  3.603773e+001  5.550000e+001
    endloop
  endfacet
  facet normal  4.647278e-001  8.854536e-001  0.000000e+000
    outer loop
      vertex -2.237872e+001  3.603773e+001  5.550000e+001
      vertex -2.237872e+001  3.603773e+001  4.950000e+001
      vertex -2.266689e+001  3.618897e+001  4.950000e+001
    endloop
  endfacet
  facet normal  4.647278e-001  8.854536e-001  -0.000000e+000
    outer loop
      vertex -2.237872e+001  3.603773e+001  5.550000e+001
      vertex -2.266689e+001  3.618897e+001  4.950000e+001
      vertex -2.266689e+001  3.618897e+001  5.550000e+001
    endloop
  endfacet
  facet normal  6.631218e-001  7.485116e-001  0.000000e+000
    outer loop
      vertex -2.266689e+001  3.618897e+001  5.550000e+001
      vertex -2.266689e+001  3.618897e+001  4.950000e+001
      vertex -2.291049e+001  3.640479e+001  4.950000e+001
    endloop
  endfacet
  facet normal  6.631218e-001  7.485116e-001  -0.000000e+000
    outer loop
      vertex -2.266689e+001  3.618897e+001  5.550000e+001
      vertex -2.291049e+001  3.640479e+001  4.950000e+001
      vertex -2.291049e+001  3.640479e+001  5.550000e+001
    endloop
  endfacet
  facet normal  8.229830e-001  5.680660e-001  0.000000e+000
    outer loop
      vertex -2.291049e+001  3.640479e+001  5.550000e+001
      vertex -2.291049e+001  3.640479e+001  4.950000e+001
      vertex -2.309537e+001  3.667262e+001  4.950000e+001
    endloop
  endfacet
  facet normal  8.229830e-001  5.680660e-001  -0.000000e+000
    outer loop
      vertex -2.291049e+001  3.640479e+001  5.550000e+001
      vertex -2.309537e+001  3.667262e+001  4.950000e+001
      vertex -2.309537e+001  3.667262e+001  5.550000e+001
    endloop
  endfacet
  facet normal  9.350168e-001  3.546034e-001  0.000000e+000
    outer loop
      vertex -2.309537e+001  3.667262e+001  5.550000e+001
      vertex -2.309537e+001  3.667262e+001  4.950000e+001
      vertex -2.321077e+001  3.697692e+001  4.950000e+001
    endloop
  endfacet
  facet normal  9.350168e-001  3.546034e-001  -0.000000e+000
    outer loop
      vertex -2.309537e+001  3.667262e+001  5.550000e+001
      vertex -2.321077e+001  3.697692e+001  4.950000e+001
      vertex -2.321077e+001  3.697692e+001  5.550000e+001
    endloop
  endfacet
  facet normal  9.927089e-001  1.205370e-001  0.000000e+000
    outer loop
      vertex -2.321077e+001  3.697692e+001  5.550000e+001
      vertex -2.321077e+001  3.697692e+001  4.950000e+001
      vertex -2.325000e+001  3.730000e+001  4.950000e+001
    endloop
  endfacet
  facet normal  9.927089e-001  1.205370e-001  -0.000000e+000
    outer loop
      vertex -2.321077e+001  3.697692e+001  5.550000e+001
      vertex -2.325000e+001  3.730000e+001  4.950000e+001
      vertex -2.325000e+001  3.730000e+001  5.550000e+001
    endloop
  endfacet
  facet normal  2.393144e-001  9.709421e-001  0.000000e+000
    outer loop
      vertex -2.237872e+001  3.603773e+001  4.950000e+001
      vertex -2.206273e+001  3.595984e+001  5.550000e+001
      vertex -2.206273e+001  3.595984e+001  4.950000e+001
    endloop
  endfacet
  facet normal  0.000000e+000  1.000000e+000  0.000000e+000
    outer loop
      vertex -2.206273e+001  3.595984e+001  4.950000e+001
      vertex -2.206273e+001  3.595984e+001  5.550000e+001
      vertex -2.173728e+001  3.595984e+001  5.550000e+001
    endloop
  endfacet
  facet normal  0.000000e+000  1.000000e+000  0.000000e+000
    outer loop
      vertex -2.206273e+001  3.595984e+001  4.950000e+001
      vertex -2.173728e+001  3.595984e+001  5.550000e+001
      vertex -2.173728e+001  3.595984e+001  4.950000e+001
    endloop
  endfacet
  facet normal -2.393144e-001  9.709421e-001  0.000000e+000
    outer loop
      vertex -2.173728e+001  3.595984e+001  4.950000e+001
      vertex -2.173728e+001  3.595984e+001  5.550000e+001
      vertex -2.142128e+001  3.603773e+001  5.550000e+001
    endloop
  endfacet
  facet normal -2.393144e-001  9.709421e-001  0.000000e+000
    outer loop
      vertex -2.173728e+001  3.595984e+001  4.950000e+001
      vertex -2.142128e+001  3.603773e+001  5.550000e+001
      vertex -2.142128e+001  3.603773e+001  4.950000e+001
    endloop
  endfacet
  facet normal -4.647253e-001  8.854549e-001  0.000000e+000
    outer loop
      vertex -2.142128e+001  3.603773e+001  4.950000e+001
      vertex -2.142128e+001  3.603773e+001  5.550000e+001
      vertex -2.113311e+001  3.618897e+001  5.550000e+001
    endloop
  endfacet
  facet normal -4.647253e-001  8.854549e-001  0.000000e+000
    outer loop
      vertex -2.142128e+001  3.603773e+001  4.950000e+001
      vertex -2.113311e+001  3.618897e+001  5.550000e+001
      vertex -2.113311e+001  3.618897e+001  4.950000e+001
    endloop
  endfacet
  facet normal -6.631246e-001  7.485089e-001  0.000000e+000
    outer loop
      vertex -2.113311e+001  3.618897e+001  4.950000e+001
      vertex -2.113311e+001  3.618897e+001  5.550000e+001
      vertex -2.088951e+001  3.640479e+001  5.550000e+001
    endloop
  endfacet
  facet normal -6.631246e-001  7.485089e-001  0.000000e+000
    outer loop
      vertex -2.113311e+001  3.618897e+001  4.950000e+001
      vertex -2.088951e+001  3.640479e+001  5.550000e+001
      vertex -2.088951e+001  3.640479e+001  4.950000e+001
    endloop
  endfacet
  facet normal -8.229802e-001  5.680699e-001  0.000000e+000
    outer loop
      vertex -2.088951e+001  3.640479e+001  4.950000e+001
      vertex -2.088951e+001  3.640479e+001  5.550000e+001
      vertex -2.070463e+001  3.667262e+001  5.550000e+001
    endloop
  endfacet
  facet normal -8.229802e-001  5.680699e-001  0.000000e+000
    outer loop
      vertex -2.088951e+001  3.640479e+001  4.950000e+001
      vertex -2.070463e+001  3.667262e+001  5.550000e+001
      vertex -2.070463e+001  3.667262e+001  4.950000e+001
    endloop
  endfacet
  facet normal -9.350168e-001  3.546034e-001  0.000000e+000
    outer loop
      vertex -2.070463e+001  3.667262e+001  4.950000e+001
      vertex -2.070463e+001  3.667262e+001  5.550000e+001
      vertex -2.058923e+001  3.697692e+001  5.550000e+001
    endloop
  endfacet
  facet normal -9.350168e-001  3.546034e-001  0.000000e+000
    outer loop
      vertex -2.070463e+001  3.667262e+001  4.950000e+001
      vertex -2.058923e+001  3.697692e+001  5.550000e+001
      vertex -2.058923e+001  3.697692e+001  4.950000e+001
    endloop
  endfacet
  facet normal -9.927089e-001  1.205370e-001  0.000000e+000
    outer loop
      vertex -2.058923e+001  3.697692e+001  4.950000e+001
      vertex -2.058923e+001  3.697692e+001  5.550000e+001
      vertex -2.055000e+001  3.730000e+001  5.550000e+001
    endloop
  endfacet
  facet normal -9.927089e-001  1.205370e-001  0.000000e+000
    outer loop
      vertex -2.058923e+001  3.697692e+001  4.950000e+001
      vertex -2.055000e+001  3.730000e+001  5.550000e+001
      vertex -2.055000e+001  3.730000e+001  4.950000e+001
    endloop
  endfacet
  facet normal -2.393144e-001 -9.709421e-001  0.000000e+000
    outer loop
      vertex -2.173728e+001  3.864016e+001  5.550000e+001
      vertex -2.142128e+001  3.856227e+001  4.950000e+001
      vertex -2.142128e+001  3.856227e+001  5.550000e+001
    endloop
  endfacet
  facet normal -4.647162e-001 -8.854597e-001  -0.000000e+000
    outer loop
      vertex -2.142128e+001  3.856227e+001  5.550000e+001
      vertex -2.142128e+001  3.856227e+001  4.950000e+001
      vertex -2.113311e+001  3.841103e+001  4.950000e+001
    endloop
  endfacet
  facet normal -4.647162e-001 -8.854597e-001  0.000000e+000
    outer loop
      vertex -2.142128e+001  3.856227e+001  5.550000e+001
      vertex -2.113311e+001  3.841103e+001  4.950000e+001
      vertex -2.113311e+001  3.841103e+001  5.550000e+001
    endloop
  endfacet
  facet normal -6.631246e-001 -7.485089e-001  -0.000000e+000
    outer loop
      vertex -2.113311e+001  3.841103e+001  5.550000e+001
      vertex -2.113311e+001  3.841103e+001  4.950000e+001
      vertex -2.088951e+001  3.819522e+001  4.950000e+001
    endloop
  endfacet
  facet normal -6.631246e-001 -7.485089e-001  0.000000e+000
    outer loop
      vertex -2.113311e+001  3.841103e+001  5.550000e+001
      vertex -2.088951e+001  3.819522e+001  4.950000e+001
      vertex -2.088951e+001  3.819522e+001  5.550000e+001
    endloop
  endfacet
  facet normal -8.229840e-001 -5.680645e-001  -0.000000e+000
    outer loop
      vertex -2.088951e+001  3.819522e+001  5.550000e+001
      vertex -2.088951e+001  3.819522e+001  4.950000e+001
      vertex -2.070463e+001  3.792738e+001  4.950000e+001
    endloop
  endfacet
  facet normal -8.229840e-001 -5.680645e-001  0.000000e+000
    outer loop
      vertex -2.088951e+001  3.819522e+001  5.550000e+001
      vertex -2.070463e+001  3.792738e+001  4.950000e+001
      vertex -2.070463e+001  3.792738e+001  5.550000e+001
    endloop
  endfacet
  facet normal -9.350153e-001 -3.546072e-001  -0.000000e+000
    outer loop
      vertex -2.070463e+001  3.792738e+001  5.550000e+001
      vertex -2.070463e+001  3.792738e+001  4.950000e+001
      vertex -2.058923e+001  3.762308e+001  4.950000e+001
    endloop
  endfacet
  facet normal -9.350153e-001 -3.546072e-001  0.000000e+000
    outer loop
      vertex -2.070463e+001  3.792738e+001  5.550000e+001
      vertex -2.058923e+001  3.762308e+001  4.950000e+001
      vertex -2.058923e+001  3.762308e+001  5.550000e+001
    endloop
  endfacet
  facet normal -9.927090e-001 -1.205356e-001  -0.000000e+000
    outer loop
      vertex -2.058923e+001  3.762308e+001  5.550000e+001
      vertex -2.058923e+001  3.762308e+001  4.950000e+001
      vertex -2.055000e+001  3.730000e+001  4.950000e+001
    endloop
  endfacet
  facet normal -9.927090e-001 -1.205356e-001  0.000000e+000
    outer loop
      vertex -2.058923e+001  3.762308e+001  5.550000e+001
      vertex -2.055000e+001  3.730000e+001  4.950000e+001
      vertex -2.055000e+001  3.730000e+001  5.550000e+001
    endloop
  endfacet
  facet normal -2.393144e-001 -9.709421e-001  -0.000000e+000
    outer loop
      vertex -2.142128e+001  3.856227e+001  4.950000e+001
      vertex -2.173728e+001  3.864016e+001  5.550000e+001
      vertex -2.173728e+001  3.864016e+001  4.950000e+001
    endloop
  endfacet
  facet normal  0.000000e+000 -1.000000e+000  0.000000e+000
    outer loop
      vertex -2.173728e+001  3.864016e+001  4.950000e+001
      vertex -2.173728e+001  3.864016e+001  5.550000e+001
      vertex -2.206273e+001  3.864016e+001  5.550000e+001
    endloop
  endfacet
  facet normal  0.000000e+000 -1.000000e+000  0.000000e+000
    outer loop
      vertex -2.173728e+001  3.864016e+001  4.950000e+001
      vertex -2.206273e+001  3.864016e+001  5.550000e+001
      vertex -2.206273e+001  3.864016e+001  4.950000e+001
    endloop
  endfacet
  facet normal  2.393144e-001 -9.709421e-001  0.000000e+000
    outer loop
      vertex -2.206273e+001  3.864016e+001  4.950000e+001
      vertex -2.206273e+001  3.864016e+001  5.550000e+001
      vertex -2.237872e+001  3.856227e+001  5.550000e+001
    endloop
  endfacet
  facet normal  2.393144e-001 -9.709421e-001  0.000000e+000
    outer loop
      vertex -2.206273e+001  3.864016e+001  4.950000e+001
      vertex -2.237872e+001  3.856227e+001  5.550000e+001
      vertex -2.237872e+001  3.856227e+001  4.950000e+001
    endloop
  endfacet
  facet normal  4.647186e-001 -8.854584e-001  0.000000e+000
    outer loop
      vertex -2.237872e+001  3.856227e+001  4.950000e+001
      vertex -2.237872e+001  3.856227e+001  5.550000e+001
      vertex -2.266689e+001  3.841103e+001  5.550000e+001
    endloop
  endfacet
  facet normal  4.647186e-001 -8.854584e-001  0.000000e+000
    outer loop
      vertex -2.237872e+001  3.856227e+001  4.950000e+001
      vertex -2.266689e+001  3.841103e+001  5.550000e+001
      vertex -2.266689e+001  3.841103e+001  4.950000e+001
    endloop
  endfacet
  facet normal  6.631218e-001 -7.485116e-001  0.000000e+000
    outer loop
      vertex -2.266689e+001  3.841103e+001  4.950000e+001
      vertex -2.266689e+001  3.841103e+001  5.550000e+001
      vertex -2.291049e+001  3.819522e+001  5.550000e+001
    endloop
  endfacet
  facet normal  6.631218e-001 -7.485116e-001  0.000000e+000
    outer loop
      vertex -2.266689e+001  3.841103e+001  4.950000e+001
      vertex -2.291049e+001  3.819522e+001  5.550000e+001
      vertex -2.291049e+001  3.819522e+001  4.950000e+001
    endloop
  endfacet
  facet normal  8.229868e-001 -5.680605e-001  0.000000e+000
    outer loop
      vertex -2.291049e+001  3.819522e+001  4.950000e+001
      vertex -2.291049e+001  3.819522e+001  5.550000e+001
      vertex -2.309537e+001  3.792738e+001  5.550000e+001
    endloop
  endfacet
  facet normal  8.229868e-001 -5.680605e-001  0.000000e+000
    outer loop
      vertex -2.291049e+001  3.819522e+001  4.950000e+001
      vertex -2.309537e+001  3.792738e+001  5.550000e+001
      vertex -2.309537e+001  3.792738e+001  4.950000e+001
    endloop
  endfacet
  facet normal  9.350153e-001 -3.546072e-001  0.000000e+000
    outer loop
      vertex -2.309537e+001  3.792738e+001  4.950000e+001
      vertex -2.309537e+001  3.792738e+001  5.550000e+001
      vertex -2.321077e+001  3.762308e+001  5.550000e+001
    endloop
  endfacet
  facet normal  9.350153e-001 -3.546072e-001  0.000000e+000
    outer loop
      vertex -2.309537e+001  3.792738e+001  4.950000e+001
      vertex -2.321077e+001  3.762308e+001  5.550000e+001
      vertex -2.321077e+001  3.762308e+001  4.950000e+001
    endloop
  endfacet
  facet normal  9.927090e-001 -1.205356e-001  0.000000e+000
    outer loop
      vertex -2.321077e+001  3.762308e+001  4.950000e+001
      vertex -2.321077e+001  3.762308e+001  5.550000e+001
      vertex -2.325000e+001  3.730000e+001  5.550000e+001
    endloop
  endfacet
  facet normal  9.927090e-001 -1.205356e-001  0.000000e+000
    outer loop
      vertex -2.321077e+001  3.762308e+001  4.950000e+001
      vertex -2.325000e+001  3.730000e+001  5.550000e+001
      vertex -2.325000e+001  3.730000e+001  4.950000e+001
    endloop
  endfacet
endsolid CATIA STL
