solid CATIA STL
  facet normal  0.000000e+000  -0.000000e+000  9.999999e-001
    outer loop
      vertex -2.570683e+001  3.753873e+001  4.950000e+001
      vertex -2.560594e+001  3.743783e+001  4.950000e+001
      vertex -2.436202e+001  3.773412e+001  4.950000e+001
    endloop
  endfacet
  facet normal  0.000000e+000  0.000000e+000  1.000000e+000
    outer loop
      vertex -2.570683e+001  3.753873e+001  4.950000e+001
      vertex -2.436202e+001  3.773412e+001  4.950000e+001
      vertex -2.584466e+001  3.757566e+001  4.950000e+001
    endloop
  endfacet
  facet normal  0.000000e+000  0.000000e+000  1.000000e+000
    outer loop
      vertex -4.100000e+001  3.230000e+001  4.950000e+001
      vertex -1.690000e+001  3.230000e+001  4.950000e+001
      vertex -2.190000e+001  3.480000e+001  4.950000e+001
    endloop
  endfacet
  facet normal  0.000000e+000  0.000000e+000  1.000000e+000
    outer loop
      vertex -4.100000e+001  3.230000e+001  4.950000e+001
      vertex -2.190000e+001  3.480000e+001  4.950000e+001
      vertex -2.233412e+001  3.483798e+001  4.950000e+001
    endloop
  endfacet
  facet normal  0.000000e+000  0.000000e+000  1.000000e+000
    outer loop
      vertex -4.100000e+001  3.230000e+001  4.950000e+001
      vertex -2.233412e+001  3.483798e+001  4.950000e+001
      vertex -2.275505e+001  3.495077e+001  4.950000e+001
    endloop
  endfacet
  facet normal  0.000000e+000  0.000000e+000  1.000000e+000
    outer loop
      vertex -4.100000e+001  3.230000e+001  4.950000e+001
      vertex -2.275505e+001  3.495077e+001  4.950000e+001
      vertex -2.315000e+001  3.513494e+001  4.950000e+001
    endloop
  endfacet
  facet normal  0.000000e+000  0.000000e+000  1.000000e+000
    outer loop
      vertex -4.100000e+001  3.230000e+001  4.950000e+001
      vertex -2.315000e+001  3.513494e+001  4.950000e+001
      vertex -2.350697e+001  3.538489e+001  4.950000e+001
    endloop
  endfacet
  facet normal  0.000000e+000  0.000000e+000  1.000000e+000
    outer loop
      vertex -4.100000e+001  3.230000e+001  4.950000e+001
      vertex -2.350697e+001  3.538489e+001  4.950000e+001
      vertex -2.381511e+001  3.569303e+001  4.950000e+001
    endloop
  endfacet
  facet normal  0.000000e+000  0.000000e+000  1.000000e+000
    outer loop
      vertex -4.100000e+001  3.230000e+001  4.950000e+001
      vertex -2.381511e+001  3.569303e+001  4.950000e+001
      vertex -2.406506e+001  3.605000e+001  4.950000e+001
    endloop
  endfacet
  facet normal  0.000000e+000  0.000000e+000  1.000000e+000
    outer loop
      vertex -4.100000e+001  3.230000e+001  4.950000e+001
      vertex -2.406506e+001  3.605000e+001  4.950000e+001
      vertex -2.424923e+001  3.644495e+001  4.950000e+001
    endloop
  endfacet
  facet normal  0.000000e+000  0.000000e+000  1.000000e+000
    outer loop
      vertex -4.100000e+001  3.230000e+001  4.950000e+001
      vertex -2.424923e+001  3.644495e+001  4.950000e+001
      vertex -2.436202e+001  3.686588e+001  4.950000e+001
    endloop
  endfacet
  facet normal  0.000000e+000  0.000000e+000  1.000000e+000
    outer loop
      vertex -4.100000e+001  3.230000e+001  4.950000e+001
      vertex -2.436202e+001  3.686588e+001  4.950000e+001
      vertex -2.584466e+001  3.702434e+001  4.950000e+001
    endloop
  endfacet
  facet normal  0.000000e+000  0.000000e+000  1.000000e+000
    outer loop
      vertex -4.100000e+001  3.230000e+001  4.950000e+001
      vertex -2.584466e+001  3.702434e+001  4.950000e+001
      vertex -3.645096e+001  3.702434e+001  4.950000e+001
    endloop
  endfacet
  facet normal  0.000000e+000  0.000000e+000  9.999999e-001
    outer loop
      vertex -4.100000e+001  3.230000e+001  4.950000e+001
      vertex -3.645096e+001  3.702434e+001  4.950000e+001
      vertex -3.658879e+001  3.706127e+001  4.950000e+001
    endloop
  endfacet
  facet normal  0.000000e+000  0.000000e+000  1.000000e+000
    outer loop
      vertex -4.100000e+001  3.230000e+001  4.950000e+001
      vertex -3.658879e+001  3.706127e+001  4.950000e+001
      vertex -4.700000e+001  4.230000e+001  4.950000e+001
    endloop
  endfacet
  facet normal  0.000000e+000  0.000000e+000  1.000000e+000
    outer loop
      vertex -4.100000e+001  3.230000e+001  4.950000e+001
      vertex -4.700000e+001  4.230000e+001  4.950000e+001
      vertex -4.700000e+001  2.480000e+001  4.950000e+001
    endloop
  endfacet
  facet normal  0.000000e+000  0.000000e+000  1.000000e+000
    outer loop
      vertex -4.100000e+001  3.230000e+001  4.950000e+001
      vertex -4.700000e+001  2.480000e+001  4.950000e+001
      vertex -4.100000e+001  2.480000e+001  4.950000e+001
    endloop
  endfacet
  facet normal  0.000000e+000  0.000000e+000  1.000000e+000
    outer loop
      vertex -4.700000e+001  4.230000e+001  4.950000e+001
      vertex -3.658879e+001  3.706127e+001  4.950000e+001
      vertex -3.668969e+001  3.716217e+001  4.950000e+001
    endloop
  endfacet
  facet normal  0.000000e+000  0.000000e+000  9.999999e-001
    outer loop
      vertex -4.700000e+001  4.230000e+001  4.950000e+001
      vertex -3.668969e+001  3.716217e+001  4.950000e+001
      vertex -3.672662e+001  3.730000e+001  4.950000e+001
    endloop
  endfacet
  facet normal  0.000000e+000  -0.000000e+000  1.000000e+000
    outer loop
      vertex -4.700000e+001  4.230000e+001  4.950000e+001
      vertex -3.672662e+001  3.730000e+001  4.950000e+001
      vertex -3.668969e+001  3.743783e+001  4.950000e+001
    endloop
  endfacet
  facet normal  0.000000e+000  -0.000000e+000  9.999999e-001
    outer loop
      vertex -4.700000e+001  4.230000e+001  4.950000e+001
      vertex -3.668969e+001  3.743783e+001  4.950000e+001
      vertex -3.658879e+001  3.753873e+001  4.950000e+001
    endloop
  endfacet
  facet normal  0.000000e+000  -0.000000e+000  1.000000e+000
    outer loop
      vertex -4.700000e+001  4.230000e+001  4.950000e+001
      vertex -3.658879e+001  3.753873e+001  4.950000e+001
      vertex -3.645096e+001  3.757566e+001  4.950000e+001
    endloop
  endfacet
  facet normal  0.000000e+000  -0.000000e+000  1.000000e+000
    outer loop
      vertex -4.700000e+001  4.230000e+001  4.950000e+001
      vertex -3.645096e+001  3.757566e+001  4.950000e+001
      vertex -2.584466e+001  3.757566e+001  4.950000e+001
    endloop
  endfacet
  facet normal  0.000000e+000  -0.000000e+000  1.000000e+000
    outer loop
      vertex -4.700000e+001  4.230000e+001  4.950000e+001
      vertex -2.584466e+001  3.757566e+001  4.950000e+001
      vertex -2.436202e+001  3.773412e+001  4.950000e+001
    endloop
  endfacet
  facet normal  0.000000e+000  -0.000000e+000  1.000000e+000
    outer loop
      vertex -4.700000e+001  4.230000e+001  4.950000e+001
      vertex -2.436202e+001  3.773412e+001  4.950000e+001
      vertex -2.424923e+001  3.815505e+001  4.950000e+001
    endloop
  endfacet
  facet normal  0.000000e+000  -0.000000e+000  1.000000e+000
    outer loop
      vertex -4.700000e+001  4.230000e+001  4.950000e+001
      vertex -2.424923e+001  3.815505e+001  4.950000e+001
      vertex -2.406506e+001  3.855000e+001  4.950000e+001
    endloop
  endfacet
  facet normal  0.000000e+000  -0.000000e+000  1.000000e+000
    outer loop
      vertex -4.700000e+001  4.230000e+001  4.950000e+001
      vertex -2.406506e+001  3.855000e+001  4.950000e+001
      vertex -2.381511e+001  3.890697e+001  4.950000e+001
    endloop
  endfacet
  facet normal  0.000000e+000  -0.000000e+000  1.000000e+000
    outer loop
      vertex -4.700000e+001  4.230000e+001  4.950000e+001
      vertex -2.381511e+001  3.890697e+001  4.950000e+001
      vertex -2.350697e+001  3.921511e+001  4.950000e+001
    endloop
  endfacet
  facet normal  0.000000e+000  -0.000000e+000  1.000000e+000
    outer loop
      vertex -4.700000e+001  4.230000e+001  4.950000e+001
      vertex -2.350697e+001  3.921511e+001  4.950000e+001
      vertex -2.315000e+001  3.946507e+001  4.950000e+001
    endloop
  endfacet
  facet normal  0.000000e+000  -0.000000e+000  1.000000e+000
    outer loop
      vertex -4.700000e+001  4.230000e+001  4.950000e+001
      vertex -2.315000e+001  3.946507e+001  4.950000e+001
      vertex -2.275505e+001  3.964923e+001  4.950000e+001
    endloop
  endfacet
  facet normal  0.000000e+000  -0.000000e+000  1.000000e+000
    outer loop
      vertex -4.700000e+001  4.230000e+001  4.950000e+001
      vertex -2.275505e+001  3.964923e+001  4.950000e+001
      vertex -2.233412e+001  3.976202e+001  4.950000e+001
    endloop
  endfacet
  facet normal  0.000000e+000  -0.000000e+000  1.000000e+000
    outer loop
      vertex -4.700000e+001  4.230000e+001  4.950000e+001
      vertex -2.233412e+001  3.976202e+001  4.950000e+001
      vertex -2.190000e+001  3.980000e+001  4.950000e+001
    endloop
  endfacet
  facet normal  0.000000e+000  -0.000000e+000  1.000000e+000
    outer loop
      vertex -4.700000e+001  4.230000e+001  4.950000e+001
      vertex -2.190000e+001  3.980000e+001  4.950000e+001
      vertex -1.690000e+001  4.230000e+001  4.950000e+001
    endloop
  endfacet
  facet normal  0.000000e+000  0.000000e+000  1.000000e+000
    outer loop
      vertex -2.440000e+001  3.730000e+001  4.950000e+001
      vertex -2.436202e+001  3.773412e+001  4.950000e+001
      vertex -2.560594e+001  3.743783e+001  4.950000e+001
    endloop
  endfacet
  facet normal  0.000000e+000  0.000000e+000  1.000000e+000
    outer loop
      vertex -2.440000e+001  3.730000e+001  4.950000e+001
      vertex -2.560594e+001  3.743783e+001  4.950000e+001
      vertex -2.556900e+001  3.730000e+001  4.950000e+001
    endloop
  endfacet
  facet normal  -0.000000e+000  0.000000e+000  1.000000e+000
    outer loop
      vertex -2.440000e+001  3.730000e+001  4.950000e+001
      vertex -2.556900e+001  3.730000e+001  4.950000e+001
      vertex -2.560594e+001  3.716217e+001  4.950000e+001
    endloop
  endfacet
  facet normal  -0.000000e+000  0.000000e+000  1.000000e+000
    outer loop
      vertex -2.440000e+001  3.730000e+001  4.950000e+001
      vertex -2.560594e+001  3.716217e+001  4.950000e+001
      vertex -2.570683e+001  3.706127e+001  4.950000e+001
    endloop
  endfacet
  facet normal  -0.000000e+000  0.000000e+000  1.000000e+000
    outer loop
      vertex -2.440000e+001  3.730000e+001  4.950000e+001
      vertex -2.570683e+001  3.706127e+001  4.950000e+001
      vertex -2.584466e+001  3.702434e+001  4.950000e+001
    endloop
  endfacet
  facet normal  -0.000000e+000  0.000000e+000  1.000000e+000
    outer loop
      vertex -2.440000e+001  3.730000e+001  4.950000e+001
      vertex -2.584466e+001  3.702434e+001  4.950000e+001
      vertex -2.436202e+001  3.686588e+001  4.950000e+001
    endloop
  endfacet
  facet normal  -0.000000e+000  0.000000e+000  1.000000e+000
    outer loop
      vertex -1.690000e+001  4.230000e+001  4.950000e+001
      vertex -2.190000e+001  3.980000e+001  4.950000e+001
      vertex -2.146588e+001  3.976202e+001  4.950000e+001
    endloop
  endfacet
  facet normal  -0.000000e+000  0.000000e+000  1.000000e+000
    outer loop
      vertex -1.690000e+001  4.230000e+001  4.950000e+001
      vertex -2.146588e+001  3.976202e+001  4.950000e+001
      vertex -2.104495e+001  3.964923e+001  4.950000e+001
    endloop
  endfacet
  facet normal  -0.000000e+000  0.000000e+000  1.000000e+000
    outer loop
      vertex -1.690000e+001  4.230000e+001  4.950000e+001
      vertex -2.104495e+001  3.964923e+001  4.950000e+001
      vertex -2.065000e+001  3.946507e+001  4.950000e+001
    endloop
  endfacet
  facet normal  -0.000000e+000  0.000000e+000  9.999999e-001
    outer loop
      vertex -1.690000e+001  4.230000e+001  4.950000e+001
      vertex -2.065000e+001  3.946507e+001  4.950000e+001
      vertex -2.029303e+001  3.921511e+001  4.950000e+001
    endloop
  endfacet
  facet normal  -0.000000e+000  0.000000e+000  1.000000e+000
    outer loop
      vertex -1.690000e+001  4.230000e+001  4.950000e+001
      vertex -2.029303e+001  3.921511e+001  4.950000e+001
      vertex -1.998489e+001  3.890697e+001  4.950000e+001
    endloop
  endfacet
  facet normal  -0.000000e+000  0.000000e+000  9.999999e-001
    outer loop
      vertex -1.690000e+001  4.230000e+001  4.950000e+001
      vertex -1.998489e+001  3.890697e+001  4.950000e+001
      vertex -1.973494e+001  3.855000e+001  4.950000e+001
    endloop
  endfacet
  facet normal  -0.000000e+000  0.000000e+000  1.000000e+000
    outer loop
      vertex -1.690000e+001  4.230000e+001  4.950000e+001
      vertex -1.973494e+001  3.855000e+001  4.950000e+001
      vertex -1.955077e+001  3.815505e+001  4.950000e+001
    endloop
  endfacet
  facet normal  -0.000000e+000  0.000000e+000  1.000000e+000
    outer loop
      vertex -1.690000e+001  4.230000e+001  4.950000e+001
      vertex -1.955077e+001  3.815505e+001  4.950000e+001
      vertex -1.943798e+001  3.773412e+001  4.950000e+001
    endloop
  endfacet
  facet normal  -0.000000e+000  0.000000e+000  1.000000e+000
    outer loop
      vertex -1.690000e+001  4.230000e+001  4.950000e+001
      vertex -1.943798e+001  3.773412e+001  4.950000e+001
      vertex -1.940000e+001  3.730000e+001  4.950000e+001
    endloop
  endfacet
  facet normal  -0.000000e+000  0.000000e+000  1.000000e+000
    outer loop
      vertex -1.690000e+001  4.230000e+001  4.950000e+001
      vertex -1.940000e+001  3.730000e+001  4.950000e+001
      vertex -1.943798e+001  3.686588e+001  4.950000e+001
    endloop
  endfacet
  facet normal  -0.000000e+000  0.000000e+000  1.000000e+000
    outer loop
      vertex -1.690000e+001  4.230000e+001  4.950000e+001
      vertex -1.943798e+001  3.686588e+001  4.950000e+001
      vertex -1.955077e+001  3.644495e+001  4.950000e+001
    endloop
  endfacet
  facet normal  0.000000e+000  0.000000e+000  1.000000e+000
    outer loop
      vertex -1.690000e+001  3.230000e+001  4.950000e+001
      vertex -1.690000e+001  4.230000e+001  4.950000e+001
      vertex -1.955077e+001  3.644495e+001  4.950000e+001
    endloop
  endfacet
  facet normal  0.000000e+000  0.000000e+000  9.999999e-001
    outer loop
      vertex -1.690000e+001  3.230000e+001  4.950000e+001
      vertex -1.955077e+001  3.644495e+001  4.950000e+001
      vertex -1.973494e+001  3.605000e+001  4.950000e+001
    endloop
  endfacet
  facet normal  0.000000e+000  0.000000e+000  9.999999e-001
    outer loop
      vertex -1.690000e+001  3.230000e+001  4.950000e+001
      vertex -1.973494e+001  3.605000e+001  4.950000e+001
      vertex -1.998489e+001  3.569303e+001  4.950000e+001
    endloop
  endfacet
  facet normal  0.000000e+000  0.000000e+000  1.000000e+000
    outer loop
      vertex -1.690000e+001  3.230000e+001  4.950000e+001
      vertex -1.998489e+001  3.569303e+001  4.950000e+001
      vertex -2.029303e+001  3.538489e+001  4.950000e+001
    endloop
  endfacet
  facet normal  0.000000e+000  0.000000e+000  1.000000e+000
    outer loop
      vertex -1.690000e+001  3.230000e+001  4.950000e+001
      vertex -2.029303e+001  3.538489e+001  4.950000e+001
      vertex -2.065000e+001  3.513494e+001  4.950000e+001
    endloop
  endfacet
  facet normal  0.000000e+000  0.000000e+000  1.000000e+000
    outer loop
      vertex -1.690000e+001  3.230000e+001  4.950000e+001
      vertex -2.065000e+001  3.513494e+001  4.950000e+001
      vertex -2.104495e+001  3.495077e+001  4.950000e+001
    endloop
  endfacet
  facet normal  0.000000e+000  0.000000e+000  1.000000e+000
    outer loop
      vertex -1.690000e+001  3.230000e+001  4.950000e+001
      vertex -2.104495e+001  3.495077e+001  4.950000e+001
      vertex -2.146588e+001  3.483798e+001  4.950000e+001
    endloop
  endfacet
  facet normal  0.000000e+000  0.000000e+000  1.000000e+000
    outer loop
      vertex -1.690000e+001  3.230000e+001  4.950000e+001
      vertex -2.146588e+001  3.483798e+001  4.950000e+001
      vertex -2.190000e+001  3.480000e+001  4.950000e+001
    endloop
  endfacet
  facet normal  -0.000000e+000  0.000000e+000 -1.000000e+000
    outer loop
      vertex -4.700000e+001  4.230000e+001  3.550000e+001
      vertex -4.100000e+001  4.230000e+001  3.550000e+001
      vertex -4.700000e+001  2.480000e+001  3.550000e+001
    endloop
  endfacet
  facet normal  0.000000e+000  0.000000e+000 -1.000000e+000
    outer loop
      vertex -4.700000e+001  2.480000e+001  3.550000e+001
      vertex -4.100000e+001  4.230000e+001  3.550000e+001
      vertex -4.100000e+001  2.480000e+001  3.550000e+001
    endloop
  endfacet
  facet normal  0.000000e+000 -1.000000e+000  0.000000e+000
    outer loop
      vertex -4.700000e+001  2.480000e+001  3.550000e+001
      vertex -4.100000e+001  2.480000e+001  3.550000e+001
      vertex -4.700000e+001  2.480000e+001  4.950000e+001
    endloop
  endfacet
  facet normal  0.000000e+000 -1.000000e+000  0.000000e+000
    outer loop
      vertex -4.700000e+001  2.480000e+001  4.950000e+001
      vertex -4.100000e+001  2.480000e+001  3.550000e+001
      vertex -4.100000e+001  2.480000e+001  4.950000e+001
    endloop
  endfacet
  facet normal  1.000000e+000  -0.000000e+000  0.000000e+000
    outer loop
      vertex -4.100000e+001  3.230000e+001  4.950000e+001
      vertex -4.100000e+001  2.480000e+001  4.950000e+001
      vertex -4.100000e+001  3.230000e+001  4.350000e+001
    endloop
  endfacet
  facet normal  1.000000e+000  0.000000e+000  0.000000e+000
    outer loop
      vertex -4.100000e+001  3.230000e+001  4.350000e+001
      vertex -4.100000e+001  2.480000e+001  4.950000e+001
      vertex -4.100000e+001  2.480000e+001  3.550000e+001
    endloop
  endfacet
  facet normal  1.000000e+000  0.000000e+000  0.000000e+000
    outer loop
      vertex -4.100000e+001  3.230000e+001  4.350000e+001
      vertex -4.100000e+001  2.480000e+001  3.550000e+001
      vertex -4.100000e+001  4.230000e+001  4.350000e+001
    endloop
  endfacet
  facet normal  1.000000e+000  0.000000e+000  0.000000e+000
    outer loop
      vertex -4.100000e+001  4.230000e+001  4.350000e+001
      vertex -4.100000e+001  2.480000e+001  3.550000e+001
      vertex -4.100000e+001  4.230000e+001  3.550000e+001
    endloop
  endfacet
  facet normal  0.000000e+000  1.000000e+000  -0.000000e+000
    outer loop
      vertex -1.690000e+001  4.230000e+001  4.950000e+001
      vertex -1.690000e+001  4.230000e+001  4.350000e+001
      vertex -4.700000e+001  4.230000e+001  4.950000e+001
    endloop
  endfacet
  facet normal  0.000000e+000  1.000000e+000  0.000000e+000
    outer loop
      vertex -4.700000e+001  4.230000e+001  4.950000e+001
      vertex -1.690000e+001  4.230000e+001  4.350000e+001
      vertex -4.100000e+001  4.230000e+001  4.350000e+001
    endloop
  endfacet
  facet normal  0.000000e+000  1.000000e+000  0.000000e+000
    outer loop
      vertex -4.700000e+001  4.230000e+001  4.950000e+001
      vertex -4.100000e+001  4.230000e+001  4.350000e+001
      vertex -4.700000e+001  4.230000e+001  3.550000e+001
    endloop
  endfacet
  facet normal  0.000000e+000  1.000000e+000  0.000000e+000
    outer loop
      vertex -4.700000e+001  4.230000e+001  3.550000e+001
      vertex -4.100000e+001  4.230000e+001  4.350000e+001
      vertex -4.100000e+001  4.230000e+001  3.550000e+001
    endloop
  endfacet
  facet normal -9.999999e-001  0.000000e+000  0.000000e+000
    outer loop
      vertex -4.700000e+001  4.230000e+001  3.550000e+001
      vertex -4.700000e+001  2.480000e+001  3.550000e+001
      vertex -4.700000e+001  4.230000e+001  4.950000e+001
    endloop
  endfacet
  facet normal -9.999999e-001  -0.000000e+000  0.000000e+000
    outer loop
      vertex -4.700000e+001  4.230000e+001  4.950000e+001
      vertex -4.700000e+001  2.480000e+001  3.550000e+001
      vertex -4.700000e+001  2.480000e+001  4.950000e+001
    endloop
  endfacet
  facet normal  0.000000e+000  0.000000e+000 -9.999999e-001
    outer loop
      vertex -2.436202e+001  3.773412e+001  4.350000e+001
      vertex -2.560594e+001  3.743783e+001  4.350000e+001
      vertex -2.570683e+001  3.753873e+001  4.350000e+001
    endloop
  endfacet
  facet normal  0.000000e+000  0.000000e+000 -1.000000e+000
    outer loop
      vertex -2.584466e+001  3.757566e+001  4.350000e+001
      vertex -2.436202e+001  3.773412e+001  4.350000e+001
      vertex -2.570683e+001  3.753873e+001  4.350000e+001
    endloop
  endfacet
  facet normal  0.000000e+000  0.000000e+000 -1.000000e+000
    outer loop
      vertex -4.100000e+001  3.230000e+001  4.350000e+001
      vertex -4.100000e+001  4.230000e+001  4.350000e+001
      vertex -3.668969e+001  3.716217e+001  4.350000e+001
    endloop
  endfacet
  facet normal  0.000000e+000  -0.000000e+000 -1.000000e+000
    outer loop
      vertex -4.100000e+001  3.230000e+001  4.350000e+001
      vertex -3.668969e+001  3.716217e+001  4.350000e+001
      vertex -3.658879e+001  3.706127e+001  4.350000e+001
    endloop
  endfacet
  facet normal  0.000000e+000  -0.000000e+000 -9.999999e-001
    outer loop
      vertex -4.100000e+001  3.230000e+001  4.350000e+001
      vertex -3.658879e+001  3.706127e+001  4.350000e+001
      vertex -3.645096e+001  3.702434e+001  4.350000e+001
    endloop
  endfacet
  facet normal  0.000000e+000  -0.000000e+000 -1.000000e+000
    outer loop
      vertex -4.100000e+001  3.230000e+001  4.350000e+001
      vertex -3.645096e+001  3.702434e+001  4.350000e+001
      vertex -2.584466e+001  3.702434e+001  4.350000e+001
    endloop
  endfacet
  facet normal  0.000000e+000  -0.000000e+000 -1.000000e+000
    outer loop
      vertex -4.100000e+001  3.230000e+001  4.350000e+001
      vertex -2.584466e+001  3.702434e+001  4.350000e+001
      vertex -2.436202e+001  3.686588e+001  4.350000e+001
    endloop
  endfacet
  facet normal  0.000000e+000  -0.000000e+000 -1.000000e+000
    outer loop
      vertex -4.100000e+001  3.230000e+001  4.350000e+001
      vertex -2.436202e+001  3.686588e+001  4.350000e+001
      vertex -2.424923e+001  3.644495e+001  4.350000e+001
    endloop
  endfacet
  facet normal  0.000000e+000  -0.000000e+000 -1.000000e+000
    outer loop
      vertex -4.100000e+001  3.230000e+001  4.350000e+001
      vertex -2.424923e+001  3.644495e+001  4.350000e+001
      vertex -2.406506e+001  3.605000e+001  4.350000e+001
    endloop
  endfacet
  facet normal  0.000000e+000  -0.000000e+000 -1.000000e+000
    outer loop
      vertex -4.100000e+001  3.230000e+001  4.350000e+001
      vertex -2.406506e+001  3.605000e+001  4.350000e+001
      vertex -2.381511e+001  3.569303e+001  4.350000e+001
    endloop
  endfacet
  facet normal  0.000000e+000  -0.000000e+000 -1.000000e+000
    outer loop
      vertex -4.100000e+001  3.230000e+001  4.350000e+001
      vertex -2.381511e+001  3.569303e+001  4.350000e+001
      vertex -2.350697e+001  3.538489e+001  4.350000e+001
    endloop
  endfacet
  facet normal  0.000000e+000  -0.000000e+000 -1.000000e+000
    outer loop
      vertex -4.100000e+001  3.230000e+001  4.350000e+001
      vertex -2.350697e+001  3.538489e+001  4.350000e+001
      vertex -2.315000e+001  3.513494e+001  4.350000e+001
    endloop
  endfacet
  facet normal  0.000000e+000  -0.000000e+000 -1.000000e+000
    outer loop
      vertex -4.100000e+001  3.230000e+001  4.350000e+001
      vertex -2.315000e+001  3.513494e+001  4.350000e+001
      vertex -2.275505e+001  3.495077e+001  4.350000e+001
    endloop
  endfacet
  facet normal  0.000000e+000  -0.000000e+000 -1.000000e+000
    outer loop
      vertex -4.100000e+001  3.230000e+001  4.350000e+001
      vertex -2.275505e+001  3.495077e+001  4.350000e+001
      vertex -2.233412e+001  3.483798e+001  4.350000e+001
    endloop
  endfacet
  facet normal  0.000000e+000  -0.000000e+000 -1.000000e+000
    outer loop
      vertex -4.100000e+001  3.230000e+001  4.350000e+001
      vertex -2.233412e+001  3.483798e+001  4.350000e+001
      vertex -2.190000e+001  3.480000e+001  4.350000e+001
    endloop
  endfacet
  facet normal  0.000000e+000  -0.000000e+000 -1.000000e+000
    outer loop
      vertex -4.100000e+001  3.230000e+001  4.350000e+001
      vertex -2.190000e+001  3.480000e+001  4.350000e+001
      vertex -1.690000e+001  3.230000e+001  4.350000e+001
    endloop
  endfacet
  facet normal  -0.000000e+000  0.000000e+000 -1.000000e+000
    outer loop
      vertex -4.100000e+001  4.230000e+001  4.350000e+001
      vertex -1.690000e+001  4.230000e+001  4.350000e+001
      vertex -2.190000e+001  3.980000e+001  4.350000e+001
    endloop
  endfacet
  facet normal  -0.000000e+000  0.000000e+000 -1.000000e+000
    outer loop
      vertex -4.100000e+001  4.230000e+001  4.350000e+001
      vertex -2.190000e+001  3.980000e+001  4.350000e+001
      vertex -2.233412e+001  3.976202e+001  4.350000e+001
    endloop
  endfacet
  facet normal  -0.000000e+000  0.000000e+000 -1.000000e+000
    outer loop
      vertex -4.100000e+001  4.230000e+001  4.350000e+001
      vertex -2.233412e+001  3.976202e+001  4.350000e+001
      vertex -2.275505e+001  3.964923e+001  4.350000e+001
    endloop
  endfacet
  facet normal  -0.000000e+000  0.000000e+000 -1.000000e+000
    outer loop
      vertex -4.100000e+001  4.230000e+001  4.350000e+001
      vertex -2.275505e+001  3.964923e+001  4.350000e+001
      vertex -2.315000e+001  3.946507e+001  4.350000e+001
    endloop
  endfacet
  facet normal  -0.000000e+000  0.000000e+000 -1.000000e+000
    outer loop
      vertex -4.100000e+001  4.230000e+001  4.350000e+001
      vertex -2.315000e+001  3.946507e+001  4.350000e+001
      vertex -2.350697e+001  3.921511e+001  4.350000e+001
    endloop
  endfacet
  facet normal  -0.000000e+000  0.000000e+000 -1.000000e+000
    outer loop
      vertex -4.100000e+001  4.230000e+001  4.350000e+001
      vertex -2.350697e+001  3.921511e+001  4.350000e+001
      vertex -2.381511e+001  3.890697e+001  4.350000e+001
    endloop
  endfacet
  facet normal  -0.000000e+000  0.000000e+000 -1.000000e+000
    outer loop
      vertex -4.100000e+001  4.230000e+001  4.350000e+001
      vertex -2.381511e+001  3.890697e+001  4.350000e+001
      vertex -2.406506e+001  3.855000e+001  4.350000e+001
    endloop
  endfacet
  facet normal  -0.000000e+000  0.000000e+000 -1.000000e+000
    outer loop
      vertex -4.100000e+001  4.230000e+001  4.350000e+001
      vertex -2.406506e+001  3.855000e+001  4.350000e+001
      vertex -2.424923e+001  3.815505e+001  4.350000e+001
    endloop
  endfacet
  facet normal  -0.000000e+000  0.000000e+000 -9.999999e-001
    outer loop
      vertex -4.100000e+001  4.230000e+001  4.350000e+001
      vertex -2.424923e+001  3.815505e+001  4.350000e+001
      vertex -2.436202e+001  3.773412e+001  4.350000e+001
    endloop
  endfacet
  facet normal  -0.000000e+000  0.000000e+000 -1.000000e+000
    outer loop
      vertex -4.100000e+001  4.230000e+001  4.350000e+001
      vertex -2.436202e+001  3.773412e+001  4.350000e+001
      vertex -2.584466e+001  3.757566e+001  4.350000e+001
    endloop
  endfacet
  facet normal  0.000000e+000  0.000000e+000 -1.000000e+000
    outer loop
      vertex -4.100000e+001  4.230000e+001  4.350000e+001
      vertex -2.584466e+001  3.757566e+001  4.350000e+001
      vertex -3.645096e+001  3.757566e+001  4.350000e+001
    endloop
  endfacet
  facet normal  -0.000000e+000  0.000000e+000 -1.000000e+000
    outer loop
      vertex -4.100000e+001  4.230000e+001  4.350000e+001
      vertex -3.645096e+001  3.757566e+001  4.350000e+001
      vertex -3.658879e+001  3.753873e+001  4.350000e+001
    endloop
  endfacet
  facet normal  -0.000000e+000  0.000000e+000 -1.000000e+000
    outer loop
      vertex -4.100000e+001  4.230000e+001  4.350000e+001
      vertex -3.658879e+001  3.753873e+001  4.350000e+001
      vertex -3.668969e+001  3.743783e+001  4.350000e+001
    endloop
  endfacet
  facet normal  -0.000000e+000  0.000000e+000 -1.000000e+000
    outer loop
      vertex -4.100000e+001  4.230000e+001  4.350000e+001
      vertex -3.668969e+001  3.743783e+001  4.350000e+001
      vertex -3.672662e+001  3.730000e+001  4.350000e+001
    endloop
  endfacet
  facet normal  -0.000000e+000  -0.000000e+000 -1.000000e+000
    outer loop
      vertex -4.100000e+001  4.230000e+001  4.350000e+001
      vertex -3.672662e+001  3.730000e+001  4.350000e+001
      vertex -3.668969e+001  3.716217e+001  4.350000e+001
    endloop
  endfacet
  facet normal  0.000000e+000  0.000000e+000 -1.000000e+000
    outer loop
      vertex -2.440000e+001  3.730000e+001  4.350000e+001
      vertex -2.436202e+001  3.686588e+001  4.350000e+001
      vertex -2.584466e+001  3.702434e+001  4.350000e+001
    endloop
  endfacet
  facet normal  0.000000e+000  0.000000e+000 -1.000000e+000
    outer loop
      vertex -2.440000e+001  3.730000e+001  4.350000e+001
      vertex -2.584466e+001  3.702434e+001  4.350000e+001
      vertex -2.570683e+001  3.706127e+001  4.350000e+001
    endloop
  endfacet
  facet normal  0.000000e+000  0.000000e+000 -1.000000e+000
    outer loop
      vertex -2.440000e+001  3.730000e+001  4.350000e+001
      vertex -2.570683e+001  3.706127e+001  4.350000e+001
      vertex -2.560594e+001  3.716217e+001  4.350000e+001
    endloop
  endfacet
  facet normal  0.000000e+000  0.000000e+000 -1.000000e+000
    outer loop
      vertex -2.440000e+001  3.730000e+001  4.350000e+001
      vertex -2.560594e+001  3.716217e+001  4.350000e+001
      vertex -2.556900e+001  3.730000e+001  4.350000e+001
    endloop
  endfacet
  facet normal  0.000000e+000  0.000000e+000 -1.000000e+000
    outer loop
      vertex -2.440000e+001  3.730000e+001  4.350000e+001
      vertex -2.556900e+001  3.730000e+001  4.350000e+001
      vertex -2.560594e+001  3.743783e+001  4.350000e+001
    endloop
  endfacet
  facet normal  0.000000e+000  0.000000e+000 -1.000000e+000
    outer loop
      vertex -2.440000e+001  3.730000e+001  4.350000e+001
      vertex -2.560594e+001  3.743783e+001  4.350000e+001
      vertex -2.436202e+001  3.773412e+001  4.350000e+001
    endloop
  endfacet
  facet normal  0.000000e+000  0.000000e+000 -1.000000e+000
    outer loop
      vertex -1.690000e+001  4.230000e+001  4.350000e+001
      vertex -1.955077e+001  3.644495e+001  4.350000e+001
      vertex -1.943798e+001  3.686588e+001  4.350000e+001
    endloop
  endfacet
  facet normal  0.000000e+000  0.000000e+000 -1.000000e+000
    outer loop
      vertex -1.690000e+001  4.230000e+001  4.350000e+001
      vertex -1.943798e+001  3.686588e+001  4.350000e+001
      vertex -1.940000e+001  3.730000e+001  4.350000e+001
    endloop
  endfacet
  facet normal  0.000000e+000  0.000000e+000 -1.000000e+000
    outer loop
      vertex -1.690000e+001  4.230000e+001  4.350000e+001
      vertex -1.940000e+001  3.730000e+001  4.350000e+001
      vertex -1.943798e+001  3.773412e+001  4.350000e+001
    endloop
  endfacet
  facet normal  0.000000e+000  0.000000e+000 -1.000000e+000
    outer loop
      vertex -1.690000e+001  4.230000e+001  4.350000e+001
      vertex -1.943798e+001  3.773412e+001  4.350000e+001
      vertex -1.955077e+001  3.815505e+001  4.350000e+001
    endloop
  endfacet
  facet normal  0.000000e+000  0.000000e+000 -1.000000e+000
    outer loop
      vertex -1.690000e+001  4.230000e+001  4.350000e+001
      vertex -1.955077e+001  3.815505e+001  4.350000e+001
      vertex -1.973494e+001  3.855000e+001  4.350000e+001
    endloop
  endfacet
  facet normal  0.000000e+000  0.000000e+000 -9.999999e-001
    outer loop
      vertex -1.690000e+001  4.230000e+001  4.350000e+001
      vertex -1.973494e+001  3.855000e+001  4.350000e+001
      vertex -1.998489e+001  3.890697e+001  4.350000e+001
    endloop
  endfacet
  facet normal  0.000000e+000  0.000000e+000 -1.000000e+000
    outer loop
      vertex -1.690000e+001  4.230000e+001  4.350000e+001
      vertex -1.998489e+001  3.890697e+001  4.350000e+001
      vertex -2.029303e+001  3.921511e+001  4.350000e+001
    endloop
  endfacet
  facet normal  0.000000e+000  0.000000e+000 -9.999999e-001
    outer loop
      vertex -1.690000e+001  4.230000e+001  4.350000e+001
      vertex -2.029303e+001  3.921511e+001  4.350000e+001
      vertex -2.065000e+001  3.946507e+001  4.350000e+001
    endloop
  endfacet
  facet normal  0.000000e+000  0.000000e+000 -1.000000e+000
    outer loop
      vertex -1.690000e+001  4.230000e+001  4.350000e+001
      vertex -2.065000e+001  3.946507e+001  4.350000e+001
      vertex -2.104495e+001  3.964923e+001  4.350000e+001
    endloop
  endfacet
  facet normal  0.000000e+000  0.000000e+000 -1.000000e+000
    outer loop
      vertex -1.690000e+001  4.230000e+001  4.350000e+001
      vertex -2.104495e+001  3.964923e+001  4.350000e+001
      vertex -2.146588e+001  3.976202e+001  4.350000e+001
    endloop
  endfacet
  facet normal  0.000000e+000  0.000000e+000 -1.000000e+000
    outer loop
      vertex -1.690000e+001  4.230000e+001  4.350000e+001
      vertex -2.146588e+001  3.976202e+001  4.350000e+001
      vertex -2.190000e+001  3.980000e+001  4.350000e+001
    endloop
  endfacet
  facet normal  0.000000e+000  0.000000e+000 -1.000000e+000
    outer loop
      vertex -1.690000e+001  3.230000e+001  4.350000e+001
      vertex -2.190000e+001  3.480000e+001  4.350000e+001
      vertex -2.146588e+001  3.483798e+001  4.350000e+001
    endloop
  endfacet
  facet normal  0.000000e+000  0.000000e+000 -1.000000e+000
    outer loop
      vertex -1.690000e+001  3.230000e+001  4.350000e+001
      vertex -2.146588e+001  3.483798e+001  4.350000e+001
      vertex -2.104495e+001  3.495077e+001  4.350000e+001
    endloop
  endfacet
  facet normal  0.000000e+000  0.000000e+000 -1.000000e+000
    outer loop
      vertex -1.690000e+001  3.230000e+001  4.350000e+001
      vertex -2.104495e+001  3.495077e+001  4.350000e+001
      vertex -2.065000e+001  3.513494e+001  4.350000e+001
    endloop
  endfacet
  facet normal  0.000000e+000  0.000000e+000 -1.000000e+000
    outer loop
      vertex -1.690000e+001  3.230000e+001  4.350000e+001
      vertex -2.065000e+001  3.513494e+001  4.350000e+001
      vertex -2.029303e+001  3.538489e+001  4.350000e+001
    endloop
  endfacet
  facet normal  0.000000e+000  0.000000e+000 -1.000000e+000
    outer loop
      vertex -1.690000e+001  3.230000e+001  4.350000e+001
      vertex -2.029303e+001  3.538489e+001  4.350000e+001
      vertex -1.998489e+001  3.569303e+001  4.350000e+001
    endloop
  endfacet
  facet normal  0.000000e+000  0.000000e+000 -9.999999e-001
    outer loop
      vertex -1.690000e+001  3.230000e+001  4.350000e+001
      vertex -1.998489e+001  3.569303e+001  4.350000e+001
      vertex -1.973494e+001  3.605000e+001  4.350000e+001
    endloop
  endfacet
  facet normal  0.000000e+000  0.000000e+000 -9.999999e-001
    outer loop
      vertex -1.690000e+001  3.230000e+001  4.350000e+001
      vertex -1.973494e+001  3.605000e+001  4.350000e+001
      vertex -1.955077e+001  3.644495e+001  4.350000e+001
    endloop
  endfacet
  facet normal  0.000000e+000  0.000000e+000 -1.000000e+000
    outer loop
      vertex -1.690000e+001  3.230000e+001  4.350000e+001
      vertex -1.955077e+001  3.644495e+001  4.350000e+001
      vertex -1.690000e+001  4.230000e+001  4.350000e+001
    endloop
  endfacet
  facet normal  0.000000e+000 -1.000000e+000  0.000000e+000
    outer loop
      vertex -4.100000e+001  3.230000e+001  4.950000e+001
      vertex -4.100000e+001  3.230000e+001  4.350000e+001
      vertex -1.690000e+001  3.230000e+001  4.950000e+001
    endloop
  endfacet
  facet normal  0.000000e+000 -1.000000e+000  -0.000000e+000
    outer loop
      vertex -1.690000e+001  3.230000e+001  4.950000e+001
      vertex -4.100000e+001  3.230000e+001  4.350000e+001
      vertex -1.690000e+001  3.230000e+001  4.350000e+001
    endloop
  endfacet
  facet normal -9.659243e-001  2.588247e-001  0.000000e+000
    outer loop
      vertex -2.556900e+001  3.730000e+001  4.950000e+001
      vertex -2.560594e+001  3.716217e+001  4.350000e+001
      vertex -2.560594e+001  3.716217e+001  4.950000e+001
    endloop
  endfacet
  facet normal -7.071068e-001  7.071068e-001  0.000000e+000
    outer loop
      vertex -2.560594e+001  3.716217e+001  4.950000e+001
      vertex -2.560594e+001  3.716217e+001  4.350000e+001
      vertex -2.570683e+001  3.706127e+001  4.350000e+001
    endloop
  endfacet
  facet normal -7.071068e-001  7.071068e-001  0.000000e+000
    outer loop
      vertex -2.560594e+001  3.716217e+001  4.950000e+001
      vertex -2.570683e+001  3.706127e+001  4.350000e+001
      vertex -2.570683e+001  3.706127e+001  4.950000e+001
    endloop
  endfacet
  facet normal -2.588122e-001  9.659276e-001  0.000000e+000
    outer loop
      vertex -2.570683e+001  3.706127e+001  4.950000e+001
      vertex -2.570683e+001  3.706127e+001  4.350000e+001
      vertex -2.584466e+001  3.702434e+001  4.350000e+001
    endloop
  endfacet
  facet normal -2.588122e-001  9.659276e-001  0.000000e+000
    outer loop
      vertex -2.570683e+001  3.706127e+001  4.950000e+001
      vertex -2.584466e+001  3.702434e+001  4.350000e+001
      vertex -2.584466e+001  3.702434e+001  4.950000e+001
    endloop
  endfacet
  facet normal -9.659243e-001  2.588247e-001  0.000000e+000
    outer loop
      vertex -2.560594e+001  3.716217e+001  4.350000e+001
      vertex -2.556900e+001  3.730000e+001  4.950000e+001
      vertex -2.556900e+001  3.730000e+001  4.350000e+001
    endloop
  endfacet
  facet normal -9.659261e-001 -2.588181e-001  0.000000e+000
    outer loop
      vertex -2.556900e+001  3.730000e+001  4.350000e+001
      vertex -2.556900e+001  3.730000e+001  4.950000e+001
      vertex -2.560594e+001  3.743783e+001  4.950000e+001
    endloop
  endfacet
  facet normal -9.659261e-001 -2.588181e-001  -0.000000e+000
    outer loop
      vertex -2.556900e+001  3.730000e+001  4.350000e+001
      vertex -2.560594e+001  3.743783e+001  4.950000e+001
      vertex -2.560594e+001  3.743783e+001  4.350000e+001
    endloop
  endfacet
  facet normal -7.071068e-001 -7.071068e-001  0.000000e+000
    outer loop
      vertex -2.560594e+001  3.743783e+001  4.350000e+001
      vertex -2.560594e+001  3.743783e+001  4.950000e+001
      vertex -2.570683e+001  3.753873e+001  4.950000e+001
    endloop
  endfacet
  facet normal -7.071068e-001 -7.071068e-001  -0.000000e+000
    outer loop
      vertex -2.560594e+001  3.743783e+001  4.350000e+001
      vertex -2.570683e+001  3.753873e+001  4.950000e+001
      vertex -2.570683e+001  3.753873e+001  4.350000e+001
    endloop
  endfacet
  facet normal -2.588122e-001 -9.659276e-001  0.000000e+000
    outer loop
      vertex -2.570683e+001  3.753873e+001  4.350000e+001
      vertex -2.570683e+001  3.753873e+001  4.950000e+001
      vertex -2.584466e+001  3.757566e+001  4.950000e+001
    endloop
  endfacet
  facet normal -2.588122e-001 -9.659276e-001  -0.000000e+000
    outer loop
      vertex -2.570683e+001  3.753873e+001  4.350000e+001
      vertex -2.584466e+001  3.757566e+001  4.950000e+001
      vertex -2.584466e+001  3.757566e+001  4.350000e+001
    endloop
  endfacet
  facet normal  0.000000e+000  1.000000e+000  0.000000e+000
    outer loop
      vertex -3.645096e+001  3.702434e+001  4.950000e+001
      vertex -2.584466e+001  3.702434e+001  4.950000e+001
      vertex -3.645096e+001  3.702434e+001  4.350000e+001
    endloop
  endfacet
  facet normal  0.000000e+000  1.000000e+000  0.000000e+000
    outer loop
      vertex -3.645096e+001  3.702434e+001  4.350000e+001
      vertex -2.584466e+001  3.702434e+001  4.950000e+001
      vertex -2.584466e+001  3.702434e+001  4.350000e+001
    endloop
  endfacet
  facet normal  9.659228e-001 -2.588305e-001  0.000000e+000
    outer loop
      vertex -3.672662e+001  3.730000e+001  4.950000e+001
      vertex -3.668969e+001  3.743783e+001  4.350000e+001
      vertex -3.668969e+001  3.743783e+001  4.950000e+001
    endloop
  endfacet
  facet normal  7.071068e-001 -7.071068e-001  0.000000e+000
    outer loop
      vertex -3.668969e+001  3.743783e+001  4.950000e+001
      vertex -3.668969e+001  3.743783e+001  4.350000e+001
      vertex -3.658879e+001  3.753873e+001  4.350000e+001
    endloop
  endfacet
  facet normal  7.071068e-001 -7.071068e-001  0.000000e+000
    outer loop
      vertex -3.668969e+001  3.743783e+001  4.950000e+001
      vertex -3.658879e+001  3.753873e+001  4.350000e+001
      vertex -3.658879e+001  3.753873e+001  4.950000e+001
    endloop
  endfacet
  facet normal  2.588122e-001 -9.659276e-001  0.000000e+000
    outer loop
      vertex -3.658879e+001  3.753873e+001  4.950000e+001
      vertex -3.658879e+001  3.753873e+001  4.350000e+001
      vertex -3.645096e+001  3.757566e+001  4.350000e+001
    endloop
  endfacet
  facet normal  2.588122e-001 -9.659276e-001  0.000000e+000
    outer loop
      vertex -3.658879e+001  3.753873e+001  4.950000e+001
      vertex -3.645096e+001  3.757566e+001  4.350000e+001
      vertex -3.645096e+001  3.757566e+001  4.950000e+001
    endloop
  endfacet
  facet normal  9.659228e-001 -2.588305e-001  0.000000e+000
    outer loop
      vertex -3.668969e+001  3.743783e+001  4.350000e+001
      vertex -3.672662e+001  3.730000e+001  4.950000e+001
      vertex -3.672662e+001  3.730000e+001  4.350000e+001
    endloop
  endfacet
  facet normal  9.659210e-001  2.588372e-001  -0.000000e+000
    outer loop
      vertex -3.672662e+001  3.730000e+001  4.350000e+001
      vertex -3.672662e+001  3.730000e+001  4.950000e+001
      vertex -3.668969e+001  3.716217e+001  4.950000e+001
    endloop
  endfacet
  facet normal  9.659210e-001  2.588372e-001  0.000000e+000
    outer loop
      vertex -3.672662e+001  3.730000e+001  4.350000e+001
      vertex -3.668969e+001  3.716217e+001  4.950000e+001
      vertex -3.668969e+001  3.716217e+001  4.350000e+001
    endloop
  endfacet
  facet normal  7.071068e-001  7.071068e-001  -0.000000e+000
    outer loop
      vertex -3.668969e+001  3.716217e+001  4.350000e+001
      vertex -3.668969e+001  3.716217e+001  4.950000e+001
      vertex -3.658879e+001  3.706127e+001  4.950000e+001
    endloop
  endfacet
  facet normal  7.071068e-001  7.071068e-001  0.000000e+000
    outer loop
      vertex -3.668969e+001  3.716217e+001  4.350000e+001
      vertex -3.658879e+001  3.706127e+001  4.950000e+001
      vertex -3.658879e+001  3.706127e+001  4.350000e+001
    endloop
  endfacet
  facet normal  2.588122e-001  9.659276e-001  -0.000000e+000
    outer loop
      vertex -3.658879e+001  3.706127e+001  4.350000e+001
      vertex -3.658879e+001  3.706127e+001  4.950000e+001
      vertex -3.645096e+001  3.702434e+001  4.950000e+001
    endloop
  endfacet
  facet normal  2.588122e-001  9.659276e-001  0.000000e+000
    outer loop
      vertex -3.658879e+001  3.706127e+001  4.350000e+001
      vertex -3.645096e+001  3.702434e+001  4.950000e+001
      vertex -3.645096e+001  3.702434e+001  4.350000e+001
    endloop
  endfacet
  facet normal  0.000000e+000 -1.000000e+000  0.000000e+000
    outer loop
      vertex -2.584466e+001  3.757566e+001  4.950000e+001
      vertex -3.645096e+001  3.757566e+001  4.950000e+001
      vertex -2.584466e+001  3.757566e+001  4.350000e+001
    endloop
  endfacet
  facet normal  0.000000e+000 -1.000000e+000  0.000000e+000
    outer loop
      vertex -2.584466e+001  3.757566e+001  4.350000e+001
      vertex -3.645096e+001  3.757566e+001  4.950000e+001
      vertex -3.645096e+001  3.757566e+001  4.350000e+001
    endloop
  endfacet
  facet normal  8.716109e-002  9.961942e-001  -0.000000e+000
    outer loop
      vertex -2.190000e+001  3.480000e+001  4.950000e+001
      vertex -2.233412e+001  3.483798e+001  4.350000e+001
      vertex -2.233412e+001  3.483798e+001  4.950000e+001
    endloop
  endfacet
  facet normal  2.588132e-001  9.659274e-001  0.000000e+000
    outer loop
      vertex -2.233412e+001  3.483798e+001  4.950000e+001
      vertex -2.233412e+001  3.483798e+001  4.350000e+001
      vertex -2.275505e+001  3.495077e+001  4.350000e+001
    endloop
  endfacet
  facet normal  2.588132e-001  9.659274e-001  -0.000000e+000
    outer loop
      vertex -2.233412e+001  3.483798e+001  4.950000e+001
      vertex -2.275505e+001  3.495077e+001  4.350000e+001
      vertex -2.275505e+001  3.495077e+001  4.950000e+001
    endloop
  endfacet
  facet normal  4.226221e-001  9.063060e-001  0.000000e+000
    outer loop
      vertex -2.275505e+001  3.495077e+001  4.950000e+001
      vertex -2.275505e+001  3.495077e+001  4.350000e+001
      vertex -2.315000e+001  3.513494e+001  4.350000e+001
    endloop
  endfacet
  facet normal  4.226221e-001  9.063060e-001  -0.000000e+000
    outer loop
      vertex -2.275505e+001  3.495077e+001  4.950000e+001
      vertex -2.315000e+001  3.513494e+001  4.350000e+001
      vertex -2.315000e+001  3.513494e+001  4.950000e+001
    endloop
  endfacet
  facet normal  5.735725e-001  8.191549e-001  0.000000e+000
    outer loop
      vertex -2.315000e+001  3.513494e+001  4.950000e+001
      vertex -2.315000e+001  3.513494e+001  4.350000e+001
      vertex -2.350697e+001  3.538489e+001  4.350000e+001
    endloop
  endfacet
  facet normal  5.735725e-001  8.191549e-001  -0.000000e+000
    outer loop
      vertex -2.315000e+001  3.513494e+001  4.950000e+001
      vertex -2.350697e+001  3.538489e+001  4.350000e+001
      vertex -2.350697e+001  3.538489e+001  4.950000e+001
    endloop
  endfacet
  facet normal  7.071090e-001  7.071046e-001  0.000000e+000
    outer loop
      vertex -2.350697e+001  3.538489e+001  4.950000e+001
      vertex -2.350697e+001  3.538489e+001  4.350000e+001
      vertex -2.381511e+001  3.569303e+001  4.350000e+001
    endloop
  endfacet
  facet normal  7.071090e-001  7.071046e-001  -0.000000e+000
    outer loop
      vertex -2.350697e+001  3.538489e+001  4.950000e+001
      vertex -2.381511e+001  3.569303e+001  4.350000e+001
      vertex -2.381511e+001  3.569303e+001  4.950000e+001
    endloop
  endfacet
  facet normal  8.191512e-001  5.735775e-001  0.000000e+000
    outer loop
      vertex -2.381511e+001  3.569303e+001  4.950000e+001
      vertex -2.381511e+001  3.569303e+001  4.350000e+001
      vertex -2.406506e+001  3.605000e+001  4.350000e+001
    endloop
  endfacet
  facet normal  8.191512e-001  5.735775e-001  -0.000000e+000
    outer loop
      vertex -2.381511e+001  3.569303e+001  4.950000e+001
      vertex -2.406506e+001  3.605000e+001  4.350000e+001
      vertex -2.406506e+001  3.605000e+001  4.950000e+001
    endloop
  endfacet
  facet normal  9.063085e-001  4.226169e-001  0.000000e+000
    outer loop
      vertex -2.406506e+001  3.605000e+001  4.950000e+001
      vertex -2.406506e+001  3.605000e+001  4.350000e+001
      vertex -2.424923e+001  3.644495e+001  4.350000e+001
    endloop
  endfacet
  facet normal  9.063085e-001  4.226169e-001  -0.000000e+000
    outer loop
      vertex -2.406506e+001  3.605000e+001  4.950000e+001
      vertex -2.424923e+001  3.644495e+001  4.350000e+001
      vertex -2.424923e+001  3.644495e+001  4.950000e+001
    endloop
  endfacet
  facet normal  9.659261e-001  2.588184e-001  0.000000e+000
    outer loop
      vertex -2.424923e+001  3.644495e+001  4.950000e+001
      vertex -2.424923e+001  3.644495e+001  4.350000e+001
      vertex -2.436202e+001  3.686588e+001  4.350000e+001
    endloop
  endfacet
  facet normal  9.659261e-001  2.588184e-001  -0.000000e+000
    outer loop
      vertex -2.424923e+001  3.644495e+001  4.950000e+001
      vertex -2.436202e+001  3.686588e+001  4.350000e+001
      vertex -2.436202e+001  3.686588e+001  4.950000e+001
    endloop
  endfacet
  facet normal  9.961945e-001  8.715674e-002  0.000000e+000
    outer loop
      vertex -2.436202e+001  3.686588e+001  4.950000e+001
      vertex -2.436202e+001  3.686588e+001  4.350000e+001
      vertex -2.440000e+001  3.730000e+001  4.350000e+001
    endloop
  endfacet
  facet normal  9.961945e-001  8.715674e-002  -0.000000e+000
    outer loop
      vertex -2.436202e+001  3.686588e+001  4.950000e+001
      vertex -2.440000e+001  3.730000e+001  4.350000e+001
      vertex -2.440000e+001  3.730000e+001  4.950000e+001
    endloop
  endfacet
  facet normal  8.716109e-002  9.961942e-001  0.000000e+000
    outer loop
      vertex -2.233412e+001  3.483798e+001  4.350000e+001
      vertex -2.190000e+001  3.480000e+001  4.950000e+001
      vertex -2.190000e+001  3.480000e+001  4.350000e+001
    endloop
  endfacet
  facet normal -8.716109e-002  9.961942e-001  0.000000e+000
    outer loop
      vertex -2.190000e+001  3.480000e+001  4.350000e+001
      vertex -2.190000e+001  3.480000e+001  4.950000e+001
      vertex -2.146588e+001  3.483798e+001  4.950000e+001
    endloop
  endfacet
  facet normal -8.716109e-002  9.961942e-001  0.000000e+000
    outer loop
      vertex -2.190000e+001  3.480000e+001  4.350000e+001
      vertex -2.146588e+001  3.483798e+001  4.950000e+001
      vertex -2.146588e+001  3.483798e+001  4.350000e+001
    endloop
  endfacet
  facet normal -2.588142e-001  9.659271e-001  0.000000e+000
    outer loop
      vertex -2.146588e+001  3.483798e+001  4.350000e+001
      vertex -2.146588e+001  3.483798e+001  4.950000e+001
      vertex -2.104495e+001  3.495077e+001  4.950000e+001
    endloop
  endfacet
  facet normal -2.588142e-001  9.659271e-001  0.000000e+000
    outer loop
      vertex -2.146588e+001  3.483798e+001  4.350000e+001
      vertex -2.104495e+001  3.495077e+001  4.950000e+001
      vertex -2.104495e+001  3.495077e+001  4.350000e+001
    endloop
  endfacet
  facet normal -4.226204e-001  9.063068e-001  0.000000e+000
    outer loop
      vertex -2.104495e+001  3.495077e+001  4.350000e+001
      vertex -2.104495e+001  3.495077e+001  4.950000e+001
      vertex -2.065000e+001  3.513494e+001  4.950000e+001
    endloop
  endfacet
  facet normal -4.226204e-001  9.063068e-001  0.000000e+000
    outer loop
      vertex -2.104495e+001  3.495077e+001  4.350000e+001
      vertex -2.065000e+001  3.513494e+001  4.950000e+001
      vertex -2.065000e+001  3.513494e+001  4.350000e+001
    endloop
  endfacet
  facet normal -5.735745e-001  8.191534e-001  0.000000e+000
    outer loop
      vertex -2.065000e+001  3.513494e+001  4.350000e+001
      vertex -2.065000e+001  3.513494e+001  4.950000e+001
      vertex -2.029303e+001  3.538489e+001  4.950000e+001
    endloop
  endfacet
  facet normal -5.735745e-001  8.191534e-001  0.000000e+000
    outer loop
      vertex -2.065000e+001  3.513494e+001  4.350000e+001
      vertex -2.029303e+001  3.538489e+001  4.950000e+001
      vertex -2.029303e+001  3.538489e+001  4.350000e+001
    endloop
  endfacet
  facet normal -7.071068e-001  7.071068e-001  0.000000e+000
    outer loop
      vertex -2.029303e+001  3.538489e+001  4.350000e+001
      vertex -2.029303e+001  3.538489e+001  4.950000e+001
      vertex -1.998489e+001  3.569303e+001  4.950000e+001
    endloop
  endfacet
  facet normal -7.071068e-001  7.071068e-001  0.000000e+000
    outer loop
      vertex -2.029303e+001  3.538489e+001  4.350000e+001
      vertex -1.998489e+001  3.569303e+001  4.950000e+001
      vertex -1.998489e+001  3.569303e+001  4.350000e+001
    endloop
  endfacet
  facet normal -8.191512e-001  5.735775e-001  0.000000e+000
    outer loop
      vertex -1.998489e+001  3.569303e+001  4.350000e+001
      vertex -1.998489e+001  3.569303e+001  4.950000e+001
      vertex -1.973494e+001  3.605000e+001  4.950000e+001
    endloop
  endfacet
  facet normal -8.191512e-001  5.735775e-001  0.000000e+000
    outer loop
      vertex -1.998489e+001  3.569303e+001  4.350000e+001
      vertex -1.973494e+001  3.605000e+001  4.950000e+001
      vertex -1.973494e+001  3.605000e+001  4.350000e+001
    endloop
  endfacet
  facet normal -9.063085e-001  4.226169e-001  0.000000e+000
    outer loop
      vertex -1.973494e+001  3.605000e+001  4.350000e+001
      vertex -1.973494e+001  3.605000e+001  4.950000e+001
      vertex -1.955077e+001  3.644495e+001  4.950000e+001
    endloop
  endfacet
  facet normal -9.063085e-001  4.226169e-001  0.000000e+000
    outer loop
      vertex -1.973494e+001  3.605000e+001  4.350000e+001
      vertex -1.955077e+001  3.644495e+001  4.950000e+001
      vertex -1.955077e+001  3.644495e+001  4.350000e+001
    endloop
  endfacet
  facet normal -9.659261e-001  2.588184e-001  0.000000e+000
    outer loop
      vertex -1.955077e+001  3.644495e+001  4.350000e+001
      vertex -1.955077e+001  3.644495e+001  4.950000e+001
      vertex -1.943798e+001  3.686588e+001  4.950000e+001
    endloop
  endfacet
  facet normal -9.659261e-001  2.588184e-001  0.000000e+000
    outer loop
      vertex -1.955077e+001  3.644495e+001  4.350000e+001
      vertex -1.943798e+001  3.686588e+001  4.950000e+001
      vertex -1.943798e+001  3.686588e+001  4.350000e+001
    endloop
  endfacet
  facet normal -9.961945e-001  8.715674e-002  0.000000e+000
    outer loop
      vertex -1.943798e+001  3.686588e+001  4.350000e+001
      vertex -1.943798e+001  3.686588e+001  4.950000e+001
      vertex -1.940000e+001  3.730000e+001  4.950000e+001
    endloop
  endfacet
  facet normal -9.961945e-001  8.715674e-002  0.000000e+000
    outer loop
      vertex -1.943798e+001  3.686588e+001  4.350000e+001
      vertex -1.940000e+001  3.730000e+001  4.950000e+001
      vertex -1.940000e+001  3.730000e+001  4.350000e+001
    endloop
  endfacet
  facet normal -8.715240e-002 -9.961950e-001  0.000000e+000
    outer loop
      vertex -2.190000e+001  3.980000e+001  4.950000e+001
      vertex -2.146588e+001  3.976202e+001  4.350000e+001
      vertex -2.146588e+001  3.976202e+001  4.950000e+001
    endloop
  endfacet
  facet normal -2.588224e-001 -9.659249e-001  -0.000000e+000
    outer loop
      vertex -2.146588e+001  3.976202e+001  4.950000e+001
      vertex -2.146588e+001  3.976202e+001  4.350000e+001
      vertex -2.104495e+001  3.964923e+001  4.350000e+001
    endloop
  endfacet
  facet normal -2.588224e-001 -9.659249e-001  0.000000e+000
    outer loop
      vertex -2.146588e+001  3.976202e+001  4.950000e+001
      vertex -2.104495e+001  3.964923e+001  4.350000e+001
      vertex -2.104495e+001  3.964923e+001  4.950000e+001
    endloop
  endfacet
  facet normal -4.226132e-001 -9.063101e-001  -0.000000e+000
    outer loop
      vertex -2.104495e+001  3.964923e+001  4.950000e+001
      vertex -2.104495e+001  3.964923e+001  4.350000e+001
      vertex -2.065000e+001  3.946507e+001  4.350000e+001
    endloop
  endfacet
  facet normal -4.226132e-001 -9.063101e-001  0.000000e+000
    outer loop
      vertex -2.104495e+001  3.964923e+001  4.950000e+001
      vertex -2.065000e+001  3.946507e+001  4.350000e+001
      vertex -2.065000e+001  3.946507e+001  4.950000e+001
    endloop
  endfacet
  facet normal -5.735804e-001 -8.191493e-001  -0.000000e+000
    outer loop
      vertex -2.065000e+001  3.946507e+001  4.950000e+001
      vertex -2.065000e+001  3.946507e+001  4.350000e+001
      vertex -2.029303e+001  3.921511e+001  4.350000e+001
    endloop
  endfacet
  facet normal -5.735804e-001 -8.191493e-001  0.000000e+000
    outer loop
      vertex -2.065000e+001  3.946507e+001  4.950000e+001
      vertex -2.029303e+001  3.921511e+001  4.350000e+001
      vertex -2.029303e+001  3.921511e+001  4.950000e+001
    endloop
  endfacet
  facet normal -7.071068e-001 -7.071068e-001  -0.000000e+000
    outer loop
      vertex -2.029303e+001  3.921511e+001  4.950000e+001
      vertex -2.029303e+001  3.921511e+001  4.350000e+001
      vertex -1.998489e+001  3.890697e+001  4.350000e+001
    endloop
  endfacet
  facet normal -7.071068e-001 -7.071068e-001  0.000000e+000
    outer loop
      vertex -2.029303e+001  3.921511e+001  4.950000e+001
      vertex -1.998489e+001  3.890697e+001  4.350000e+001
      vertex -1.998489e+001  3.890697e+001  4.950000e+001
    endloop
  endfacet
  facet normal -8.191512e-001 -5.735775e-001  -0.000000e+000
    outer loop
      vertex -1.998489e+001  3.890697e+001  4.950000e+001
      vertex -1.998489e+001  3.890697e+001  4.350000e+001
      vertex -1.973494e+001  3.855000e+001  4.350000e+001
    endloop
  endfacet
  facet normal -8.191512e-001 -5.735775e-001  0.000000e+000
    outer loop
      vertex -1.998489e+001  3.890697e+001  4.950000e+001
      vertex -1.973494e+001  3.855000e+001  4.350000e+001
      vertex -1.973494e+001  3.855000e+001  4.950000e+001
    endloop
  endfacet
  facet normal -9.063069e-001 -4.226202e-001  -0.000000e+000
    outer loop
      vertex -1.973494e+001  3.855000e+001  4.950000e+001
      vertex -1.973494e+001  3.855000e+001  4.350000e+001
      vertex -1.955077e+001  3.815505e+001  4.350000e+001
    endloop
  endfacet
  facet normal -9.063069e-001 -4.226202e-001  0.000000e+000
    outer loop
      vertex -1.973494e+001  3.855000e+001  4.950000e+001
      vertex -1.955077e+001  3.815505e+001  4.350000e+001
      vertex -1.955077e+001  3.815505e+001  4.950000e+001
    endloop
  endfacet
  facet normal -9.659266e-001 -2.588162e-001  -0.000000e+000
    outer loop
      vertex -1.955077e+001  3.815505e+001  4.950000e+001
      vertex -1.955077e+001  3.815505e+001  4.350000e+001
      vertex -1.943798e+001  3.773412e+001  4.350000e+001
    endloop
  endfacet
  facet normal -9.659266e-001 -2.588162e-001  0.000000e+000
    outer loop
      vertex -1.955077e+001  3.815505e+001  4.950000e+001
      vertex -1.943798e+001  3.773412e+001  4.350000e+001
      vertex -1.943798e+001  3.773412e+001  4.950000e+001
    endloop
  endfacet
  facet normal -9.961945e-001 -8.715674e-002  -0.000000e+000
    outer loop
      vertex -1.943798e+001  3.773412e+001  4.950000e+001
      vertex -1.943798e+001  3.773412e+001  4.350000e+001
      vertex -1.940000e+001  3.730000e+001  4.350000e+001
    endloop
  endfacet
  facet normal -9.961945e-001 -8.715674e-002  0.000000e+000
    outer loop
      vertex -1.943798e+001  3.773412e+001  4.950000e+001
      vertex -1.940000e+001  3.730000e+001  4.350000e+001
      vertex -1.940000e+001  3.730000e+001  4.950000e+001
    endloop
  endfacet
  facet normal -8.715240e-002 -9.961950e-001  -0.000000e+000
    outer loop
      vertex -2.146588e+001  3.976202e+001  4.350000e+001
      vertex -2.190000e+001  3.980000e+001  4.950000e+001
      vertex -2.190000e+001  3.980000e+001  4.350000e+001
    endloop
  endfacet
  facet normal  8.715240e-002 -9.961950e-001  0.000000e+000
    outer loop
      vertex -2.190000e+001  3.980000e+001  4.350000e+001
      vertex -2.190000e+001  3.980000e+001  4.950000e+001
      vertex -2.233412e+001  3.976202e+001  4.950000e+001
    endloop
  endfacet
  facet normal  8.715240e-002 -9.961950e-001  0.000000e+000
    outer loop
      vertex -2.190000e+001  3.980000e+001  4.350000e+001
      vertex -2.233412e+001  3.976202e+001  4.950000e+001
      vertex -2.233412e+001  3.976202e+001  4.350000e+001
    endloop
  endfacet
  facet normal  2.588213e-001 -9.659252e-001  0.000000e+000
    outer loop
      vertex -2.233412e+001  3.976202e+001  4.350000e+001
      vertex -2.233412e+001  3.976202e+001  4.950000e+001
      vertex -2.275505e+001  3.964923e+001  4.950000e+001
    endloop
  endfacet
  facet normal  2.588213e-001 -9.659252e-001  0.000000e+000
    outer loop
      vertex -2.233412e+001  3.976202e+001  4.350000e+001
      vertex -2.275505e+001  3.964923e+001  4.950000e+001
      vertex -2.275505e+001  3.964923e+001  4.350000e+001
    endloop
  endfacet
  facet normal  4.226149e-001 -9.063093e-001  0.000000e+000
    outer loop
      vertex -2.275505e+001  3.964923e+001  4.350000e+001
      vertex -2.275505e+001  3.964923e+001  4.950000e+001
      vertex -2.315000e+001  3.946507e+001  4.950000e+001
    endloop
  endfacet
  facet normal  4.226149e-001 -9.063093e-001  0.000000e+000
    outer loop
      vertex -2.275505e+001  3.964923e+001  4.350000e+001
      vertex -2.315000e+001  3.946507e+001  4.950000e+001
      vertex -2.315000e+001  3.946507e+001  4.350000e+001
    endloop
  endfacet
  facet normal  5.735784e-001 -8.191507e-001  0.000000e+000
    outer loop
      vertex -2.315000e+001  3.946507e+001  4.350000e+001
      vertex -2.315000e+001  3.946507e+001  4.950000e+001
      vertex -2.350697e+001  3.921511e+001  4.950000e+001
    endloop
  endfacet
  facet normal  5.735784e-001 -8.191507e-001  0.000000e+000
    outer loop
      vertex -2.315000e+001  3.946507e+001  4.350000e+001
      vertex -2.350697e+001  3.921511e+001  4.950000e+001
      vertex -2.350697e+001  3.921511e+001  4.350000e+001
    endloop
  endfacet
  facet normal  7.071090e-001 -7.071046e-001  0.000000e+000
    outer loop
      vertex -2.350697e+001  3.921511e+001  4.350000e+001
      vertex -2.350697e+001  3.921511e+001  4.950000e+001
      vertex -2.381511e+001  3.890697e+001  4.950000e+001
    endloop
  endfacet
  facet normal  7.071090e-001 -7.071046e-001  0.000000e+000
    outer loop
      vertex -2.350697e+001  3.921511e+001  4.350000e+001
      vertex -2.381511e+001  3.890697e+001  4.950000e+001
      vertex -2.381511e+001  3.890697e+001  4.350000e+001
    endloop
  endfacet
  facet normal  8.191512e-001 -5.735775e-001  0.000000e+000
    outer loop
      vertex -2.381511e+001  3.890697e+001  4.350000e+001
      vertex -2.381511e+001  3.890697e+001  4.950000e+001
      vertex -2.406506e+001  3.855000e+001  4.950000e+001
    endloop
  endfacet
  facet normal  8.191512e-001 -5.735775e-001  0.000000e+000
    outer loop
      vertex -2.381511e+001  3.890697e+001  4.350000e+001
      vertex -2.406506e+001  3.855000e+001  4.950000e+001
      vertex -2.406506e+001  3.855000e+001  4.350000e+001
    endloop
  endfacet
  facet normal  9.063069e-001 -4.226202e-001  0.000000e+000
    outer loop
      vertex -2.406506e+001  3.855000e+001  4.350000e+001
      vertex -2.406506e+001  3.855000e+001  4.950000e+001
      vertex -2.424923e+001  3.815505e+001  4.950000e+001
    endloop
  endfacet
  facet normal  9.063069e-001 -4.226202e-001  0.000000e+000
    outer loop
      vertex -2.406506e+001  3.855000e+001  4.350000e+001
      vertex -2.424923e+001  3.815505e+001  4.950000e+001
      vertex -2.424923e+001  3.815505e+001  4.350000e+001
    endloop
  endfacet
  facet normal  9.659266e-001 -2.588162e-001  0.000000e+000
    outer loop
      vertex -2.424923e+001  3.815505e+001  4.350000e+001
      vertex -2.424923e+001  3.815505e+001  4.950000e+001
      vertex -2.436202e+001  3.773412e+001  4.950000e+001
    endloop
  endfacet
  facet normal  9.659266e-001 -2.588162e-001  0.000000e+000
    outer loop
      vertex -2.424923e+001  3.815505e+001  4.350000e+001
      vertex -2.436202e+001  3.773412e+001  4.950000e+001
      vertex -2.436202e+001  3.773412e+001  4.350000e+001
    endloop
  endfacet
  facet normal  9.961945e-001 -8.715674e-002  0.000000e+000
    outer loop
      vertex -2.436202e+001  3.773412e+001  4.350000e+001
      vertex -2.436202e+001  3.773412e+001  4.950000e+001
      vertex -2.440000e+001  3.730000e+001  4.950000e+001
    endloop
  endfacet
  facet normal  9.961945e-001 -8.715674e-002  0.000000e+000
    outer loop
      vertex -2.436202e+001  3.773412e+001  4.350000e+001
      vertex -2.440000e+001  3.730000e+001  4.950000e+001
      vertex -2.440000e+001  3.730000e+001  4.350000e+001
    endloop
  endfacet
  facet normal  1.000000e+000  0.000000e+000  0.000000e+000
    outer loop
      vertex -1.690000e+001  3.230000e+001  4.950000e+001
      vertex -1.690000e+001  3.230000e+001  4.350000e+001
      vertex -1.690000e+001  4.230000e+001  4.950000e+001
    endloop
  endfacet
  facet normal  1.000000e+000  0.000000e+000  0.000000e+000
    outer loop
      vertex -1.690000e+001  4.230000e+001  4.950000e+001
      vertex -1.690000e+001  3.230000e+001  4.350000e+001
      vertex -1.690000e+001  4.230000e+001  4.350000e+001
    endloop
  endfacet
endsolid CATIA STL
