solid CATIA STL
  facet normal  0.000000e+000  0.000000e+000 -1.000000e+000
    outer loop
      vertex -4.700000e+001  1.720000e+001  3.500000e+001
      vertex -4.700000e+001  2.480000e+001  3.500000e+001
      vertex -4.100000e+001  2.480000e+001  3.500000e+001
    endloop
  endfacet
  facet normal  0.000000e+000  -0.000000e+000 -1.000000e+000
    outer loop
      vertex -4.700000e+001  1.720000e+001  3.500000e+001
      vertex -4.100000e+001  2.480000e+001  3.500000e+001
      vertex -4.100000e+001  2.420000e+001  3.500000e+001
    endloop
  endfacet
  facet normal  0.000000e+000  -0.000000e+000 -1.000000e+000
    outer loop
      vertex -4.700000e+001  1.720000e+001  3.500000e+001
      vertex -4.100000e+001  2.420000e+001  3.500000e+001
      vertex -3.500000e+001  1.820000e+001  3.500000e+001
    endloop
  endfacet
  facet normal  0.000000e+000  -0.000000e+000 -1.000000e+000
    outer loop
      vertex -4.700000e+001  1.720000e+001  3.500000e+001
      vertex -3.500000e+001  1.820000e+001  3.500000e+001
      vertex -3.000000e+001  1.620000e+001  3.500000e+001
    endloop
  endfacet
  facet normal  -0.000000e+000  0.000000e+000 -1.000000e+000
    outer loop
      vertex -4.700000e+001  1.720000e+001  3.500000e+001
      vertex -3.000000e+001  1.620000e+001  3.500000e+001
      vertex -3.033378e+001  1.616239e+001  3.500000e+001
    endloop
  endfacet
  facet normal  -0.000000e+000  0.000000e+000 -1.000000e+000
    outer loop
      vertex -4.700000e+001  1.720000e+001  3.500000e+001
      vertex -3.033378e+001  1.616239e+001  3.500000e+001
      vertex -3.065083e+001  1.605145e+001  3.500000e+001
    endloop
  endfacet
  facet normal  -0.000000e+000  0.000000e+000 -1.000000e+000
    outer loop
      vertex -4.700000e+001  1.720000e+001  3.500000e+001
      vertex -3.065083e+001  1.605145e+001  3.500000e+001
      vertex -4.100000e+001  1.120000e+001  3.500000e+001
    endloop
  endfacet
  facet normal  0.000000e+000  0.000000e+000 -1.000000e+000
    outer loop
      vertex -4.100000e+001  1.120000e+001  3.500000e+001
      vertex -3.065083e+001  1.605145e+001  3.500000e+001
      vertex -3.093523e+001  1.587275e+001  3.500000e+001
    endloop
  endfacet
  facet normal  0.000000e+000  0.000000e+000 -1.000000e+000
    outer loop
      vertex -4.100000e+001  1.120000e+001  3.500000e+001
      vertex -3.093523e+001  1.587275e+001  3.500000e+001
      vertex -3.117275e+001  1.563523e+001  3.500000e+001
    endloop
  endfacet
  facet normal  0.000000e+000  0.000000e+000 -1.000000e+000
    outer loop
      vertex -4.100000e+001  1.120000e+001  3.500000e+001
      vertex -3.117275e+001  1.563523e+001  3.500000e+001
      vertex -3.135145e+001  1.535083e+001  3.500000e+001
    endloop
  endfacet
  facet normal  0.000000e+000  0.000000e+000 -1.000000e+000
    outer loop
      vertex -4.100000e+001  1.120000e+001  3.500000e+001
      vertex -3.135145e+001  1.535083e+001  3.500000e+001
      vertex -3.146239e+001  1.503378e+001  3.500000e+001
    endloop
  endfacet
  facet normal  0.000000e+000  0.000000e+000 -1.000000e+000
    outer loop
      vertex -4.100000e+001  1.120000e+001  3.500000e+001
      vertex -3.146239e+001  1.503378e+001  3.500000e+001
      vertex -3.150000e+001  1.470000e+001  3.500000e+001
    endloop
  endfacet
  facet normal  0.000000e+000  -0.000000e+000 -1.000000e+000
    outer loop
      vertex -4.100000e+001  1.120000e+001  3.500000e+001
      vertex -3.150000e+001  1.470000e+001  3.500000e+001
      vertex -3.146239e+001  1.436622e+001  3.500000e+001
    endloop
  endfacet
  facet normal  0.000000e+000  -0.000000e+000 -1.000000e+000
    outer loop
      vertex -4.100000e+001  1.120000e+001  3.500000e+001
      vertex -3.146239e+001  1.436622e+001  3.500000e+001
      vertex -3.135145e+001  1.404917e+001  3.500000e+001
    endloop
  endfacet
  facet normal  0.000000e+000  -0.000000e+000 -1.000000e+000
    outer loop
      vertex -4.100000e+001  1.120000e+001  3.500000e+001
      vertex -3.135145e+001  1.404917e+001  3.500000e+001
      vertex -3.117275e+001  1.376477e+001  3.500000e+001
    endloop
  endfacet
  facet normal  0.000000e+000  -0.000000e+000 -1.000000e+000
    outer loop
      vertex -4.100000e+001  1.120000e+001  3.500000e+001
      vertex -3.117275e+001  1.376477e+001  3.500000e+001
      vertex -3.093523e+001  1.352725e+001  3.500000e+001
    endloop
  endfacet
  facet normal  0.000000e+000  -0.000000e+000 -1.000000e+000
    outer loop
      vertex -4.100000e+001  1.120000e+001  3.500000e+001
      vertex -3.093523e+001  1.352725e+001  3.500000e+001
      vertex -3.065083e+001  1.334855e+001  3.500000e+001
    endloop
  endfacet
  facet normal  0.000000e+000  -0.000000e+000 -1.000000e+000
    outer loop
      vertex -4.100000e+001  1.120000e+001  3.500000e+001
      vertex -3.065083e+001  1.334855e+001  3.500000e+001
      vertex -3.033378e+001  1.323761e+001  3.500000e+001
    endloop
  endfacet
  facet normal  0.000000e+000  -0.000000e+000 -1.000000e+000
    outer loop
      vertex -4.100000e+001  1.120000e+001  3.500000e+001
      vertex -3.033378e+001  1.323761e+001  3.500000e+001
      vertex -3.000000e+001  1.320000e+001  3.500000e+001
    endloop
  endfacet
  facet normal  0.000000e+000  -0.000000e+000 -1.000000e+000
    outer loop
      vertex -4.100000e+001  1.120000e+001  3.500000e+001
      vertex -3.000000e+001  1.320000e+001  3.500000e+001
      vertex -2.050000e+001  1.320000e+001  3.500000e+001
    endloop
  endfacet
  facet normal  0.000000e+000  -0.000000e+000 -1.000000e+000
    outer loop
      vertex -4.100000e+001  1.120000e+001  3.500000e+001
      vertex -2.050000e+001  1.320000e+001  3.500000e+001
      vertex -1.700000e+001  1.120000e+001  3.500000e+001
    endloop
  endfacet
  facet normal  0.000000e+000  0.000000e+000 -9.999999e-001
    outer loop
      vertex -1.700000e+001  1.120000e+001  3.500000e+001
      vertex -2.050000e+001  1.320000e+001  3.500000e+001
      vertex -2.016622e+001  1.323761e+001  3.500000e+001
    endloop
  endfacet
  facet normal  0.000000e+000  0.000000e+000 -1.000000e+000
    outer loop
      vertex -1.700000e+001  1.120000e+001  3.500000e+001
      vertex -2.016622e+001  1.323761e+001  3.500000e+001
      vertex -1.984917e+001  1.334855e+001  3.500000e+001
    endloop
  endfacet
  facet normal  0.000000e+000  0.000000e+000 -1.000000e+000
    outer loop
      vertex -1.700000e+001  1.120000e+001  3.500000e+001
      vertex -1.984917e+001  1.334855e+001  3.500000e+001
      vertex -1.956477e+001  1.352725e+001  3.500000e+001
    endloop
  endfacet
  facet normal  0.000000e+000  0.000000e+000 -1.000000e+000
    outer loop
      vertex -1.700000e+001  1.120000e+001  3.500000e+001
      vertex -1.956477e+001  1.352725e+001  3.500000e+001
      vertex -1.932725e+001  1.376477e+001  3.500000e+001
    endloop
  endfacet
  facet normal  0.000000e+000  0.000000e+000 -9.999999e-001
    outer loop
      vertex -1.700000e+001  1.120000e+001  3.500000e+001
      vertex -1.932725e+001  1.376477e+001  3.500000e+001
      vertex -1.914855e+001  1.404917e+001  3.500000e+001
    endloop
  endfacet
  facet normal  0.000000e+000  0.000000e+000 -1.000000e+000
    outer loop
      vertex -1.700000e+001  1.120000e+001  3.500000e+001
      vertex -1.914855e+001  1.404917e+001  3.500000e+001
      vertex -1.903761e+001  1.436622e+001  3.500000e+001
    endloop
  endfacet
  facet normal  0.000000e+000  0.000000e+000 -9.999999e-001
    outer loop
      vertex -1.700000e+001  1.120000e+001  3.500000e+001
      vertex -1.903761e+001  1.436622e+001  3.500000e+001
      vertex -1.900000e+001  1.470000e+001  3.500000e+001
    endloop
  endfacet
  facet normal  0.000000e+000  0.000000e+000 -1.000000e+000
    outer loop
      vertex -1.700000e+001  1.120000e+001  3.500000e+001
      vertex -1.900000e+001  1.470000e+001  3.500000e+001
      vertex -1.903761e+001  1.503378e+001  3.500000e+001
    endloop
  endfacet
  facet normal  0.000000e+000  0.000000e+000 -1.000000e+000
    outer loop
      vertex -1.700000e+001  1.120000e+001  3.500000e+001
      vertex -1.903761e+001  1.503378e+001  3.500000e+001
      vertex -1.914855e+001  1.535083e+001  3.500000e+001
    endloop
  endfacet
  facet normal  0.000000e+000  0.000000e+000 -1.000000e+000
    outer loop
      vertex -1.700000e+001  1.820000e+001  3.500000e+001
      vertex -1.700000e+001  1.120000e+001  3.500000e+001
      vertex -1.914855e+001  1.535083e+001  3.500000e+001
    endloop
  endfacet
  facet normal  0.000000e+000  0.000000e+000 -1.000000e+000
    outer loop
      vertex -1.700000e+001  1.820000e+001  3.500000e+001
      vertex -1.914855e+001  1.535083e+001  3.500000e+001
      vertex -1.932725e+001  1.563523e+001  3.500000e+001
    endloop
  endfacet
  facet normal  0.000000e+000  0.000000e+000 -1.000000e+000
    outer loop
      vertex -1.700000e+001  1.820000e+001  3.500000e+001
      vertex -1.932725e+001  1.563523e+001  3.500000e+001
      vertex -1.956477e+001  1.587275e+001  3.500000e+001
    endloop
  endfacet
  facet normal  0.000000e+000  0.000000e+000 -1.000000e+000
    outer loop
      vertex -1.700000e+001  1.820000e+001  3.500000e+001
      vertex -1.956477e+001  1.587275e+001  3.500000e+001
      vertex -1.984917e+001  1.605145e+001  3.500000e+001
    endloop
  endfacet
  facet normal  0.000000e+000  0.000000e+000 -9.999999e-001
    outer loop
      vertex -1.700000e+001  1.820000e+001  3.500000e+001
      vertex -1.984917e+001  1.605145e+001  3.500000e+001
      vertex -2.016622e+001  1.616239e+001  3.500000e+001
    endloop
  endfacet
  facet normal  0.000000e+000  0.000000e+000 -1.000000e+000
    outer loop
      vertex -1.700000e+001  1.820000e+001  3.500000e+001
      vertex -2.016622e+001  1.616239e+001  3.500000e+001
      vertex -2.050000e+001  1.620000e+001  3.500000e+001
    endloop
  endfacet
  facet normal  0.000000e+000  0.000000e+000 -1.000000e+000
    outer loop
      vertex -1.700000e+001  1.820000e+001  3.500000e+001
      vertex -2.050000e+001  1.620000e+001  3.500000e+001
      vertex -3.000000e+001  1.620000e+001  3.500000e+001
    endloop
  endfacet
  facet normal  0.000000e+000  0.000000e+000 -1.000000e+000
    outer loop
      vertex -1.700000e+001  1.820000e+001  3.500000e+001
      vertex -3.000000e+001  1.620000e+001  3.500000e+001
      vertex -3.500000e+001  1.820000e+001  3.500000e+001
    endloop
  endfacet
  facet normal  0.000000e+000  0.000000e+000 -1.000000e+000
    outer loop
      vertex -2.200000e+001  1.470000e+001  3.500000e+001
      vertex -2.853761e+001  1.503378e+001  3.500000e+001
      vertex -2.196239e+001  1.503378e+001  3.500000e+001
    endloop
  endfacet
  facet normal  0.000000e+000  0.000000e+000 -1.000000e+000
    outer loop
      vertex -2.196239e+001  1.503378e+001  3.500000e+001
      vertex -2.853761e+001  1.503378e+001  3.500000e+001
      vertex -2.864855e+001  1.535083e+001  3.500000e+001
    endloop
  endfacet
  facet normal  0.000000e+000  0.000000e+000 -1.000000e+000
    outer loop
      vertex -2.196239e+001  1.503378e+001  3.500000e+001
      vertex -2.864855e+001  1.535083e+001  3.500000e+001
      vertex -2.185145e+001  1.535083e+001  3.500000e+001
    endloop
  endfacet
  facet normal  0.000000e+000  0.000000e+000 -9.999999e-001
    outer loop
      vertex -2.185145e+001  1.535083e+001  3.500000e+001
      vertex -2.864855e+001  1.535083e+001  3.500000e+001
      vertex -2.882725e+001  1.563523e+001  3.500000e+001
    endloop
  endfacet
  facet normal  0.000000e+000  0.000000e+000 -1.000000e+000
    outer loop
      vertex -2.185145e+001  1.535083e+001  3.500000e+001
      vertex -2.882725e+001  1.563523e+001  3.500000e+001
      vertex -2.167275e+001  1.563523e+001  3.500000e+001
    endloop
  endfacet
  facet normal  0.000000e+000  0.000000e+000 -1.000000e+000
    outer loop
      vertex -2.167275e+001  1.563523e+001  3.500000e+001
      vertex -2.882725e+001  1.563523e+001  3.500000e+001
      vertex -2.906477e+001  1.587275e+001  3.500000e+001
    endloop
  endfacet
  facet normal  0.000000e+000  0.000000e+000 -1.000000e+000
    outer loop
      vertex -2.167275e+001  1.563523e+001  3.500000e+001
      vertex -2.906477e+001  1.587275e+001  3.500000e+001
      vertex -2.143523e+001  1.587275e+001  3.500000e+001
    endloop
  endfacet
  facet normal  0.000000e+000  0.000000e+000 -1.000000e+000
    outer loop
      vertex -2.143523e+001  1.587275e+001  3.500000e+001
      vertex -2.906477e+001  1.587275e+001  3.500000e+001
      vertex -2.934917e+001  1.605145e+001  3.500000e+001
    endloop
  endfacet
  facet normal  0.000000e+000  0.000000e+000 -9.999999e-001
    outer loop
      vertex -2.143523e+001  1.587275e+001  3.500000e+001
      vertex -2.934917e+001  1.605145e+001  3.500000e+001
      vertex -2.115083e+001  1.605145e+001  3.500000e+001
    endloop
  endfacet
  facet normal  0.000000e+000  0.000000e+000 -1.000000e+000
    outer loop
      vertex -2.115083e+001  1.605145e+001  3.500000e+001
      vertex -2.934917e+001  1.605145e+001  3.500000e+001
      vertex -2.966622e+001  1.616239e+001  3.500000e+001
    endloop
  endfacet
  facet normal  0.000000e+000  0.000000e+000 -9.999999e-001
    outer loop
      vertex -2.115083e+001  1.605145e+001  3.500000e+001
      vertex -2.966622e+001  1.616239e+001  3.500000e+001
      vertex -2.083378e+001  1.616239e+001  3.500000e+001
    endloop
  endfacet
  facet normal  0.000000e+000  0.000000e+000 -9.999999e-001
    outer loop
      vertex -2.083378e+001  1.616239e+001  3.500000e+001
      vertex -2.966622e+001  1.616239e+001  3.500000e+001
      vertex -3.000000e+001  1.620000e+001  3.500000e+001
    endloop
  endfacet
  facet normal  0.000000e+000  0.000000e+000 -1.000000e+000
    outer loop
      vertex -2.083378e+001  1.616239e+001  3.500000e+001
      vertex -3.000000e+001  1.620000e+001  3.500000e+001
      vertex -2.050000e+001  1.620000e+001  3.500000e+001
    endloop
  endfacet
  facet normal  0.000000e+000  0.000000e+000 -1.000000e+000
    outer loop
      vertex -2.853761e+001  1.503378e+001  3.500000e+001
      vertex -2.200000e+001  1.470000e+001  3.500000e+001
      vertex -2.850000e+001  1.470000e+001  3.500000e+001
    endloop
  endfacet
  facet normal  0.000000e+000  0.000000e+000 -1.000000e+000
    outer loop
      vertex -2.850000e+001  1.470000e+001  3.500000e+001
      vertex -2.200000e+001  1.470000e+001  3.500000e+001
      vertex -2.196239e+001  1.436622e+001  3.500000e+001
    endloop
  endfacet
  facet normal  0.000000e+000  0.000000e+000 -1.000000e+000
    outer loop
      vertex -2.850000e+001  1.470000e+001  3.500000e+001
      vertex -2.196239e+001  1.436622e+001  3.500000e+001
      vertex -2.853761e+001  1.436622e+001  3.500000e+001
    endloop
  endfacet
  facet normal  0.000000e+000  0.000000e+000 -1.000000e+000
    outer loop
      vertex -2.853761e+001  1.436622e+001  3.500000e+001
      vertex -2.196239e+001  1.436622e+001  3.500000e+001
      vertex -2.185145e+001  1.404917e+001  3.500000e+001
    endloop
  endfacet
  facet normal  0.000000e+000  0.000000e+000 -1.000000e+000
    outer loop
      vertex -2.853761e+001  1.436622e+001  3.500000e+001
      vertex -2.185145e+001  1.404917e+001  3.500000e+001
      vertex -2.864855e+001  1.404917e+001  3.500000e+001
    endloop
  endfacet
  facet normal  0.000000e+000  0.000000e+000 -1.000000e+000
    outer loop
      vertex -2.864855e+001  1.404917e+001  3.500000e+001
      vertex -2.185145e+001  1.404917e+001  3.500000e+001
      vertex -2.167275e+001  1.376477e+001  3.500000e+001
    endloop
  endfacet
  facet normal  0.000000e+000  0.000000e+000 -1.000000e+000
    outer loop
      vertex -2.864855e+001  1.404917e+001  3.500000e+001
      vertex -2.167275e+001  1.376477e+001  3.500000e+001
      vertex -2.882725e+001  1.376477e+001  3.500000e+001
    endloop
  endfacet
  facet normal  0.000000e+000  0.000000e+000 -1.000000e+000
    outer loop
      vertex -2.882725e+001  1.376477e+001  3.500000e+001
      vertex -2.167275e+001  1.376477e+001  3.500000e+001
      vertex -2.143523e+001  1.352725e+001  3.500000e+001
    endloop
  endfacet
  facet normal  0.000000e+000  0.000000e+000 -1.000000e+000
    outer loop
      vertex -2.882725e+001  1.376477e+001  3.500000e+001
      vertex -2.143523e+001  1.352725e+001  3.500000e+001
      vertex -2.906477e+001  1.352725e+001  3.500000e+001
    endloop
  endfacet
  facet normal  0.000000e+000  0.000000e+000 -1.000000e+000
    outer loop
      vertex -2.906477e+001  1.352725e+001  3.500000e+001
      vertex -2.143523e+001  1.352725e+001  3.500000e+001
      vertex -2.115083e+001  1.334855e+001  3.500000e+001
    endloop
  endfacet
  facet normal  0.000000e+000  0.000000e+000 -1.000000e+000
    outer loop
      vertex -2.906477e+001  1.352725e+001  3.500000e+001
      vertex -2.115083e+001  1.334855e+001  3.500000e+001
      vertex -2.934917e+001  1.334855e+001  3.500000e+001
    endloop
  endfacet
  facet normal  0.000000e+000  0.000000e+000 -1.000000e+000
    outer loop
      vertex -2.934917e+001  1.334855e+001  3.500000e+001
      vertex -2.115083e+001  1.334855e+001  3.500000e+001
      vertex -2.083378e+001  1.323761e+001  3.500000e+001
    endloop
  endfacet
  facet normal  0.000000e+000  0.000000e+000 -9.999999e-001
    outer loop
      vertex -2.934917e+001  1.334855e+001  3.500000e+001
      vertex -2.083378e+001  1.323761e+001  3.500000e+001
      vertex -2.966622e+001  1.323761e+001  3.500000e+001
    endloop
  endfacet
  facet normal  0.000000e+000  0.000000e+000 -1.000000e+000
    outer loop
      vertex -2.966622e+001  1.323761e+001  3.500000e+001
      vertex -2.083378e+001  1.323761e+001  3.500000e+001
      vertex -2.050000e+001  1.320000e+001  3.500000e+001
    endloop
  endfacet
  facet normal  0.000000e+000  0.000000e+000 -1.000000e+000
    outer loop
      vertex -2.966622e+001  1.323761e+001  3.500000e+001
      vertex -2.050000e+001  1.320000e+001  3.500000e+001
      vertex -3.000000e+001  1.320000e+001  3.500000e+001
    endloop
  endfacet
  facet normal  0.000000e+000  -0.000000e+000  1.000000e+000
    outer loop
      vertex -4.700000e+001  1.720000e+001  5.000000e+001
      vertex -4.100000e+001  1.120000e+001  5.000000e+001
      vertex -3.065083e+001  1.605145e+001  5.000000e+001
    endloop
  endfacet
  facet normal  0.000000e+000  -0.000000e+000  1.000000e+000
    outer loop
      vertex -4.700000e+001  1.720000e+001  5.000000e+001
      vertex -3.065083e+001  1.605145e+001  5.000000e+001
      vertex -3.033378e+001  1.616239e+001  5.000000e+001
    endloop
  endfacet
  facet normal  0.000000e+000  -0.000000e+000  1.000000e+000
    outer loop
      vertex -4.700000e+001  1.720000e+001  5.000000e+001
      vertex -3.033378e+001  1.616239e+001  5.000000e+001
      vertex -3.000000e+001  1.620000e+001  5.000000e+001
    endloop
  endfacet
  facet normal  0.000000e+000  0.000000e+000  1.000000e+000
    outer loop
      vertex -4.700000e+001  1.720000e+001  5.000000e+001
      vertex -3.000000e+001  1.620000e+001  5.000000e+001
      vertex -3.500000e+001  1.820000e+001  5.000000e+001
    endloop
  endfacet
  facet normal  0.000000e+000  0.000000e+000  1.000000e+000
    outer loop
      vertex -4.700000e+001  1.720000e+001  5.000000e+001
      vertex -3.500000e+001  1.820000e+001  5.000000e+001
      vertex -4.100000e+001  2.420000e+001  5.000000e+001
    endloop
  endfacet
  facet normal  0.000000e+000  -0.000000e+000  1.000000e+000
    outer loop
      vertex -4.700000e+001  1.720000e+001  5.000000e+001
      vertex -4.100000e+001  2.420000e+001  5.000000e+001
      vertex -4.100000e+001  2.480000e+001  5.000000e+001
    endloop
  endfacet
  facet normal  0.000000e+000  0.000000e+000  1.000000e+000
    outer loop
      vertex -4.700000e+001  1.720000e+001  5.000000e+001
      vertex -4.100000e+001  2.480000e+001  5.000000e+001
      vertex -4.700000e+001  2.480000e+001  5.000000e+001
    endloop
  endfacet
  facet normal  0.000000e+000  0.000000e+000  1.000000e+000
    outer loop
      vertex -4.100000e+001  1.120000e+001  5.000000e+001
      vertex -1.700000e+001  1.120000e+001  5.000000e+001
      vertex -2.050000e+001  1.320000e+001  5.000000e+001
    endloop
  endfacet
  facet normal  0.000000e+000  0.000000e+000  1.000000e+000
    outer loop
      vertex -4.100000e+001  1.120000e+001  5.000000e+001
      vertex -2.050000e+001  1.320000e+001  5.000000e+001
      vertex -3.000000e+001  1.320000e+001  5.000000e+001
    endloop
  endfacet
  facet normal  0.000000e+000  0.000000e+000  1.000000e+000
    outer loop
      vertex -4.100000e+001  1.120000e+001  5.000000e+001
      vertex -3.000000e+001  1.320000e+001  5.000000e+001
      vertex -3.033378e+001  1.323761e+001  5.000000e+001
    endloop
  endfacet
  facet normal  0.000000e+000  0.000000e+000  1.000000e+000
    outer loop
      vertex -4.100000e+001  1.120000e+001  5.000000e+001
      vertex -3.033378e+001  1.323761e+001  5.000000e+001
      vertex -3.065083e+001  1.334855e+001  5.000000e+001
    endloop
  endfacet
  facet normal  0.000000e+000  0.000000e+000  1.000000e+000
    outer loop
      vertex -4.100000e+001  1.120000e+001  5.000000e+001
      vertex -3.065083e+001  1.334855e+001  5.000000e+001
      vertex -3.093523e+001  1.352725e+001  5.000000e+001
    endloop
  endfacet
  facet normal  0.000000e+000  0.000000e+000  1.000000e+000
    outer loop
      vertex -4.100000e+001  1.120000e+001  5.000000e+001
      vertex -3.093523e+001  1.352725e+001  5.000000e+001
      vertex -3.117275e+001  1.376477e+001  5.000000e+001
    endloop
  endfacet
  facet normal  0.000000e+000  0.000000e+000  1.000000e+000
    outer loop
      vertex -4.100000e+001  1.120000e+001  5.000000e+001
      vertex -3.117275e+001  1.376477e+001  5.000000e+001
      vertex -3.135145e+001  1.404917e+001  5.000000e+001
    endloop
  endfacet
  facet normal  0.000000e+000  0.000000e+000  1.000000e+000
    outer loop
      vertex -4.100000e+001  1.120000e+001  5.000000e+001
      vertex -3.135145e+001  1.404917e+001  5.000000e+001
      vertex -3.146239e+001  1.436622e+001  5.000000e+001
    endloop
  endfacet
  facet normal  0.000000e+000  0.000000e+000  1.000000e+000
    outer loop
      vertex -4.100000e+001  1.120000e+001  5.000000e+001
      vertex -3.146239e+001  1.436622e+001  5.000000e+001
      vertex -3.150000e+001  1.470000e+001  5.000000e+001
    endloop
  endfacet
  facet normal  0.000000e+000  -0.000000e+000  1.000000e+000
    outer loop
      vertex -4.100000e+001  1.120000e+001  5.000000e+001
      vertex -3.150000e+001  1.470000e+001  5.000000e+001
      vertex -3.146239e+001  1.503378e+001  5.000000e+001
    endloop
  endfacet
  facet normal  0.000000e+000  -0.000000e+000  1.000000e+000
    outer loop
      vertex -4.100000e+001  1.120000e+001  5.000000e+001
      vertex -3.146239e+001  1.503378e+001  5.000000e+001
      vertex -3.135145e+001  1.535083e+001  5.000000e+001
    endloop
  endfacet
  facet normal  0.000000e+000  -0.000000e+000  1.000000e+000
    outer loop
      vertex -4.100000e+001  1.120000e+001  5.000000e+001
      vertex -3.135145e+001  1.535083e+001  5.000000e+001
      vertex -3.117275e+001  1.563523e+001  5.000000e+001
    endloop
  endfacet
  facet normal  0.000000e+000  -0.000000e+000  1.000000e+000
    outer loop
      vertex -4.100000e+001  1.120000e+001  5.000000e+001
      vertex -3.117275e+001  1.563523e+001  5.000000e+001
      vertex -3.093523e+001  1.587275e+001  5.000000e+001
    endloop
  endfacet
  facet normal  0.000000e+000  -0.000000e+000  1.000000e+000
    outer loop
      vertex -4.100000e+001  1.120000e+001  5.000000e+001
      vertex -3.093523e+001  1.587275e+001  5.000000e+001
      vertex -3.065083e+001  1.605145e+001  5.000000e+001
    endloop
  endfacet
  facet normal  0.000000e+000  0.000000e+000  1.000000e+000
    outer loop
      vertex -1.700000e+001  1.120000e+001  5.000000e+001
      vertex -1.914855e+001  1.535083e+001  5.000000e+001
      vertex -1.903761e+001  1.503378e+001  5.000000e+001
    endloop
  endfacet
  facet normal  0.000000e+000  0.000000e+000  1.000000e+000
    outer loop
      vertex -1.700000e+001  1.120000e+001  5.000000e+001
      vertex -1.903761e+001  1.503378e+001  5.000000e+001
      vertex -1.900000e+001  1.470000e+001  5.000000e+001
    endloop
  endfacet
  facet normal  0.000000e+000  0.000000e+000  9.999999e-001
    outer loop
      vertex -1.700000e+001  1.120000e+001  5.000000e+001
      vertex -1.900000e+001  1.470000e+001  5.000000e+001
      vertex -1.903761e+001  1.436622e+001  5.000000e+001
    endloop
  endfacet
  facet normal  0.000000e+000  0.000000e+000  1.000000e+000
    outer loop
      vertex -1.700000e+001  1.120000e+001  5.000000e+001
      vertex -1.903761e+001  1.436622e+001  5.000000e+001
      vertex -1.914855e+001  1.404917e+001  5.000000e+001
    endloop
  endfacet
  facet normal  0.000000e+000  0.000000e+000  9.999999e-001
    outer loop
      vertex -1.700000e+001  1.120000e+001  5.000000e+001
      vertex -1.914855e+001  1.404917e+001  5.000000e+001
      vertex -1.932725e+001  1.376477e+001  5.000000e+001
    endloop
  endfacet
  facet normal  0.000000e+000  0.000000e+000  1.000000e+000
    outer loop
      vertex -1.700000e+001  1.120000e+001  5.000000e+001
      vertex -1.932725e+001  1.376477e+001  5.000000e+001
      vertex -1.956477e+001  1.352725e+001  5.000000e+001
    endloop
  endfacet
  facet normal  0.000000e+000  0.000000e+000  1.000000e+000
    outer loop
      vertex -1.700000e+001  1.120000e+001  5.000000e+001
      vertex -1.956477e+001  1.352725e+001  5.000000e+001
      vertex -1.984917e+001  1.334855e+001  5.000000e+001
    endloop
  endfacet
  facet normal  0.000000e+000  0.000000e+000  1.000000e+000
    outer loop
      vertex -1.700000e+001  1.120000e+001  5.000000e+001
      vertex -1.984917e+001  1.334855e+001  5.000000e+001
      vertex -2.016622e+001  1.323761e+001  5.000000e+001
    endloop
  endfacet
  facet normal  0.000000e+000  0.000000e+000  9.999999e-001
    outer loop
      vertex -1.700000e+001  1.120000e+001  5.000000e+001
      vertex -2.016622e+001  1.323761e+001  5.000000e+001
      vertex -2.050000e+001  1.320000e+001  5.000000e+001
    endloop
  endfacet
  facet normal  -0.000000e+000  0.000000e+000  1.000000e+000
    outer loop
      vertex -1.700000e+001  1.820000e+001  5.000000e+001
      vertex -3.500000e+001  1.820000e+001  5.000000e+001
      vertex -3.000000e+001  1.620000e+001  5.000000e+001
    endloop
  endfacet
  facet normal  0.000000e+000  0.000000e+000  1.000000e+000
    outer loop
      vertex -1.700000e+001  1.820000e+001  5.000000e+001
      vertex -3.000000e+001  1.620000e+001  5.000000e+001
      vertex -2.050000e+001  1.620000e+001  5.000000e+001
    endloop
  endfacet
  facet normal  -0.000000e+000  0.000000e+000  1.000000e+000
    outer loop
      vertex -1.700000e+001  1.820000e+001  5.000000e+001
      vertex -2.050000e+001  1.620000e+001  5.000000e+001
      vertex -2.016622e+001  1.616239e+001  5.000000e+001
    endloop
  endfacet
  facet normal  -0.000000e+000  0.000000e+000  9.999999e-001
    outer loop
      vertex -1.700000e+001  1.820000e+001  5.000000e+001
      vertex -2.016622e+001  1.616239e+001  5.000000e+001
      vertex -1.984917e+001  1.605145e+001  5.000000e+001
    endloop
  endfacet
  facet normal  -0.000000e+000  0.000000e+000  1.000000e+000
    outer loop
      vertex -1.700000e+001  1.820000e+001  5.000000e+001
      vertex -1.984917e+001  1.605145e+001  5.000000e+001
      vertex -1.956477e+001  1.587275e+001  5.000000e+001
    endloop
  endfacet
  facet normal  -0.000000e+000  0.000000e+000  1.000000e+000
    outer loop
      vertex -1.700000e+001  1.820000e+001  5.000000e+001
      vertex -1.956477e+001  1.587275e+001  5.000000e+001
      vertex -1.932725e+001  1.563523e+001  5.000000e+001
    endloop
  endfacet
  facet normal  -0.000000e+000  0.000000e+000  1.000000e+000
    outer loop
      vertex -1.700000e+001  1.820000e+001  5.000000e+001
      vertex -1.932725e+001  1.563523e+001  5.000000e+001
      vertex -1.914855e+001  1.535083e+001  5.000000e+001
    endloop
  endfacet
  facet normal  -0.000000e+000  0.000000e+000  1.000000e+000
    outer loop
      vertex -1.700000e+001  1.820000e+001  5.000000e+001
      vertex -1.914855e+001  1.535083e+001  5.000000e+001
      vertex -1.700000e+001  1.120000e+001  5.000000e+001
    endloop
  endfacet
  facet normal  -0.000000e+000  0.000000e+000  1.000000e+000
    outer loop
      vertex -2.050000e+001  1.620000e+001  5.000000e+001
      vertex -3.000000e+001  1.620000e+001  5.000000e+001
      vertex -2.083378e+001  1.616239e+001  5.000000e+001
    endloop
  endfacet
  facet normal  0.000000e+000  0.000000e+000  9.999999e-001
    outer loop
      vertex -2.083378e+001  1.616239e+001  5.000000e+001
      vertex -3.000000e+001  1.620000e+001  5.000000e+001
      vertex -2.966622e+001  1.616239e+001  5.000000e+001
    endloop
  endfacet
  facet normal  -0.000000e+000  0.000000e+000  9.999999e-001
    outer loop
      vertex -2.083378e+001  1.616239e+001  5.000000e+001
      vertex -2.966622e+001  1.616239e+001  5.000000e+001
      vertex -2.115083e+001  1.605145e+001  5.000000e+001
    endloop
  endfacet
  facet normal  0.000000e+000  0.000000e+000  1.000000e+000
    outer loop
      vertex -2.115083e+001  1.605145e+001  5.000000e+001
      vertex -2.966622e+001  1.616239e+001  5.000000e+001
      vertex -2.934917e+001  1.605145e+001  5.000000e+001
    endloop
  endfacet
  facet normal  -0.000000e+000  0.000000e+000  9.999999e-001
    outer loop
      vertex -2.115083e+001  1.605145e+001  5.000000e+001
      vertex -2.934917e+001  1.605145e+001  5.000000e+001
      vertex -2.143523e+001  1.587275e+001  5.000000e+001
    endloop
  endfacet
  facet normal  0.000000e+000  0.000000e+000  1.000000e+000
    outer loop
      vertex -2.143523e+001  1.587275e+001  5.000000e+001
      vertex -2.934917e+001  1.605145e+001  5.000000e+001
      vertex -2.906477e+001  1.587275e+001  5.000000e+001
    endloop
  endfacet
  facet normal  -0.000000e+000  0.000000e+000  1.000000e+000
    outer loop
      vertex -2.143523e+001  1.587275e+001  5.000000e+001
      vertex -2.906477e+001  1.587275e+001  5.000000e+001
      vertex -2.167275e+001  1.563523e+001  5.000000e+001
    endloop
  endfacet
  facet normal  0.000000e+000  0.000000e+000  1.000000e+000
    outer loop
      vertex -2.167275e+001  1.563523e+001  5.000000e+001
      vertex -2.906477e+001  1.587275e+001  5.000000e+001
      vertex -2.882725e+001  1.563523e+001  5.000000e+001
    endloop
  endfacet
  facet normal  -0.000000e+000  0.000000e+000  1.000000e+000
    outer loop
      vertex -2.167275e+001  1.563523e+001  5.000000e+001
      vertex -2.882725e+001  1.563523e+001  5.000000e+001
      vertex -2.185145e+001  1.535083e+001  5.000000e+001
    endloop
  endfacet
  facet normal  0.000000e+000  0.000000e+000  9.999999e-001
    outer loop
      vertex -2.185145e+001  1.535083e+001  5.000000e+001
      vertex -2.882725e+001  1.563523e+001  5.000000e+001
      vertex -2.864855e+001  1.535083e+001  5.000000e+001
    endloop
  endfacet
  facet normal  -0.000000e+000  0.000000e+000  1.000000e+000
    outer loop
      vertex -2.185145e+001  1.535083e+001  5.000000e+001
      vertex -2.864855e+001  1.535083e+001  5.000000e+001
      vertex -2.196239e+001  1.503378e+001  5.000000e+001
    endloop
  endfacet
  facet normal  0.000000e+000  0.000000e+000  1.000000e+000
    outer loop
      vertex -2.196239e+001  1.503378e+001  5.000000e+001
      vertex -2.864855e+001  1.535083e+001  5.000000e+001
      vertex -2.853761e+001  1.503378e+001  5.000000e+001
    endloop
  endfacet
  facet normal  -0.000000e+000  0.000000e+000  1.000000e+000
    outer loop
      vertex -2.196239e+001  1.503378e+001  5.000000e+001
      vertex -2.853761e+001  1.503378e+001  5.000000e+001
      vertex -2.200000e+001  1.470000e+001  5.000000e+001
    endloop
  endfacet
  facet normal  0.000000e+000  0.000000e+000  1.000000e+000
    outer loop
      vertex -2.200000e+001  1.470000e+001  5.000000e+001
      vertex -2.853761e+001  1.503378e+001  5.000000e+001
      vertex -2.850000e+001  1.470000e+001  5.000000e+001
    endloop
  endfacet
  facet normal  -0.000000e+000  0.000000e+000  1.000000e+000
    outer loop
      vertex -2.200000e+001  1.470000e+001  5.000000e+001
      vertex -2.850000e+001  1.470000e+001  5.000000e+001
      vertex -2.196239e+001  1.436622e+001  5.000000e+001
    endloop
  endfacet
  facet normal  0.000000e+000  0.000000e+000  1.000000e+000
    outer loop
      vertex -2.196239e+001  1.436622e+001  5.000000e+001
      vertex -2.850000e+001  1.470000e+001  5.000000e+001
      vertex -2.853761e+001  1.436622e+001  5.000000e+001
    endloop
  endfacet
  facet normal  -0.000000e+000  0.000000e+000  1.000000e+000
    outer loop
      vertex -2.196239e+001  1.436622e+001  5.000000e+001
      vertex -2.853761e+001  1.436622e+001  5.000000e+001
      vertex -2.185145e+001  1.404917e+001  5.000000e+001
    endloop
  endfacet
  facet normal  0.000000e+000  0.000000e+000  1.000000e+000
    outer loop
      vertex -2.185145e+001  1.404917e+001  5.000000e+001
      vertex -2.853761e+001  1.436622e+001  5.000000e+001
      vertex -2.864855e+001  1.404917e+001  5.000000e+001
    endloop
  endfacet
  facet normal  -0.000000e+000  0.000000e+000  1.000000e+000
    outer loop
      vertex -2.185145e+001  1.404917e+001  5.000000e+001
      vertex -2.864855e+001  1.404917e+001  5.000000e+001
      vertex -2.167275e+001  1.376477e+001  5.000000e+001
    endloop
  endfacet
  facet normal  0.000000e+000  0.000000e+000  1.000000e+000
    outer loop
      vertex -2.167275e+001  1.376477e+001  5.000000e+001
      vertex -2.864855e+001  1.404917e+001  5.000000e+001
      vertex -2.882725e+001  1.376477e+001  5.000000e+001
    endloop
  endfacet
  facet normal  -0.000000e+000  0.000000e+000  1.000000e+000
    outer loop
      vertex -2.167275e+001  1.376477e+001  5.000000e+001
      vertex -2.882725e+001  1.376477e+001  5.000000e+001
      vertex -2.143523e+001  1.352725e+001  5.000000e+001
    endloop
  endfacet
  facet normal  0.000000e+000  0.000000e+000  1.000000e+000
    outer loop
      vertex -2.143523e+001  1.352725e+001  5.000000e+001
      vertex -2.882725e+001  1.376477e+001  5.000000e+001
      vertex -2.906477e+001  1.352725e+001  5.000000e+001
    endloop
  endfacet
  facet normal  -0.000000e+000  0.000000e+000  1.000000e+000
    outer loop
      vertex -2.143523e+001  1.352725e+001  5.000000e+001
      vertex -2.906477e+001  1.352725e+001  5.000000e+001
      vertex -2.115083e+001  1.334855e+001  5.000000e+001
    endloop
  endfacet
  facet normal  0.000000e+000  0.000000e+000  1.000000e+000
    outer loop
      vertex -2.115083e+001  1.334855e+001  5.000000e+001
      vertex -2.906477e+001  1.352725e+001  5.000000e+001
      vertex -2.934917e+001  1.334855e+001  5.000000e+001
    endloop
  endfacet
  facet normal  -0.000000e+000  0.000000e+000  1.000000e+000
    outer loop
      vertex -2.115083e+001  1.334855e+001  5.000000e+001
      vertex -2.934917e+001  1.334855e+001  5.000000e+001
      vertex -2.083378e+001  1.323761e+001  5.000000e+001
    endloop
  endfacet
  facet normal  0.000000e+000  0.000000e+000  9.999999e-001
    outer loop
      vertex -2.083378e+001  1.323761e+001  5.000000e+001
      vertex -2.934917e+001  1.334855e+001  5.000000e+001
      vertex -2.966622e+001  1.323761e+001  5.000000e+001
    endloop
  endfacet
  facet normal  -0.000000e+000  0.000000e+000  1.000000e+000
    outer loop
      vertex -2.083378e+001  1.323761e+001  5.000000e+001
      vertex -2.966622e+001  1.323761e+001  5.000000e+001
      vertex -2.050000e+001  1.320000e+001  5.000000e+001
    endloop
  endfacet
  facet normal  0.000000e+000  0.000000e+000  1.000000e+000
    outer loop
      vertex -2.050000e+001  1.320000e+001  5.000000e+001
      vertex -2.966622e+001  1.323761e+001  5.000000e+001
      vertex -3.000000e+001  1.320000e+001  5.000000e+001
    endloop
  endfacet
  facet normal  0.000000e+000 -1.000000e+000  0.000000e+000
    outer loop
      vertex -4.100000e+001  1.120000e+001  5.000000e+001
      vertex -4.100000e+001  1.120000e+001  3.500000e+001
      vertex -1.700000e+001  1.120000e+001  5.000000e+001
    endloop
  endfacet
  facet normal  0.000000e+000 -1.000000e+000  -0.000000e+000
    outer loop
      vertex -1.700000e+001  1.120000e+001  5.000000e+001
      vertex -4.100000e+001  1.120000e+001  3.500000e+001
      vertex -1.700000e+001  1.120000e+001  3.500000e+001
    endloop
  endfacet
  facet normal -1.000000e+000  0.000000e+000  0.000000e+000
    outer loop
      vertex -4.700000e+001  1.720000e+001  3.500000e+001
      vertex -4.700000e+001  1.720000e+001  5.000000e+001
      vertex -4.700000e+001  2.480000e+001  3.500000e+001
    endloop
  endfacet
  facet normal -1.000000e+000  0.000000e+000  0.000000e+000
    outer loop
      vertex -4.700000e+001  2.480000e+001  3.500000e+001
      vertex -4.700000e+001  1.720000e+001  5.000000e+001
      vertex -4.700000e+001  2.480000e+001  5.000000e+001
    endloop
  endfacet
  facet normal -7.071068e-001 -7.071066e-001  0.000000e+000
    outer loop
      vertex -4.700000e+001  1.720000e+001  3.500000e+001
      vertex -4.100000e+001  1.120000e+001  3.500000e+001
      vertex -4.700000e+001  1.720000e+001  5.000000e+001
    endloop
  endfacet
  facet normal -7.071068e-001 -7.071066e-001  0.000000e+000
    outer loop
      vertex -4.700000e+001  1.720000e+001  5.000000e+001
      vertex -4.100000e+001  1.120000e+001  3.500000e+001
      vertex -4.100000e+001  1.120000e+001  5.000000e+001
    endloop
  endfacet
  facet normal  1.000000e+000  0.000000e+000  0.000000e+000
    outer loop
      vertex -4.100000e+001  2.480000e+001  3.500000e+001
      vertex -4.100000e+001  2.480000e+001  5.000000e+001
      vertex -4.100000e+001  2.420000e+001  3.500000e+001
    endloop
  endfacet
  facet normal  1.000000e+000  0.000000e+000  0.000000e+000
    outer loop
      vertex -4.100000e+001  2.420000e+001  3.500000e+001
      vertex -4.100000e+001  2.480000e+001  5.000000e+001
      vertex -4.100000e+001  2.420000e+001  5.000000e+001
    endloop
  endfacet
  facet normal  0.000000e+000  1.000000e+000  -0.000000e+000
    outer loop
      vertex -1.700000e+001  1.820000e+001  5.000000e+001
      vertex -1.700000e+001  1.820000e+001  3.500000e+001
      vertex -3.500000e+001  1.820000e+001  5.000000e+001
    endloop
  endfacet
  facet normal  0.000000e+000  1.000000e+000  0.000000e+000
    outer loop
      vertex -3.500000e+001  1.820000e+001  5.000000e+001
      vertex -1.700000e+001  1.820000e+001  3.500000e+001
      vertex -3.500000e+001  1.820000e+001  3.500000e+001
    endloop
  endfacet
  facet normal  7.071068e-001  7.071068e-001  0.000000e+000
    outer loop
      vertex -3.500000e+001  1.820000e+001  3.500000e+001
      vertex -4.100000e+001  2.420000e+001  3.500000e+001
      vertex -3.500000e+001  1.820000e+001  5.000000e+001
    endloop
  endfacet
  facet normal  7.071068e-001  7.071068e-001  0.000000e+000
    outer loop
      vertex -3.500000e+001  1.820000e+001  5.000000e+001
      vertex -4.100000e+001  2.420000e+001  3.500000e+001
      vertex -4.100000e+001  2.420000e+001  5.000000e+001
    endloop
  endfacet
  facet normal  1.119671e-001 -9.937119e-001  0.000000e+000
    outer loop
      vertex -3.000000e+001  1.620000e+001  3.500000e+001
      vertex -3.033378e+001  1.616239e+001  5.000000e+001
      vertex -3.033378e+001  1.616239e+001  3.500000e+001
    endloop
  endfacet
  facet normal  3.302811e-001 -9.438826e-001  0.000000e+000
    outer loop
      vertex -3.033378e+001  1.616239e+001  3.500000e+001
      vertex -3.033378e+001  1.616239e+001  5.000000e+001
      vertex -3.065083e+001  1.605145e+001  5.000000e+001
    endloop
  endfacet
  facet normal  3.302811e-001 -9.438826e-001  0.000000e+000
    outer loop
      vertex -3.033378e+001  1.616239e+001  3.500000e+001
      vertex -3.065083e+001  1.605145e+001  5.000000e+001
      vertex -3.065083e+001  1.605145e+001  3.500000e+001
    endloop
  endfacet
  facet normal  5.320309e-001 -8.467250e-001  0.000000e+000
    outer loop
      vertex -3.065083e+001  1.605145e+001  3.500000e+001
      vertex -3.065083e+001  1.605145e+001  5.000000e+001
      vertex -3.093523e+001  1.587275e+001  5.000000e+001
    endloop
  endfacet
  facet normal  5.320309e-001 -8.467250e-001  0.000000e+000
    outer loop
      vertex -3.065083e+001  1.605145e+001  3.500000e+001
      vertex -3.093523e+001  1.587275e+001  5.000000e+001
      vertex -3.093523e+001  1.587275e+001  3.500000e+001
    endloop
  endfacet
  facet normal  7.071068e-001 -7.071068e-001  0.000000e+000
    outer loop
      vertex -3.093523e+001  1.587275e+001  3.500000e+001
      vertex -3.093523e+001  1.587275e+001  5.000000e+001
      vertex -3.117275e+001  1.563523e+001  5.000000e+001
    endloop
  endfacet
  facet normal  7.071068e-001 -7.071068e-001  0.000000e+000
    outer loop
      vertex -3.093523e+001  1.587275e+001  3.500000e+001
      vertex -3.117275e+001  1.563523e+001  5.000000e+001
      vertex -3.117275e+001  1.563523e+001  3.500000e+001
    endloop
  endfacet
  facet normal  8.467231e-001 -5.320337e-001  0.000000e+000
    outer loop
      vertex -3.117275e+001  1.563523e+001  3.500000e+001
      vertex -3.117275e+001  1.563523e+001  5.000000e+001
      vertex -3.135145e+001  1.535083e+001  5.000000e+001
    endloop
  endfacet
  facet normal  8.467231e-001 -5.320337e-001  0.000000e+000
    outer loop
      vertex -3.117275e+001  1.563523e+001  3.500000e+001
      vertex -3.135145e+001  1.535083e+001  5.000000e+001
      vertex -3.135145e+001  1.535083e+001  3.500000e+001
    endloop
  endfacet
  facet normal  9.438829e-001 -3.302802e-001  0.000000e+000
    outer loop
      vertex -3.135145e+001  1.535083e+001  3.500000e+001
      vertex -3.135145e+001  1.535083e+001  5.000000e+001
      vertex -3.146239e+001  1.503378e+001  5.000000e+001
    endloop
  endfacet
  facet normal  9.438829e-001 -3.302802e-001  0.000000e+000
    outer loop
      vertex -3.135145e+001  1.535083e+001  3.500000e+001
      vertex -3.146239e+001  1.503378e+001  5.000000e+001
      vertex -3.146239e+001  1.503378e+001  3.500000e+001
    endloop
  endfacet
  facet normal  9.937125e-001 -1.119618e-001  0.000000e+000
    outer loop
      vertex -3.146239e+001  1.503378e+001  3.500000e+001
      vertex -3.146239e+001  1.503378e+001  5.000000e+001
      vertex -3.150000e+001  1.470000e+001  5.000000e+001
    endloop
  endfacet
  facet normal  9.937125e-001 -1.119618e-001  0.000000e+000
    outer loop
      vertex -3.146239e+001  1.503378e+001  3.500000e+001
      vertex -3.150000e+001  1.470000e+001  5.000000e+001
      vertex -3.150000e+001  1.470000e+001  3.500000e+001
    endloop
  endfacet
  facet normal  1.119671e-001 -9.937119e-001  0.000000e+000
    outer loop
      vertex -3.033378e+001  1.616239e+001  5.000000e+001
      vertex -3.000000e+001  1.620000e+001  3.500000e+001
      vertex -3.000000e+001  1.620000e+001  5.000000e+001
    endloop
  endfacet
  facet normal -1.119671e-001 -9.937119e-001  -0.000000e+000
    outer loop
      vertex -3.000000e+001  1.620000e+001  5.000000e+001
      vertex -3.000000e+001  1.620000e+001  3.500000e+001
      vertex -2.966622e+001  1.616239e+001  3.500000e+001
    endloop
  endfacet
  facet normal -1.119671e-001 -9.937119e-001  0.000000e+000
    outer loop
      vertex -3.000000e+001  1.620000e+001  5.000000e+001
      vertex -2.966622e+001  1.616239e+001  3.500000e+001
      vertex -2.966622e+001  1.616239e+001  5.000000e+001
    endloop
  endfacet
  facet normal -3.302811e-001 -9.438826e-001  -0.000000e+000
    outer loop
      vertex -2.966622e+001  1.616239e+001  5.000000e+001
      vertex -2.966622e+001  1.616239e+001  3.500000e+001
      vertex -2.934917e+001  1.605145e+001  3.500000e+001
    endloop
  endfacet
  facet normal -3.302811e-001 -9.438826e-001  0.000000e+000
    outer loop
      vertex -2.966622e+001  1.616239e+001  5.000000e+001
      vertex -2.934917e+001  1.605145e+001  3.500000e+001
      vertex -2.934917e+001  1.605145e+001  5.000000e+001
    endloop
  endfacet
  facet normal -5.320309e-001 -8.467250e-001  -0.000000e+000
    outer loop
      vertex -2.934917e+001  1.605145e+001  5.000000e+001
      vertex -2.934917e+001  1.605145e+001  3.500000e+001
      vertex -2.906477e+001  1.587275e+001  3.500000e+001
    endloop
  endfacet
  facet normal -5.320309e-001 -8.467250e-001  0.000000e+000
    outer loop
      vertex -2.934917e+001  1.605145e+001  5.000000e+001
      vertex -2.906477e+001  1.587275e+001  3.500000e+001
      vertex -2.906477e+001  1.587275e+001  5.000000e+001
    endloop
  endfacet
  facet normal -7.071068e-001 -7.071068e-001  -0.000000e+000
    outer loop
      vertex -2.906477e+001  1.587275e+001  5.000000e+001
      vertex -2.906477e+001  1.587275e+001  3.500000e+001
      vertex -2.882725e+001  1.563523e+001  3.500000e+001
    endloop
  endfacet
  facet normal -7.071068e-001 -7.071068e-001  0.000000e+000
    outer loop
      vertex -2.906477e+001  1.587275e+001  5.000000e+001
      vertex -2.882725e+001  1.563523e+001  3.500000e+001
      vertex -2.882725e+001  1.563523e+001  5.000000e+001
    endloop
  endfacet
  facet normal -8.467231e-001 -5.320337e-001  -0.000000e+000
    outer loop
      vertex -2.882725e+001  1.563523e+001  5.000000e+001
      vertex -2.882725e+001  1.563523e+001  3.500000e+001
      vertex -2.864855e+001  1.535083e+001  3.500000e+001
    endloop
  endfacet
  facet normal -8.467231e-001 -5.320337e-001  0.000000e+000
    outer loop
      vertex -2.882725e+001  1.563523e+001  5.000000e+001
      vertex -2.864855e+001  1.535083e+001  3.500000e+001
      vertex -2.864855e+001  1.535083e+001  5.000000e+001
    endloop
  endfacet
  facet normal -9.438829e-001 -3.302802e-001  -0.000000e+000
    outer loop
      vertex -2.864855e+001  1.535083e+001  5.000000e+001
      vertex -2.864855e+001  1.535083e+001  3.500000e+001
      vertex -2.853761e+001  1.503378e+001  3.500000e+001
    endloop
  endfacet
  facet normal -9.438829e-001 -3.302802e-001  0.000000e+000
    outer loop
      vertex -2.864855e+001  1.535083e+001  5.000000e+001
      vertex -2.853761e+001  1.503378e+001  3.500000e+001
      vertex -2.853761e+001  1.503378e+001  5.000000e+001
    endloop
  endfacet
  facet normal -9.937125e-001 -1.119618e-001  -0.000000e+000
    outer loop
      vertex -2.853761e+001  1.503378e+001  5.000000e+001
      vertex -2.853761e+001  1.503378e+001  3.500000e+001
      vertex -2.850000e+001  1.470000e+001  3.500000e+001
    endloop
  endfacet
  facet normal -9.937125e-001 -1.119618e-001  0.000000e+000
    outer loop
      vertex -2.853761e+001  1.503378e+001  5.000000e+001
      vertex -2.850000e+001  1.470000e+001  3.500000e+001
      vertex -2.850000e+001  1.470000e+001  5.000000e+001
    endloop
  endfacet
  facet normal -1.119642e-001  9.937122e-001  0.000000e+000
    outer loop
      vertex -3.000000e+001  1.320000e+001  3.500000e+001
      vertex -2.966622e+001  1.323761e+001  5.000000e+001
      vertex -2.966622e+001  1.323761e+001  3.500000e+001
    endloop
  endfacet
  facet normal -3.302811e-001  9.438826e-001  0.000000e+000
    outer loop
      vertex -2.966622e+001  1.323761e+001  3.500000e+001
      vertex -2.966622e+001  1.323761e+001  5.000000e+001
      vertex -2.934917e+001  1.334855e+001  5.000000e+001
    endloop
  endfacet
  facet normal -3.302811e-001  9.438826e-001  0.000000e+000
    outer loop
      vertex -2.966622e+001  1.323761e+001  3.500000e+001
      vertex -2.934917e+001  1.334855e+001  5.000000e+001
      vertex -2.934917e+001  1.334855e+001  3.500000e+001
    endloop
  endfacet
  facet normal -5.320330e-001  8.467236e-001  0.000000e+000
    outer loop
      vertex -2.934917e+001  1.334855e+001  3.500000e+001
      vertex -2.934917e+001  1.334855e+001  5.000000e+001
      vertex -2.906477e+001  1.352725e+001  5.000000e+001
    endloop
  endfacet
  facet normal -5.320330e-001  8.467236e-001  0.000000e+000
    outer loop
      vertex -2.934917e+001  1.334855e+001  3.500000e+001
      vertex -2.906477e+001  1.352725e+001  5.000000e+001
      vertex -2.906477e+001  1.352725e+001  3.500000e+001
    endloop
  endfacet
  facet normal -7.071068e-001  7.071068e-001  0.000000e+000
    outer loop
      vertex -2.906477e+001  1.352725e+001  3.500000e+001
      vertex -2.906477e+001  1.352725e+001  5.000000e+001
      vertex -2.882725e+001  1.376477e+001  5.000000e+001
    endloop
  endfacet
  facet normal -7.071068e-001  7.071068e-001  0.000000e+000
    outer loop
      vertex -2.906477e+001  1.352725e+001  3.500000e+001
      vertex -2.882725e+001  1.376477e+001  5.000000e+001
      vertex -2.882725e+001  1.376477e+001  3.500000e+001
    endloop
  endfacet
  facet normal -8.467224e-001  5.320350e-001  0.000000e+000
    outer loop
      vertex -2.882725e+001  1.376477e+001  3.500000e+001
      vertex -2.882725e+001  1.376477e+001  5.000000e+001
      vertex -2.864855e+001  1.404917e+001  5.000000e+001
    endloop
  endfacet
  facet normal -8.467224e-001  5.320350e-001  0.000000e+000
    outer loop
      vertex -2.882725e+001  1.376477e+001  3.500000e+001
      vertex -2.864855e+001  1.404917e+001  5.000000e+001
      vertex -2.864855e+001  1.404917e+001  3.500000e+001
    endloop
  endfacet
  facet normal -9.438829e-001  3.302802e-001  0.000000e+000
    outer loop
      vertex -2.864855e+001  1.404917e+001  3.500000e+001
      vertex -2.864855e+001  1.404917e+001  5.000000e+001
      vertex -2.853761e+001  1.436622e+001  5.000000e+001
    endloop
  endfacet
  facet normal -9.438829e-001  3.302802e-001  0.000000e+000
    outer loop
      vertex -2.864855e+001  1.404917e+001  3.500000e+001
      vertex -2.853761e+001  1.436622e+001  5.000000e+001
      vertex -2.853761e+001  1.436622e+001  3.500000e+001
    endloop
  endfacet
  facet normal -9.937125e-001  1.119618e-001  0.000000e+000
    outer loop
      vertex -2.853761e+001  1.436622e+001  3.500000e+001
      vertex -2.853761e+001  1.436622e+001  5.000000e+001
      vertex -2.850000e+001  1.470000e+001  5.000000e+001
    endloop
  endfacet
  facet normal -9.937125e-001  1.119618e-001  0.000000e+000
    outer loop
      vertex -2.853761e+001  1.436622e+001  3.500000e+001
      vertex -2.850000e+001  1.470000e+001  5.000000e+001
      vertex -2.850000e+001  1.470000e+001  3.500000e+001
    endloop
  endfacet
  facet normal -1.119642e-001  9.937122e-001  0.000000e+000
    outer loop
      vertex -2.966622e+001  1.323761e+001  5.000000e+001
      vertex -3.000000e+001  1.320000e+001  3.500000e+001
      vertex -3.000000e+001  1.320000e+001  5.000000e+001
    endloop
  endfacet
  facet normal  1.119642e-001  9.937122e-001  0.000000e+000
    outer loop
      vertex -3.000000e+001  1.320000e+001  5.000000e+001
      vertex -3.000000e+001  1.320000e+001  3.500000e+001
      vertex -3.033378e+001  1.323761e+001  3.500000e+001
    endloop
  endfacet
  facet normal  1.119642e-001  9.937122e-001  -0.000000e+000
    outer loop
      vertex -3.000000e+001  1.320000e+001  5.000000e+001
      vertex -3.033378e+001  1.323761e+001  3.500000e+001
      vertex -3.033378e+001  1.323761e+001  5.000000e+001
    endloop
  endfacet
  facet normal  3.302811e-001  9.438826e-001  0.000000e+000
    outer loop
      vertex -3.033378e+001  1.323761e+001  5.000000e+001
      vertex -3.033378e+001  1.323761e+001  3.500000e+001
      vertex -3.065083e+001  1.334855e+001  3.500000e+001
    endloop
  endfacet
  facet normal  3.302811e-001  9.438826e-001  -0.000000e+000
    outer loop
      vertex -3.033378e+001  1.323761e+001  5.000000e+001
      vertex -3.065083e+001  1.334855e+001  3.500000e+001
      vertex -3.065083e+001  1.334855e+001  5.000000e+001
    endloop
  endfacet
  facet normal  5.320330e-001  8.467236e-001  0.000000e+000
    outer loop
      vertex -3.065083e+001  1.334855e+001  5.000000e+001
      vertex -3.065083e+001  1.334855e+001  3.500000e+001
      vertex -3.093523e+001  1.352725e+001  3.500000e+001
    endloop
  endfacet
  facet normal  5.320330e-001  8.467236e-001  -0.000000e+000
    outer loop
      vertex -3.065083e+001  1.334855e+001  5.000000e+001
      vertex -3.093523e+001  1.352725e+001  3.500000e+001
      vertex -3.093523e+001  1.352725e+001  5.000000e+001
    endloop
  endfacet
  facet normal  7.071068e-001  7.071068e-001  0.000000e+000
    outer loop
      vertex -3.093523e+001  1.352725e+001  5.000000e+001
      vertex -3.093523e+001  1.352725e+001  3.500000e+001
      vertex -3.117275e+001  1.376477e+001  3.500000e+001
    endloop
  endfacet
  facet normal  7.071068e-001  7.071068e-001  -0.000000e+000
    outer loop
      vertex -3.093523e+001  1.352725e+001  5.000000e+001
      vertex -3.117275e+001  1.376477e+001  3.500000e+001
      vertex -3.117275e+001  1.376477e+001  5.000000e+001
    endloop
  endfacet
  facet normal  8.467224e-001  5.320350e-001  0.000000e+000
    outer loop
      vertex -3.117275e+001  1.376477e+001  5.000000e+001
      vertex -3.117275e+001  1.376477e+001  3.500000e+001
      vertex -3.135145e+001  1.404917e+001  3.500000e+001
    endloop
  endfacet
  facet normal  8.467224e-001  5.320350e-001  -0.000000e+000
    outer loop
      vertex -3.117275e+001  1.376477e+001  5.000000e+001
      vertex -3.135145e+001  1.404917e+001  3.500000e+001
      vertex -3.135145e+001  1.404917e+001  5.000000e+001
    endloop
  endfacet
  facet normal  9.438829e-001  3.302802e-001  0.000000e+000
    outer loop
      vertex -3.135145e+001  1.404917e+001  5.000000e+001
      vertex -3.135145e+001  1.404917e+001  3.500000e+001
      vertex -3.146239e+001  1.436622e+001  3.500000e+001
    endloop
  endfacet
  facet normal  9.438829e-001  3.302802e-001  -0.000000e+000
    outer loop
      vertex -3.135145e+001  1.404917e+001  5.000000e+001
      vertex -3.146239e+001  1.436622e+001  3.500000e+001
      vertex -3.146239e+001  1.436622e+001  5.000000e+001
    endloop
  endfacet
  facet normal  9.937125e-001  1.119618e-001  0.000000e+000
    outer loop
      vertex -3.146239e+001  1.436622e+001  5.000000e+001
      vertex -3.146239e+001  1.436622e+001  3.500000e+001
      vertex -3.150000e+001  1.470000e+001  3.500000e+001
    endloop
  endfacet
  facet normal  9.937125e-001  1.119618e-001  -0.000000e+000
    outer loop
      vertex -3.146239e+001  1.436622e+001  5.000000e+001
      vertex -3.150000e+001  1.470000e+001  3.500000e+001
      vertex -3.150000e+001  1.470000e+001  5.000000e+001
    endloop
  endfacet
  facet normal  1.119671e-001 -9.937119e-001  0.000000e+000
    outer loop
      vertex -2.050000e+001  1.620000e+001  3.500000e+001
      vertex -2.083378e+001  1.616239e+001  5.000000e+001
      vertex -2.083378e+001  1.616239e+001  3.500000e+001
    endloop
  endfacet
  facet normal  3.302811e-001 -9.438826e-001  0.000000e+000
    outer loop
      vertex -2.083378e+001  1.616239e+001  3.500000e+001
      vertex -2.083378e+001  1.616239e+001  5.000000e+001
      vertex -2.115083e+001  1.605145e+001  5.000000e+001
    endloop
  endfacet
  facet normal  3.302811e-001 -9.438826e-001  0.000000e+000
    outer loop
      vertex -2.083378e+001  1.616239e+001  3.500000e+001
      vertex -2.115083e+001  1.605145e+001  5.000000e+001
      vertex -2.115083e+001  1.605145e+001  3.500000e+001
    endloop
  endfacet
  facet normal  5.320309e-001 -8.467250e-001  0.000000e+000
    outer loop
      vertex -2.115083e+001  1.605145e+001  3.500000e+001
      vertex -2.115083e+001  1.605145e+001  5.000000e+001
      vertex -2.143523e+001  1.587275e+001  5.000000e+001
    endloop
  endfacet
  facet normal  5.320309e-001 -8.467250e-001  0.000000e+000
    outer loop
      vertex -2.115083e+001  1.605145e+001  3.500000e+001
      vertex -2.143523e+001  1.587275e+001  5.000000e+001
      vertex -2.143523e+001  1.587275e+001  3.500000e+001
    endloop
  endfacet
  facet normal  7.071068e-001 -7.071068e-001  0.000000e+000
    outer loop
      vertex -2.143523e+001  1.587275e+001  3.500000e+001
      vertex -2.143523e+001  1.587275e+001  5.000000e+001
      vertex -2.167275e+001  1.563523e+001  5.000000e+001
    endloop
  endfacet
  facet normal  7.071068e-001 -7.071068e-001  0.000000e+000
    outer loop
      vertex -2.143523e+001  1.587275e+001  3.500000e+001
      vertex -2.167275e+001  1.563523e+001  5.000000e+001
      vertex -2.167275e+001  1.563523e+001  3.500000e+001
    endloop
  endfacet
  facet normal  8.467231e-001 -5.320337e-001  0.000000e+000
    outer loop
      vertex -2.167275e+001  1.563523e+001  3.500000e+001
      vertex -2.167275e+001  1.563523e+001  5.000000e+001
      vertex -2.185145e+001  1.535083e+001  5.000000e+001
    endloop
  endfacet
  facet normal  8.467231e-001 -5.320337e-001  0.000000e+000
    outer loop
      vertex -2.167275e+001  1.563523e+001  3.500000e+001
      vertex -2.185145e+001  1.535083e+001  5.000000e+001
      vertex -2.185145e+001  1.535083e+001  3.500000e+001
    endloop
  endfacet
  facet normal  9.438829e-001 -3.302802e-001  0.000000e+000
    outer loop
      vertex -2.185145e+001  1.535083e+001  3.500000e+001
      vertex -2.185145e+001  1.535083e+001  5.000000e+001
      vertex -2.196239e+001  1.503378e+001  5.000000e+001
    endloop
  endfacet
  facet normal  9.438829e-001 -3.302802e-001  0.000000e+000
    outer loop
      vertex -2.185145e+001  1.535083e+001  3.500000e+001
      vertex -2.196239e+001  1.503378e+001  5.000000e+001
      vertex -2.196239e+001  1.503378e+001  3.500000e+001
    endloop
  endfacet
  facet normal  9.937125e-001 -1.119618e-001  0.000000e+000
    outer loop
      vertex -2.196239e+001  1.503378e+001  3.500000e+001
      vertex -2.196239e+001  1.503378e+001  5.000000e+001
      vertex -2.200000e+001  1.470000e+001  5.000000e+001
    endloop
  endfacet
  facet normal  9.937125e-001 -1.119618e-001  0.000000e+000
    outer loop
      vertex -2.196239e+001  1.503378e+001  3.500000e+001
      vertex -2.200000e+001  1.470000e+001  5.000000e+001
      vertex -2.200000e+001  1.470000e+001  3.500000e+001
    endloop
  endfacet
  facet normal  1.119671e-001 -9.937119e-001  0.000000e+000
    outer loop
      vertex -2.083378e+001  1.616239e+001  5.000000e+001
      vertex -2.050000e+001  1.620000e+001  3.500000e+001
      vertex -2.050000e+001  1.620000e+001  5.000000e+001
    endloop
  endfacet
  facet normal -1.119671e-001 -9.937119e-001  -0.000000e+000
    outer loop
      vertex -2.050000e+001  1.620000e+001  5.000000e+001
      vertex -2.050000e+001  1.620000e+001  3.500000e+001
      vertex -2.016622e+001  1.616239e+001  3.500000e+001
    endloop
  endfacet
  facet normal -1.119671e-001 -9.937119e-001  0.000000e+000
    outer loop
      vertex -2.050000e+001  1.620000e+001  5.000000e+001
      vertex -2.016622e+001  1.616239e+001  3.500000e+001
      vertex -2.016622e+001  1.616239e+001  5.000000e+001
    endloop
  endfacet
  facet normal -3.302811e-001 -9.438826e-001  -0.000000e+000
    outer loop
      vertex -2.016622e+001  1.616239e+001  5.000000e+001
      vertex -2.016622e+001  1.616239e+001  3.500000e+001
      vertex -1.984917e+001  1.605145e+001  3.500000e+001
    endloop
  endfacet
  facet normal -3.302811e-001 -9.438826e-001  0.000000e+000
    outer loop
      vertex -2.016622e+001  1.616239e+001  5.000000e+001
      vertex -1.984917e+001  1.605145e+001  3.500000e+001
      vertex -1.984917e+001  1.605145e+001  5.000000e+001
    endloop
  endfacet
  facet normal -5.320309e-001 -8.467250e-001  -0.000000e+000
    outer loop
      vertex -1.984917e+001  1.605145e+001  5.000000e+001
      vertex -1.984917e+001  1.605145e+001  3.500000e+001
      vertex -1.956477e+001  1.587275e+001  3.500000e+001
    endloop
  endfacet
  facet normal -5.320309e-001 -8.467250e-001  0.000000e+000
    outer loop
      vertex -1.984917e+001  1.605145e+001  5.000000e+001
      vertex -1.956477e+001  1.587275e+001  3.500000e+001
      vertex -1.956477e+001  1.587275e+001  5.000000e+001
    endloop
  endfacet
  facet normal -7.071068e-001 -7.071068e-001  -0.000000e+000
    outer loop
      vertex -1.956477e+001  1.587275e+001  5.000000e+001
      vertex -1.956477e+001  1.587275e+001  3.500000e+001
      vertex -1.932725e+001  1.563523e+001  3.500000e+001
    endloop
  endfacet
  facet normal -7.071068e-001 -7.071068e-001  0.000000e+000
    outer loop
      vertex -1.956477e+001  1.587275e+001  5.000000e+001
      vertex -1.932725e+001  1.563523e+001  3.500000e+001
      vertex -1.932725e+001  1.563523e+001  5.000000e+001
    endloop
  endfacet
  facet normal -8.467231e-001 -5.320337e-001  -0.000000e+000
    outer loop
      vertex -1.932725e+001  1.563523e+001  5.000000e+001
      vertex -1.932725e+001  1.563523e+001  3.500000e+001
      vertex -1.914855e+001  1.535083e+001  3.500000e+001
    endloop
  endfacet
  facet normal -8.467231e-001 -5.320337e-001  0.000000e+000
    outer loop
      vertex -1.932725e+001  1.563523e+001  5.000000e+001
      vertex -1.914855e+001  1.535083e+001  3.500000e+001
      vertex -1.914855e+001  1.535083e+001  5.000000e+001
    endloop
  endfacet
  facet normal -9.438829e-001 -3.302802e-001  -0.000000e+000
    outer loop
      vertex -1.914855e+001  1.535083e+001  5.000000e+001
      vertex -1.914855e+001  1.535083e+001  3.500000e+001
      vertex -1.903761e+001  1.503378e+001  3.500000e+001
    endloop
  endfacet
  facet normal -9.438829e-001 -3.302802e-001  0.000000e+000
    outer loop
      vertex -1.914855e+001  1.535083e+001  5.000000e+001
      vertex -1.903761e+001  1.503378e+001  3.500000e+001
      vertex -1.903761e+001  1.503378e+001  5.000000e+001
    endloop
  endfacet
  facet normal -9.937125e-001 -1.119618e-001  -0.000000e+000
    outer loop
      vertex -1.903761e+001  1.503378e+001  5.000000e+001
      vertex -1.903761e+001  1.503378e+001  3.500000e+001
      vertex -1.900000e+001  1.470000e+001  3.500000e+001
    endloop
  endfacet
  facet normal -9.937125e-001 -1.119618e-001  0.000000e+000
    outer loop
      vertex -1.903761e+001  1.503378e+001  5.000000e+001
      vertex -1.900000e+001  1.470000e+001  3.500000e+001
      vertex -1.900000e+001  1.470000e+001  5.000000e+001
    endloop
  endfacet
  facet normal -1.119642e-001  9.937122e-001  0.000000e+000
    outer loop
      vertex -2.050000e+001  1.320000e+001  3.500000e+001
      vertex -2.016622e+001  1.323761e+001  5.000000e+001
      vertex -2.016622e+001  1.323761e+001  3.500000e+001
    endloop
  endfacet
  facet normal -3.302811e-001  9.438826e-001  0.000000e+000
    outer loop
      vertex -2.016622e+001  1.323761e+001  3.500000e+001
      vertex -2.016622e+001  1.323761e+001  5.000000e+001
      vertex -1.984917e+001  1.334855e+001  5.000000e+001
    endloop
  endfacet
  facet normal -3.302811e-001  9.438826e-001  0.000000e+000
    outer loop
      vertex -2.016622e+001  1.323761e+001  3.500000e+001
      vertex -1.984917e+001  1.334855e+001  5.000000e+001
      vertex -1.984917e+001  1.334855e+001  3.500000e+001
    endloop
  endfacet
  facet normal -5.320330e-001  8.467236e-001  0.000000e+000
    outer loop
      vertex -1.984917e+001  1.334855e+001  3.500000e+001
      vertex -1.984917e+001  1.334855e+001  5.000000e+001
      vertex -1.956477e+001  1.352725e+001  5.000000e+001
    endloop
  endfacet
  facet normal -5.320330e-001  8.467236e-001  0.000000e+000
    outer loop
      vertex -1.984917e+001  1.334855e+001  3.500000e+001
      vertex -1.956477e+001  1.352725e+001  5.000000e+001
      vertex -1.956477e+001  1.352725e+001  3.500000e+001
    endloop
  endfacet
  facet normal -7.071068e-001  7.071068e-001  0.000000e+000
    outer loop
      vertex -1.956477e+001  1.352725e+001  3.500000e+001
      vertex -1.956477e+001  1.352725e+001  5.000000e+001
      vertex -1.932725e+001  1.376477e+001  5.000000e+001
    endloop
  endfacet
  facet normal -7.071068e-001  7.071068e-001  0.000000e+000
    outer loop
      vertex -1.956477e+001  1.352725e+001  3.500000e+001
      vertex -1.932725e+001  1.376477e+001  5.000000e+001
      vertex -1.932725e+001  1.376477e+001  3.500000e+001
    endloop
  endfacet
  facet normal -8.467224e-001  5.320350e-001  0.000000e+000
    outer loop
      vertex -1.932725e+001  1.376477e+001  3.500000e+001
      vertex -1.932725e+001  1.376477e+001  5.000000e+001
      vertex -1.914855e+001  1.404917e+001  5.000000e+001
    endloop
  endfacet
  facet normal -8.467224e-001  5.320350e-001  0.000000e+000
    outer loop
      vertex -1.932725e+001  1.376477e+001  3.500000e+001
      vertex -1.914855e+001  1.404917e+001  5.000000e+001
      vertex -1.914855e+001  1.404917e+001  3.500000e+001
    endloop
  endfacet
  facet normal -9.438829e-001  3.302802e-001  0.000000e+000
    outer loop
      vertex -1.914855e+001  1.404917e+001  3.500000e+001
      vertex -1.914855e+001  1.404917e+001  5.000000e+001
      vertex -1.903761e+001  1.436622e+001  5.000000e+001
    endloop
  endfacet
  facet normal -9.438829e-001  3.302802e-001  0.000000e+000
    outer loop
      vertex -1.914855e+001  1.404917e+001  3.500000e+001
      vertex -1.903761e+001  1.436622e+001  5.000000e+001
      vertex -1.903761e+001  1.436622e+001  3.500000e+001
    endloop
  endfacet
  facet normal -9.937125e-001  1.119618e-001  0.000000e+000
    outer loop
      vertex -1.903761e+001  1.436622e+001  3.500000e+001
      vertex -1.903761e+001  1.436622e+001  5.000000e+001
      vertex -1.900000e+001  1.470000e+001  5.000000e+001
    endloop
  endfacet
  facet normal -9.937125e-001  1.119618e-001  0.000000e+000
    outer loop
      vertex -1.903761e+001  1.436622e+001  3.500000e+001
      vertex -1.900000e+001  1.470000e+001  5.000000e+001
      vertex -1.900000e+001  1.470000e+001  3.500000e+001
    endloop
  endfacet
  facet normal -1.119642e-001  9.937122e-001  0.000000e+000
    outer loop
      vertex -2.016622e+001  1.323761e+001  5.000000e+001
      vertex -2.050000e+001  1.320000e+001  3.500000e+001
      vertex -2.050000e+001  1.320000e+001  5.000000e+001
    endloop
  endfacet
  facet normal  1.119642e-001  9.937122e-001  0.000000e+000
    outer loop
      vertex -2.050000e+001  1.320000e+001  5.000000e+001
      vertex -2.050000e+001  1.320000e+001  3.500000e+001
      vertex -2.083378e+001  1.323761e+001  3.500000e+001
    endloop
  endfacet
  facet normal  1.119642e-001  9.937122e-001  -0.000000e+000
    outer loop
      vertex -2.050000e+001  1.320000e+001  5.000000e+001
      vertex -2.083378e+001  1.323761e+001  3.500000e+001
      vertex -2.083378e+001  1.323761e+001  5.000000e+001
    endloop
  endfacet
  facet normal  3.302811e-001  9.438826e-001  0.000000e+000
    outer loop
      vertex -2.083378e+001  1.323761e+001  5.000000e+001
      vertex -2.083378e+001  1.323761e+001  3.500000e+001
      vertex -2.115083e+001  1.334855e+001  3.500000e+001
    endloop
  endfacet
  facet normal  3.302811e-001  9.438826e-001  -0.000000e+000
    outer loop
      vertex -2.083378e+001  1.323761e+001  5.000000e+001
      vertex -2.115083e+001  1.334855e+001  3.500000e+001
      vertex -2.115083e+001  1.334855e+001  5.000000e+001
    endloop
  endfacet
  facet normal  5.320330e-001  8.467236e-001  0.000000e+000
    outer loop
      vertex -2.115083e+001  1.334855e+001  5.000000e+001
      vertex -2.115083e+001  1.334855e+001  3.500000e+001
      vertex -2.143523e+001  1.352725e+001  3.500000e+001
    endloop
  endfacet
  facet normal  5.320330e-001  8.467236e-001  -0.000000e+000
    outer loop
      vertex -2.115083e+001  1.334855e+001  5.000000e+001
      vertex -2.143523e+001  1.352725e+001  3.500000e+001
      vertex -2.143523e+001  1.352725e+001  5.000000e+001
    endloop
  endfacet
  facet normal  7.071068e-001  7.071068e-001  0.000000e+000
    outer loop
      vertex -2.143523e+001  1.352725e+001  5.000000e+001
      vertex -2.143523e+001  1.352725e+001  3.500000e+001
      vertex -2.167275e+001  1.376477e+001  3.500000e+001
    endloop
  endfacet
  facet normal  7.071068e-001  7.071068e-001  -0.000000e+000
    outer loop
      vertex -2.143523e+001  1.352725e+001  5.000000e+001
      vertex -2.167275e+001  1.376477e+001  3.500000e+001
      vertex -2.167275e+001  1.376477e+001  5.000000e+001
    endloop
  endfacet
  facet normal  8.467224e-001  5.320350e-001  0.000000e+000
    outer loop
      vertex -2.167275e+001  1.376477e+001  5.000000e+001
      vertex -2.167275e+001  1.376477e+001  3.500000e+001
      vertex -2.185145e+001  1.404917e+001  3.500000e+001
    endloop
  endfacet
  facet normal  8.467224e-001  5.320350e-001  -0.000000e+000
    outer loop
      vertex -2.167275e+001  1.376477e+001  5.000000e+001
      vertex -2.185145e+001  1.404917e+001  3.500000e+001
      vertex -2.185145e+001  1.404917e+001  5.000000e+001
    endloop
  endfacet
  facet normal  9.438829e-001  3.302802e-001  0.000000e+000
    outer loop
      vertex -2.185145e+001  1.404917e+001  5.000000e+001
      vertex -2.185145e+001  1.404917e+001  3.500000e+001
      vertex -2.196239e+001  1.436622e+001  3.500000e+001
    endloop
  endfacet
  facet normal  9.438829e-001  3.302802e-001  -0.000000e+000
    outer loop
      vertex -2.185145e+001  1.404917e+001  5.000000e+001
      vertex -2.196239e+001  1.436622e+001  3.500000e+001
      vertex -2.196239e+001  1.436622e+001  5.000000e+001
    endloop
  endfacet
  facet normal  9.937125e-001  1.119618e-001  0.000000e+000
    outer loop
      vertex -2.196239e+001  1.436622e+001  5.000000e+001
      vertex -2.196239e+001  1.436622e+001  3.500000e+001
      vertex -2.200000e+001  1.470000e+001  3.500000e+001
    endloop
  endfacet
  facet normal  9.937125e-001  1.119618e-001  -0.000000e+000
    outer loop
      vertex -2.196239e+001  1.436622e+001  5.000000e+001
      vertex -2.200000e+001  1.470000e+001  3.500000e+001
      vertex -2.200000e+001  1.470000e+001  5.000000e+001
    endloop
  endfacet
  facet normal  0.000000e+000  1.000000e+000  0.000000e+000
    outer loop
      vertex -4.700000e+001  2.480000e+001  3.500000e+001
      vertex -4.700000e+001  2.480000e+001  5.000000e+001
      vertex -4.100000e+001  2.480000e+001  3.500000e+001
    endloop
  endfacet
  facet normal  0.000000e+000  1.000000e+000  -0.000000e+000
    outer loop
      vertex -4.100000e+001  2.480000e+001  3.500000e+001
      vertex -4.700000e+001  2.480000e+001  5.000000e+001
      vertex -4.100000e+001  2.480000e+001  5.000000e+001
    endloop
  endfacet
  facet normal  1.000000e+000  0.000000e+000  0.000000e+000
    outer loop
      vertex -1.700000e+001  1.820000e+001  3.500000e+001
      vertex -1.700000e+001  1.820000e+001  5.000000e+001
      vertex -1.700000e+001  1.120000e+001  3.500000e+001
    endloop
  endfacet
  facet normal  1.000000e+000  0.000000e+000  0.000000e+000
    outer loop
      vertex -1.700000e+001  1.120000e+001  3.500000e+001
      vertex -1.700000e+001  1.820000e+001  5.000000e+001
      vertex -1.700000e+001  1.120000e+001  5.000000e+001
    endloop
  endfacet
endsolid CATIA STL
