solid CATIA STL
  facet normal  -0.000000e+000  0.000000e+000  1.000000e+000
    outer loop
      vertex  9.000000e+000  4.400000e+000  8.000000e+000
      vertex  7.000000e+000  4.400000e+000  8.000000e+000
      vertex  9.000000e+000  2.014763e-016  8.000000e+000
    endloop
  endfacet
  facet normal  0.000000e+000  0.000000e+000  1.000000e+000
    outer loop
      vertex  9.000000e+000  2.014763e-016  8.000000e+000
      vertex  7.000000e+000  4.400000e+000  8.000000e+000
      vertex  7.000000e+000  3.000000e+000  8.000000e+000
    endloop
  endfacet
  facet normal  0.000000e+000  0.000000e+000  1.000000e+000
    outer loop
      vertex  9.000000e+000  2.014763e-016  8.000000e+000
      vertex  7.000000e+000  3.000000e+000  8.000000e+000
      vertex  0.000000e+000  0.000000e+000  8.000000e+000
    endloop
  endfacet
  facet normal  0.000000e+000  0.000000e+000  1.000000e+000
    outer loop
      vertex  0.000000e+000  0.000000e+000  8.000000e+000
      vertex  7.000000e+000  3.000000e+000  8.000000e+000
      vertex  0.000000e+000  3.000000e+000  8.000000e+000
    endloop
  endfacet
  facet normal  0.000000e+000  0.000000e+000 -1.000000e+000
    outer loop
      vertex  9.000000e+000  4.400000e+000 -8.000000e+000
      vertex  9.000000e+000  2.014763e-016 -8.000000e+000
      vertex  7.000000e+000  4.400000e+000 -8.000000e+000
    endloop
  endfacet
  facet normal  0.000000e+000  0.000000e+000 -1.000000e+000
    outer loop
      vertex  7.000000e+000  4.400000e+000 -8.000000e+000
      vertex  9.000000e+000  2.014763e-016 -8.000000e+000
      vertex  7.000000e+000  3.000000e+000 -8.000000e+000
    endloop
  endfacet
  facet normal  0.000000e+000  0.000000e+000 -1.000000e+000
    outer loop
      vertex  9.000000e+000  2.014763e-016 -8.000000e+000
      vertex  0.000000e+000  0.000000e+000 -8.000000e+000
      vertex  7.000000e+000  3.000000e+000 -8.000000e+000
    endloop
  endfacet
  facet normal  -0.000000e+000  0.000000e+000 -1.000000e+000
    outer loop
      vertex  7.000000e+000  3.000000e+000 -8.000000e+000
      vertex  0.000000e+000  0.000000e+000 -8.000000e+000
      vertex  0.000000e+000  3.000000e+000 -8.000000e+000
    endloop
  endfacet
  facet normal  1.000000e+000  0.000000e+000  0.000000e+000
    outer loop
      vertex  9.000000e+000  4.400000e+000 -8.000000e+000
      vertex  9.000000e+000  4.400000e+000  8.000000e+000
      vertex  9.000000e+000  2.014763e-016 -8.000000e+000
    endloop
  endfacet
  facet normal  1.000000e+000  0.000000e+000  0.000000e+000
    outer loop
      vertex  9.000000e+000  2.014763e-016 -8.000000e+000
      vertex  9.000000e+000  4.400000e+000  8.000000e+000
      vertex  9.000000e+000  2.014763e-016  8.000000e+000
    endloop
  endfacet
  facet normal  2.238626e-017 -1.000000e+000  0.000000e+000
    outer loop
      vertex  9.000000e+000  2.014763e-016 -8.000000e+000
      vertex  9.000000e+000  2.014763e-016  8.000000e+000
      vertex  0.000000e+000  0.000000e+000 -8.000000e+000
    endloop
  endfacet
  facet normal  2.238626e-017 -1.000000e+000  0.000000e+000
    outer loop
      vertex  0.000000e+000  0.000000e+000 -8.000000e+000
      vertex  9.000000e+000  2.014763e-016  8.000000e+000
      vertex  0.000000e+000  0.000000e+000  8.000000e+000
    endloop
  endfacet
  facet normal -1.000000e+000  0.000000e+000  0.000000e+000
    outer loop
      vertex  0.000000e+000  3.000000e+000 -8.000000e+000
      vertex  0.000000e+000  0.000000e+000 -8.000000e+000
      vertex  0.000000e+000  3.000000e+000  8.000000e+000
    endloop
  endfacet
  facet normal -1.000000e+000  -0.000000e+000  0.000000e+000
    outer loop
      vertex  0.000000e+000  3.000000e+000  8.000000e+000
      vertex  0.000000e+000  0.000000e+000 -8.000000e+000
      vertex  0.000000e+000  0.000000e+000  8.000000e+000
    endloop
  endfacet
  facet normal  0.000000e+000  1.000000e+000  0.000000e+000
    outer loop
      vertex  7.000000e+000  3.000000e+000 -8.000000e+000
      vertex  0.000000e+000  3.000000e+000 -8.000000e+000
      vertex  7.000000e+000  3.000000e+000  8.000000e+000
    endloop
  endfacet
  facet normal  0.000000e+000  1.000000e+000  0.000000e+000
    outer loop
      vertex  7.000000e+000  3.000000e+000  8.000000e+000
      vertex  0.000000e+000  3.000000e+000 -8.000000e+000
      vertex  0.000000e+000  3.000000e+000  8.000000e+000
    endloop
  endfacet
  facet normal -1.000000e+000  0.000000e+000  0.000000e+000
    outer loop
      vertex  7.000000e+000  4.400000e+000 -8.000000e+000
      vertex  7.000000e+000  3.000000e+000 -8.000000e+000
      vertex  7.000000e+000  4.400000e+000  8.000000e+000
    endloop
  endfacet
  facet normal -1.000000e+000  -0.000000e+000  0.000000e+000
    outer loop
      vertex  7.000000e+000  4.400000e+000  8.000000e+000
      vertex  7.000000e+000  3.000000e+000 -8.000000e+000
      vertex  7.000000e+000  3.000000e+000  8.000000e+000
    endloop
  endfacet
  facet normal  0.000000e+000  1.000000e+000  0.000000e+000
    outer loop
      vertex  9.000000e+000  4.400000e+000 -8.000000e+000
      vertex  7.000000e+000  4.400000e+000 -8.000000e+000
      vertex  9.000000e+000  4.400000e+000  8.000000e+000
    endloop
  endfacet
  facet normal  0.000000e+000  1.000000e+000  0.000000e+000
    outer loop
      vertex  9.000000e+000  4.400000e+000  8.000000e+000
      vertex  7.000000e+000  4.400000e+000 -8.000000e+000
      vertex  7.000000e+000  4.400000e+000  8.000000e+000
    endloop
  endfacet
endsolid CATIA STL
